<mxfile host="Electron" agent="Mozilla/5.0 (Windows NT 10.0; Win64; x64) AppleWebKit/537.36 (KHTML, like Gecko) draw.io/27.0.9 Chrome/134.0.6998.205 Electron/35.4.0 Safari/537.36" version="27.0.9">
  <diagram name="Page-1" id="Wx9fCzSNd0P0ou5cQPIT">
    <mxGraphModel dx="1188" dy="741" grid="1" gridSize="10" guides="1" tooltips="1" connect="1" arrows="1" fold="1" page="1" pageScale="1" pageWidth="827" pageHeight="1169" math="0" shadow="0">
      <root>
        <mxCell id="0" />
        <mxCell id="1" parent="0" />
        <mxCell id="epSYKEgupzC-YlLHhk_k-59" value="" style="shape=ext;double=1;rounded=0;whiteSpace=wrap;html=1;fontFamily=Helvetica;fontSize=11;fontColor=default;labelBackgroundColor=default;sketch=1;curveFitting=1;jiggle=2;" vertex="1" parent="1">
          <mxGeometry x="540" y="840" width="270" height="160" as="geometry" />
        </mxCell>
        <mxCell id="epSYKEgupzC-YlLHhk_k-56" value="" style="shape=ext;double=1;rounded=0;whiteSpace=wrap;html=1;fontFamily=Helvetica;fontSize=11;fontColor=default;labelBackgroundColor=default;sketch=1;curveFitting=1;jiggle=2;" vertex="1" parent="1">
          <mxGeometry x="10" y="690" width="490" height="340" as="geometry" />
        </mxCell>
        <mxCell id="epSYKEgupzC-YlLHhk_k-24" value="" style="group;fillColor=#fff2cc;strokeColor=#d6b656;fillStyle=solid;" vertex="1" connectable="0" parent="1">
          <mxGeometry x="150" y="50" width="310" height="310" as="geometry" />
        </mxCell>
        <mxCell id="epSYKEgupzC-YlLHhk_k-1" value="MAIN COMPUTER" style="whiteSpace=wrap;html=1;aspect=fixed;labelPosition=center;verticalLabelPosition=top;align=center;verticalAlign=bottom;glass=0;rounded=1;sketch=1;curveFitting=1;jiggle=2;shadow=0;strokeColor=default;fillColor=none;perimeterSpacing=0;strokeWidth=1;" vertex="1" parent="epSYKEgupzC-YlLHhk_k-24">
          <mxGeometry width="310" height="310" as="geometry" />
        </mxCell>
        <mxCell id="epSYKEgupzC-YlLHhk_k-3" value="chataigne" style="shape=image;aspect=fixed;image=data:image/png,iVBORw0KGgoAAAANSUhEUgAAAQAAAAEACAYAAABccqhmAAAACXBIWXMAAAsTAAALEwEAmpwYAAAKT2lDQ1BQaG90b3Nob3AgSUNDIHByb2ZpbGUAAHjanVNnVFPpFj333vRCS4iAlEtvUhUIIFJCi4AUkSYqIQkQSoghodkVUcERRUUEG8igiAOOjoCMFVEsDIoK2AfkIaKOg6OIisr74Xuja9a89+bN/rXXPues852zzwfACAyWSDNRNYAMqUIeEeCDx8TG4eQuQIEKJHAAEAizZCFz/SMBAPh+PDwrIsAHvgABeNMLCADATZvAMByH/w/qQplcAYCEAcB0kThLCIAUAEB6jkKmAEBGAYCdmCZTAKAEAGDLY2LjAFAtAGAnf+bTAICd+Jl7AQBblCEVAaCRACATZYhEAGg7AKzPVopFAFgwABRmS8Q5ANgtADBJV2ZIALC3AMDOEAuyAAgMADBRiIUpAAR7AGDIIyN4AISZABRG8lc88SuuEOcqAAB4mbI8uSQ5RYFbCC1xB1dXLh4ozkkXKxQ2YQJhmkAuwnmZGTKBNA/g88wAAKCRFRHgg/P9eM4Ors7ONo62Dl8t6r8G/yJiYuP+5c+rcEAAAOF0ftH+LC+zGoA7BoBt/qIl7gRoXgugdfeLZrIPQLUAoOnaV/Nw+H48PEWhkLnZ2eXk5NhKxEJbYcpXff5nwl/AV/1s+X48/Pf14L7iJIEyXYFHBPjgwsz0TKUcz5IJhGLc5o9H/LcL//wd0yLESWK5WCoU41EScY5EmozzMqUiiUKSKcUl0v9k4t8s+wM+3zUAsGo+AXuRLahdYwP2SycQWHTA4vcAAPK7b8HUKAgDgGiD4c93/+8//UegJQCAZkmScQAAXkQkLlTKsz/HCAAARKCBKrBBG/TBGCzABhzBBdzBC/xgNoRCJMTCQhBCCmSAHHJgKayCQiiGzbAdKmAv1EAdNMBRaIaTcA4uwlW4Dj1wD/phCJ7BKLyBCQRByAgTYSHaiAFiilgjjggXmYX4IcFIBBKLJCDJiBRRIkuRNUgxUopUIFVIHfI9cgI5h1xGupE7yAAygvyGvEcxlIGyUT3UDLVDuag3GoRGogvQZHQxmo8WoJvQcrQaPYw2oefQq2gP2o8+Q8cwwOgYBzPEbDAuxsNCsTgsCZNjy7EirAyrxhqwVqwDu4n1Y8+xdwQSgUXACTYEd0IgYR5BSFhMWE7YSKggHCQ0EdoJNwkDhFHCJyKTqEu0JroR+cQYYjIxh1hILCPWEo8TLxB7iEPENyQSiUMyJ7mQAkmxpFTSEtJG0m5SI+ksqZs0SBojk8naZGuyBzmULCAryIXkneTD5DPkG+Qh8lsKnWJAcaT4U+IoUspqShnlEOU05QZlmDJBVaOaUt2ooVQRNY9aQq2htlKvUYeoEzR1mjnNgxZJS6WtopXTGmgXaPdpr+h0uhHdlR5Ol9BX0svpR+iX6AP0dwwNhhWDx4hnKBmbGAcYZxl3GK+YTKYZ04sZx1QwNzHrmOeZD5lvVVgqtip8FZHKCpVKlSaVGyovVKmqpqreqgtV81XLVI+pXlN9rkZVM1PjqQnUlqtVqp1Q61MbU2epO6iHqmeob1Q/pH5Z/YkGWcNMw09DpFGgsV/jvMYgC2MZs3gsIWsNq4Z1gTXEJrHN2Xx2KruY/R27iz2qqaE5QzNKM1ezUvOUZj8H45hx+Jx0TgnnKKeX836K3hTvKeIpG6Y0TLkxZVxrqpaXllirSKtRq0frvTau7aedpr1Fu1n7gQ5Bx0onXCdHZ4/OBZ3nU9lT3acKpxZNPTr1ri6qa6UbobtEd79up+6Ynr5egJ5Mb6feeb3n+hx9L/1U/W36p/VHDFgGswwkBtsMzhg8xTVxbzwdL8fb8VFDXcNAQ6VhlWGX4YSRudE8o9VGjUYPjGnGXOMk423GbcajJgYmISZLTepN7ppSTbmmKaY7TDtMx83MzaLN1pk1mz0x1zLnm+eb15vft2BaeFostqi2uGVJsuRaplnutrxuhVo5WaVYVVpds0atna0l1rutu6cRp7lOk06rntZnw7Dxtsm2qbcZsOXYBtuutm22fWFnYhdnt8Wuw+6TvZN9un2N/T0HDYfZDqsdWh1+c7RyFDpWOt6azpzuP33F9JbpL2dYzxDP2DPjthPLKcRpnVOb00dnF2e5c4PziIuJS4LLLpc+Lpsbxt3IveRKdPVxXeF60vWdm7Obwu2o26/uNu5p7ofcn8w0nymeWTNz0MPIQ+BR5dE/C5+VMGvfrH5PQ0+BZ7XnIy9jL5FXrdewt6V3qvdh7xc+9j5yn+M+4zw33jLeWV/MN8C3yLfLT8Nvnl+F30N/I/9k/3r/0QCngCUBZwOJgUGBWwL7+Hp8Ib+OPzrbZfay2e1BjKC5QRVBj4KtguXBrSFoyOyQrSH355jOkc5pDoVQfujW0Adh5mGLw34MJ4WHhVeGP45wiFga0TGXNXfR3ENz30T6RJZE3ptnMU85ry1KNSo+qi5qPNo3ujS6P8YuZlnM1VidWElsSxw5LiquNm5svt/87fOH4p3iC+N7F5gvyF1weaHOwvSFpxapLhIsOpZATIhOOJTwQRAqqBaMJfITdyWOCnnCHcJnIi/RNtGI2ENcKh5O8kgqTXqS7JG8NXkkxTOlLOW5hCepkLxMDUzdmzqeFpp2IG0yPTq9MYOSkZBxQqohTZO2Z+pn5mZ2y6xlhbL+xW6Lty8elQfJa7OQrAVZLQq2QqboVFoo1yoHsmdlV2a/zYnKOZarnivN7cyzytuQN5zvn//tEsIS4ZK2pYZLVy0dWOa9rGo5sjxxedsK4xUFK4ZWBqw8uIq2Km3VT6vtV5eufr0mek1rgV7ByoLBtQFr6wtVCuWFfevc1+1dT1gvWd+1YfqGnRs+FYmKrhTbF5cVf9go3HjlG4dvyr+Z3JS0qavEuWTPZtJm6ebeLZ5bDpaql+aXDm4N2dq0Dd9WtO319kXbL5fNKNu7g7ZDuaO/PLi8ZafJzs07P1SkVPRU+lQ27tLdtWHX+G7R7ht7vPY07NXbW7z3/T7JvttVAVVN1WbVZftJ+7P3P66Jqun4lvttXa1ObXHtxwPSA/0HIw6217nU1R3SPVRSj9Yr60cOxx++/p3vdy0NNg1VjZzG4iNwRHnk6fcJ3/ceDTradox7rOEH0x92HWcdL2pCmvKaRptTmvtbYlu6T8w+0dbq3nr8R9sfD5w0PFl5SvNUyWna6YLTk2fyz4ydlZ19fi753GDborZ752PO32oPb++6EHTh0kX/i+c7vDvOXPK4dPKy2+UTV7hXmq86X23qdOo8/pPTT8e7nLuarrlca7nuer21e2b36RueN87d9L158Rb/1tWeOT3dvfN6b/fF9/XfFt1+cif9zsu72Xcn7q28T7xf9EDtQdlD3YfVP1v+3Njv3H9qwHeg89HcR/cGhYPP/pH1jw9DBY+Zj8uGDYbrnjg+OTniP3L96fynQ89kzyaeF/6i/suuFxYvfvjV69fO0ZjRoZfyl5O/bXyl/erA6xmv28bCxh6+yXgzMV70VvvtwXfcdx3vo98PT+R8IH8o/2j5sfVT0Kf7kxmTk/8EA5jz/GMzLdsAADoyaVRYdFhNTDpjb20uYWRvYmUueG1wAAAAAAA8P3hwYWNrZXQgYmVnaW49Iu+7vyIgaWQ9Ilc1TTBNcENlaGlIenJlU3pOVGN6a2M5ZCI/Pgo8eDp4bXBtZXRhIHhtbG5zOng9ImFkb2JlOm5zOm1ldGEvIiB4OnhtcHRrPSJBZG9iZSBYTVAgQ29yZSA1LjYtYzA2NyA3OS4xNTc3NDcsIDIwMTUvMDMvMzAtMjM6NDA6NDIgICAgICAgICI+CiAgIDxyZGY6UkRGIHhtbG5zOnJkZj0iaHR0cDovL3d3dy53My5vcmcvMTk5OS8wMi8yMi1yZGYtc3ludGF4LW5zIyI+CiAgICAgIDxyZGY6RGVzY3JpcHRpb24gcmRmOmFib3V0PSIiCiAgICAgICAgICAgIHhtbG5zOnhtcD0iaHR0cDovL25zLmFkb2JlLmNvbS94YXAvMS4wLyIKICAgICAgICAgICAgeG1sbnM6eG1wTU09Imh0dHA6Ly9ucy5hZG9iZS5jb20veGFwLzEuMC9tbS8iCiAgICAgICAgICAgIHhtbG5zOnN0RXZ0PSJodHRwOi8vbnMuYWRvYmUuY29tL3hhcC8xLjAvc1R5cGUvUmVzb3VyY2VFdmVudCMiCiAgICAgICAgICAgIHhtbG5zOmRjPSJodHRwOi8vcHVybC5vcmcvZGMvZWxlbWVudHMvMS4xLyIKICAgICAgICAgICAgeG1sbnM6cGhvdG9zaG9wPSJodHRwOi8vbnMuYWRvYmUuY29tL3Bob3Rvc2hvcC8xLjAvIgogICAgICAgICAgICB4bWxuczp0aWZmPSJodHRwOi8vbnMuYWRvYmUuY29tL3RpZmYvMS4wLyIKICAgICAgICAgICAgeG1sbnM6ZXhpZj0iaHR0cDovL25zLmFkb2JlLmNvbS9leGlmLzEuMC8iPgogICAgICAgICA8eG1wOkNyZWF0b3JUb29sPkFkb2JlIFBob3Rvc2hvcCBDQyAyMDE1IChXaW5kb3dzKTwveG1wOkNyZWF0b3JUb29sPgogICAgICAgICA8eG1wOkNyZWF0ZURhdGU+MjAxNi0xMC0yOFQxNzo1Nzo0NiswMjowMDwveG1wOkNyZWF0ZURhdGU+CiAgICAgICAgIDx4bXA6TWV0YWRhdGFEYXRlPjIwMTYtMTAtMjhUMTc6NTc6NDYrMDI6MDA8L3htcDpNZXRhZGF0YURhdGU+CiAgICAgICAgIDx4bXA6TW9kaWZ5RGF0ZT4yMDE2LTEwLTI4VDE3OjU3OjQ2KzAyOjAwPC94bXA6TW9kaWZ5RGF0ZT4KICAgICAgICAgPHhtcE1NOkluc3RhbmNlSUQ+eG1wLmlpZDowNGIyZGYxNS1mZThjLWI1NDEtYmI0Yi0zOTkxYWYyN2NiNmM8L3htcE1NOkluc3RhbmNlSUQ+CiAgICAgICAgIDx4bXBNTTpEb2N1bWVudElEPmFkb2JlOmRvY2lkOnBob3Rvc2hvcDoxODJhOTA2YS05ZDI3LTExZTYtYTY4MC04MzFmZmNiMDY3N2Q8L3htcE1NOkRvY3VtZW50SUQ+CiAgICAgICAgIDx4bXBNTTpPcmlnaW5hbERvY3VtZW50SUQ+eG1wLmRpZDo0YzEzNTJlMS0xZWI3LTY4NGQtYmIxNy1lYTc1Mzk5OGExMDg8L3htcE1NOk9yaWdpbmFsRG9jdW1lbnRJRD4KICAgICAgICAgPHhtcE1NOkhpc3Rvcnk+CiAgICAgICAgICAgIDxyZGY6U2VxPgogICAgICAgICAgICAgICA8cmRmOmxpIHJkZjpwYXJzZVR5cGU9IlJlc291cmNlIj4KICAgICAgICAgICAgICAgICAgPHN0RXZ0OmFjdGlvbj5jcmVhdGVkPC9zdEV2dDphY3Rpb24+CiAgICAgICAgICAgICAgICAgIDxzdEV2dDppbnN0YW5jZUlEPnhtcC5paWQ6NGMxMzUyZTEtMWViNy02ODRkLWJiMTctZWE3NTM5OThhMTA4PC9zdEV2dDppbnN0YW5jZUlEPgogICAgICAgICAgICAgICAgICA8c3RFdnQ6d2hlbj4yMDE2LTEwLTI4VDE3OjU3OjQ2KzAyOjAwPC9zdEV2dDp3aGVuPgogICAgICAgICAgICAgICAgICA8c3RFdnQ6c29mdHdhcmVBZ2VudD5BZG9iZSBQaG90b3Nob3AgQ0MgMjAxNSAoV2luZG93cyk8L3N0RXZ0OnNvZnR3YXJlQWdlbnQ+CiAgICAgICAgICAgICAgIDwvcmRmOmxpPgogICAgICAgICAgICAgICA8cmRmOmxpIHJkZjpwYXJzZVR5cGU9IlJlc291cmNlIj4KICAgICAgICAgICAgICAgICAgPHN0RXZ0OmFjdGlvbj5zYXZlZDwvc3RFdnQ6YWN0aW9uPgogICAgICAgICAgICAgICAgICA8c3RFdnQ6aW5zdGFuY2VJRD54bXAuaWlkOjA0YjJkZjE1LWZlOGMtYjU0MS1iYjRiLTM5OTFhZjI3Y2I2Yzwvc3RFdnQ6aW5zdGFuY2VJRD4KICAgICAgICAgICAgICAgICAgPHN0RXZ0OndoZW4+MjAxNi0xMC0yOFQxNzo1Nzo0NiswMjowMDwvc3RFdnQ6d2hlbj4KICAgICAgICAgICAgICAgICAgPHN0RXZ0OnNvZnR3YXJlQWdlbnQ+QWRvYmUgUGhvdG9zaG9wIENDIDIwMTUgKFdpbmRvd3MpPC9zdEV2dDpzb2Z0d2FyZUFnZW50PgogICAgICAgICAgICAgICAgICA8c3RFdnQ6Y2hhbmdlZD4vPC9zdEV2dDpjaGFuZ2VkPgogICAgICAgICAgICAgICA8L3JkZjpsaT4KICAgICAgICAgICAgPC9yZGY6U2VxPgogICAgICAgICA8L3htcE1NOkhpc3Rvcnk+CiAgICAgICAgIDxkYzpmb3JtYXQ+aW1hZ2UvcG5nPC9kYzpmb3JtYXQ+CiAgICAgICAgIDxwaG90b3Nob3A6Q29sb3JNb2RlPjM8L3Bob3Rvc2hvcDpDb2xvck1vZGU+CiAgICAgICAgIDxwaG90b3Nob3A6SUNDUHJvZmlsZT5zUkdCIElFQzYxOTY2LTIuMTwvcGhvdG9zaG9wOklDQ1Byb2ZpbGU+CiAgICAgICAgIDx0aWZmOk9yaWVudGF0aW9uPjE8L3RpZmY6T3JpZW50YXRpb24+CiAgICAgICAgIDx0aWZmOlhSZXNvbHV0aW9uPjcyMDAwMC8xMDAwMDwvdGlmZjpYUmVzb2x1dGlvbj4KICAgICAgICAgPHRpZmY6WVJlc29sdXRpb24+NzIwMDAwLzEwMDAwPC90aWZmOllSZXNvbHV0aW9uPgogICAgICAgICA8dGlmZjpSZXNvbHV0aW9uVW5pdD4yPC90aWZmOlJlc29sdXRpb25Vbml0PgogICAgICAgICA8ZXhpZjpDb2xvclNwYWNlPjE8L2V4aWY6Q29sb3JTcGFjZT4KICAgICAgICAgPGV4aWY6UGl4ZWxYRGltZW5zaW9uPjI1NjwvZXhpZjpQaXhlbFhEaW1lbnNpb24+CiAgICAgICAgIDxleGlmOlBpeGVsWURpbWVuc2lvbj4yNTY8L2V4aWY6UGl4ZWxZRGltZW5zaW9uPgogICAgICA8L3JkZjpEZXNjcmlwdGlvbj4KICAgPC9yZGY6UkRGPgo8L3g6eG1wbWV0YT4KICAgICAgICAgICAgICAgICAgICAgICAgICAgICAgICAgICAgICAgICAgICAgICAgICAgICAgICAgICAgICAgICAgICAgICAgICAgICAgICAgICAgICAgICAgICAgICAgICAgIAogICAgICAgICAgICAgICAgICAgICAgICAgICAgICAgICAgICAgICAgICAgICAgICAgICAgICAgICAgICAgICAgICAgICAgICAgICAgICAgICAgICAgICAgICAgICAgICAgICAgCiAgICAgICAgICAgICAgICAgICAgICAgICAgICAgICAgICAgICAgICAgICAgICAgICAgICAgICAgICAgICAgICAgICAgICAgICAgICAgICAgICAgICAgICAgICAgICAgICAgICAKICAgICAgICAgICAgICAgICAgICAgICAgICAgICAgICAgICAgICAgICAgICAgICAgICAgICAgICAgICAgICAgICAgICAgICAgICAgICAgICAgICAgICAgICAgICAgICAgICAgIAogICAgICAgICAgICAgICAgICAgICAgICAgICAgICAgICAgICAgICAgICAgICAgICAgICAgICAgICAgICAgICAgICAgICAgICAgICAgICAgICAgICAgICAgICAgICAgICAgICAgCiAgICAgICAgICAgICAgICAgICAgICAgICAgICAgICAgICAgICAgICAgICAgICAgICAgICAgICAgICAgICAgICAgICAgICAgICAgICAgICAgICAgICAgICAgICAgICAgICAgICAKICAgICAgICAgICAgICAgICAgICAgICAgICAgICAgICAgICAgICAgICAgICAgICAgICAgICAgICAgICAgICAgICAgICAgICAgICAgICAgICAgICAgICAgICAgICAgICAgICAgIAogICAgICAgICAgICAgICAgICAgICAgICAgICAgICAgICAgICAgICAgICAgICAgICAgICAgICAgICAgICAgICAgICAgICAgICAgICAgICAgICAgICAgICAgICAgICAgICAgICAgCiAgICAgICAgICAgICAgICAgICAgICAgICAgICAgICAgICAgICAgICAgICAgICAgICAgICAgICAgICAgICAgICAgICAgICAgICAgICAgICAgICAgICAgICAgICAgICAgICAgICAKICAgICAgICAgICAgICAgICAgICAgICAgICAgICAgICAgICAgICAgICAgICAgICAgICAgICAgICAgICAgICAgICAgICAgICAgICAgICAgICAgICAgICAgICAgICAgICAgICAgIAogICAgICAgICAgICAgICAgICAgICAgICAgICAgICAgICAgICAgICAgICAgICAgICAgICAgICAgICAgICAgICAgICAgICAgICAgICAgICAgICAgICAgICAgICAgICAgICAgICAgCiAgICAgICAgICAgICAgICAgICAgICAgICAgICAgICAgICAgICAgICAgICAgICAgICAgICAgICAgICAgICAgICAgICAgICAgICAgICAgICAgICAgICAgICAgICAgICAgICAgICAKICAgICAgICAgICAgICAgICAgICAgICAgICAgICAgICAgICAgICAgICAgICAgICAgICAgICAgICAgICAgICAgICAgICAgICAgICAgICAgICAgICAgICAgICAgICAgICAgICAgIAogICAgICAgICAgICAgICAgICAgICAgICAgICAgICAgICAgICAgICAgICAgICAgICAgICAgICAgICAgICAgICAgICAgICAgICAgICAgICAgICAgICAgICAgICAgICAgICAgICAgCiAgICAgICAgICAgICAgICAgICAgICAgICAgICAgICAgICAgICAgICAgICAgICAgICAgICAgICAgICAgICAgICAgICAgICAgICAgICAgICAgICAgICAgICAgICAgICAgICAgICAKICAgICAgICAgICAgICAgICAgICAgICAgICAgICAgICAgICAgICAgICAgICAgICAgICAgICAgICAgICAgICAgICAgICAgICAgICAgICAgICAgICAgICAgICAgICAgICAgICAgIAogICAgICAgICAgICAgICAgICAgICAgICAgICAgICAgICAgICAgICAgICAgICAgICAgICAgICAgICAgICAgICAgICAgICAgICAgICAgICAgICAgICAgICAgICAgICAgICAgICAgCiAgICAgICAgICAgICAgICAgICAgICAgICAgICAgICAgICAgICAgICAgICAgICAgICAgICAgICAgICAgICAgICAgICAgICAgICAgICAgICAgICAgICAgICAgICAgICAgICAgICAKICAgICAgICAgICAgICAgICAgICAgICAgICAgICAgICAgICAgICAgICAgICAgICAgICAgICAgICAgICAgICAgICAgICAgICAgICAgICAgICAgICAgICAgICAgICAgICAgICAgIAogICAgICAgICAgICAgICAgICAgICAgICAgICAgICAgICAgICAgICAgICAgICAgICAgICAgICAgICAgICAgICAgICAgICAgICAgICAgICAgICAgICAgICAgICAgICAgICAgICAgCiAgICAgICAgICAgICAgICAgICAgICAgICAgICAgICAgICAgICAgICAgICAgICAgICAgICAgICAgICAgICAgICAgICAgICAgICAgICAgICAgICAgICAgICAgICAgICAgICAgICAKICAgICAgICAgICAgICAgICAgICAgICAgICAgICAgICAgICAgICAgICAgICAgICAgICAgICAgICAgICAgICAgICAgICAgICAgICAgICAgICAgICAgICAgICAgICAgICAgICAgIAogICAgICAgICAgICAgICAgICAgICAgICAgICAgICAgICAgICAgICAgICAgICAgICAgICAgICAgICAgICAgICAgICAgICAgICAgICAgICAgICAgICAgICAgICAgICAgICAgICAgCiAgICAgICAgICAgICAgICAgICAgICAgICAgICAgICAgICAgICAgICAgICAgICAgICAgICAgICAgICAgICAgICAgICAgICAgICAgICAgICAgICAgICAgICAgICAgICAgICAgICAKICAgICAgICAgICAgICAgICAgICAgICAgICAgICAgICAgICAgICAgICAgICAgICAgICAgICAgICAgICAgICAgICAgICAgICAgICAgICAgICAgICAgICAgICAgICAgICAgICAgIAogICAgICAgICAgICAgICAgICAgICAgICAgICAgICAgICAgICAgICAgICAgICAgICAgICAgICAgICAgICAgICAgICAgICAgICAgICAgICAgICAgICAgICAgICAgICAgICAgICAgCiAgICAgICAgICAgICAgICAgICAgICAgICAgICAgICAgICAgICAgICAgICAgICAgICAgICAgICAgICAgICAgICAgICAgICAgICAgICAgICAgICAgICAgICAgICAgICAgICAgICAKICAgICAgICAgICAgICAgICAgICAgICAgICAgICAgICAgICAgICAgICAgICAgICAgICAgICAgICAgICAgICAgICAgICAgICAgICAgICAgICAgICAgICAgICAgICAgICAgICAgIAogICAgICAgICAgICAgICAgICAgICAgICAgICAgICAgICAgICAgICAgICAgICAgICAgICAgICAgICAgICAgICAgICAgICAgICAgICAgICAgICAgICAgICAgICAgICAgICAgICAgCiAgICAgICAgICAgICAgICAgICAgICAgICAgICAgICAgICAgICAgICAgICAgICAgICAgICAgICAgICAgICAgICAgICAgICAgICAgICAgICAgICAgICAgICAgICAgICAgICAgICAKICAgICAgICAgICAgICAgICAgICAgICAgICAgICAgICAgICAgICAgICAgICAgICAgICAgICAgICAgICAgICAgICAgICAgICAgICAgICAgICAgICAgICAgICAgICAgICAgICAgIAogICAgICAgICAgICAgICAgICAgICAgICAgICAgICAgICAgICAgICAgICAgICAgICAgICAgICAgICAgICAgICAgICAgICAgICAgICAgICAgICAgICAgICAgICAgICAgICAgICAgCiAgICAgICAgICAgICAgICAgICAgICAgICAgICAgICAgICAgICAgICAgICAgICAgICAgICAgICAgICAgICAgICAgICAgICAgICAgICAgICAgICAgICAgICAgICAgICAgICAgICAKICAgICAgICAgICAgICAgICAgICAgICAgICAgICAgICAgICAgICAgICAgICAgICAgICAgICAgICAgICAgICAgICAgICAgICAgICAgICAgICAgICAgICAgICAgICAgICAgICAgIAogICAgICAgICAgICAgICAgICAgICAgICAgICAgICAgICAgICAgICAgICAgICAgICAgICAgICAgICAgICAgICAgICAgICAgICAgICAgICAgICAgICAgICAgICAgICAgICAgICAgCiAgICAgICAgICAgICAgICAgICAgICAgICAgICAgICAgICAgICAgICAgICAgICAgICAgICAgICAgICAgICAgICAgICAgICAgICAgICAgICAgICAgICAgICAgICAgICAgICAgICAKICAgICAgICAgICAgICAgICAgICAgICAgICAgICAgICAgICAgICAgICAgICAgICAgICAgICAgICAgICAgICAgICAgICAgICAgICAgICAgICAgICAgICAgICAgICAgICAgICAgIAogICAgICAgICAgICAgICAgICAgICAgICAgICAgICAgICAgICAgICAgICAgICAgICAgICAgICAgICAgICAgICAgICAgICAgICAgICAgICAgICAgICAgICAgICAgICAgICAgICAgCiAgICAgICAgICAgICAgICAgICAgICAgICAgICAgICAgICAgICAgICAgICAgICAgICAgICAgICAgICAgICAgICAgICAgICAgICAgICAgICAgICAgICAgICAgICAgICAgICAgICAKICAgICAgICAgICAgICAgICAgICAgICAgICAgICAgICAgICAgICAgICAgICAgICAgICAgICAgICAgICAgICAgICAgICAgICAgICAgICAgICAgICAgICAgICAgICAgICAgICAgIAogICAgICAgICAgICAgICAgICAgICAgICAgICAgICAgICAgICAgICAgICAgICAgICAgICAgICAgICAgICAgICAgICAgICAgICAgICAgICAgICAgICAgICAgICAgICAgICAgICAgCiAgICAgICAgICAgICAgICAgICAgICAgICAgICAgICAgICAgICAgICAgICAgICAgICAgICAgICAgICAgICAgICAgICAgICAgICAgICAgICAgICAgICAgICAgICAgICAgICAgICAKICAgICAgICAgICAgICAgICAgICAgICAgICAgICAgICAgICAgICAgICAgICAgICAgICAgICAgICAgICAgICAgICAgICAgICAgICAgICAgICAgICAgICAgICAgICAgICAgICAgIAogICAgICAgICAgICAgICAgICAgICAgICAgICAgICAgICAgICAgICAgICAgICAgICAgICAgICAgICAgICAgICAgICAgICAgICAgICAgICAgICAgICAgICAgICAgICAgICAgICAgCiAgICAgICAgICAgICAgICAgICAgICAgICAgICAgICAgICAgICAgICAgICAgICAgICAgICAgICAgICAgICAgICAgICAgICAgICAgICAgICAgICAgICAgICAgICAgICAgICAgICAKICAgICAgICAgICAgICAgICAgICAgICAgICAgICAgICAgICAgICAgICAgICAgICAgICAgICAgICAgICAgICAgICAgICAgICAgICAgICAgICAgICAgICAgICAgICAgICAgICAgIAogICAgICAgICAgICAgICAgICAgICAgICAgICAgICAgICAgICAgICAgICAgICAgICAgICAgICAgICAgICAgICAgICAgICAgICAgICAgICAgICAgICAgICAgICAgICAgICAgICAgCiAgICAgICAgICAgICAgICAgICAgICAgICAgICAgICAgICAgICAgICAgICAgICAgICAgICAgICAgICAgICAgICAgICAgICAgICAgICAgICAgICAgICAgICAgICAgICAgICAgICAKICAgICAgICAgICAgICAgICAgICAgICAgICAgICAgICAgICAgICAgICAgICAgICAgICAgICAgICAgICAgICAgICAgICAgICAgICAgICAgICAgICAgICAgICAgICAgICAgICAgIAogICAgICAgICAgICAgICAgICAgICAgICAgICAgICAgICAgICAgICAgICAgICAgICAgICAgICAgICAgICAgICAgICAgICAgICAgICAgICAgICAgICAgICAgICAgICAgICAgICAgCiAgICAgICAgICAgICAgICAgICAgICAgICAgICAgICAgICAgICAgICAgICAgICAgICAgICAgICAgICAgICAgICAgICAgICAgICAgICAgICAgICAgICAgICAgICAgICAgICAgICAKICAgICAgICAgICAgICAgICAgICAgICAgICAgICAgICAgICAgICAgICAgICAgICAgICAgICAgICAgICAgICAgICAgICAgICAgICAgICAgICAgICAgICAgICAgICAgICAgICAgIAogICAgICAgICAgICAgICAgICAgICAgICAgICAgICAgICAgICAgICAgICAgICAgICAgICAgICAgICAgICAgICAgICAgICAgICAgICAgICAgICAgICAgICAgICAgICAgICAgICAgCiAgICAgICAgICAgICAgICAgICAgICAgICAgICAgICAgICAgICAgICAgICAgICAgICAgICAgICAgICAgICAgICAgICAgICAgICAgICAgICAgICAgICAgICAgICAgICAgICAgICAKICAgICAgICAgICAgICAgICAgICAgICAgICAgICAgICAgICAgICAgICAgICAgICAgICAgICAgICAgICAgICAgICAgICAgICAgICAgICAgICAgICAgICAgICAgICAgICAgICAgIAogICAgICAgICAgICAgICAgICAgICAgICAgICAgICAgICAgICAgICAgICAgICAgICAgICAgICAgICAgICAgICAgICAgICAgICAgICAgICAgICAgICAgICAgICAgICAgICAgICAgCiAgICAgICAgICAgICAgICAgICAgICAgICAgICAgICAgICAgICAgICAgICAgICAgICAgICAgICAgICAgICAgICAgICAgICAgICAgICAgICAgICAgICAgICAgICAgICAgICAgICAKICAgICAgICAgICAgICAgICAgICAgICAgICAgICAgICAgICAgICAgICAgICAgICAgICAgICAgICAgICAgICAgICAgICAgICAgICAgICAgICAgICAgICAgICAgICAgICAgICAgIAogICAgICAgICAgICAgICAgICAgICAgICAgICAgICAgICAgICAgICAgICAgICAgICAgICAgICAgICAgICAgICAgICAgICAgICAgICAgICAgICAgICAgICAgICAgICAgICAgICAgCiAgICAgICAgICAgICAgICAgICAgICAgICAgICAgICAgICAgICAgICAgICAgICAgICAgICAgICAgICAgICAgICAgICAgICAgICAgICAgICAgICAgICAgICAgICAgICAgICAgICAKICAgICAgICAgICAgICAgICAgICAgICAgICAgICAgICAgICAgICAgICAgICAgICAgICAgICAgICAgICAgICAgICAgICAgICAgICAgICAgICAgICAgICAgICAgICAgICAgICAgIAogICAgICAgICAgICAgICAgICAgICAgICAgICAgICAgICAgICAgICAgICAgICAgICAgICAgICAgICAgICAgICAgICAgICAgICAgICAgICAgICAgICAgICAgICAgICAgICAgICAgCiAgICAgICAgICAgICAgICAgICAgICAgICAgICAgICAgICAgICAgICAgICAgICAgICAgICAgICAgICAgICAgICAgICAgICAgICAgICAgICAgICAgICAgICAgICAgICAgICAgICAKICAgICAgICAgICAgICAgICAgICAgICAgICAgICAgICAgICAgICAgICAgICAgICAgICAgICAgICAgICAgICAgICAgICAgICAgICAgICAgICAgICAgICAgICAgICAgICAgICAgIAogICAgICAgICAgICAgICAgICAgICAgICAgICAgICAgICAgICAgICAgICAgICAgICAgICAgICAgICAgICAgICAgICAgICAgICAgICAgICAgICAgICAgICAgICAgICAgICAgICAgCiAgICAgICAgICAgICAgICAgICAgICAgICAgICAgICAgICAgICAgICAgICAgICAgICAgICAgICAgICAgICAgICAgICAgICAgICAgICAgICAgICAgICAgICAgICAgICAgICAgICAKICAgICAgICAgICAgICAgICAgICAgICAgICAgICAgICAgICAgICAgICAgICAgICAgICAgICAgICAgICAgICAgICAgICAgICAgICAgICAgICAgICAgICAgICAgICAgICAgICAgIAogICAgICAgICAgICAgICAgICAgICAgICAgICAgICAgICAgICAgICAgICAgICAgICAgICAgICAgICAgICAgICAgICAgICAgICAgICAgICAgICAgICAgICAgICAgICAgICAgICAgCiAgICAgICAgICAgICAgICAgICAgICAgICAgICAgICAgICAgICAgICAgICAgICAgICAgICAgICAgICAgICAgICAgICAgICAgICAgICAgICAgICAgICAgICAgICAgICAgICAgICAKICAgICAgICAgICAgICAgICAgICAgICAgICAgICAgICAgICAgICAgICAgICAgICAgICAgICAgICAgICAgICAgICAgICAgICAgICAgICAgICAgICAgICAgICAgICAgICAgICAgIAogICAgICAgICAgICAgICAgICAgICAgICAgICAgICAgICAgICAgICAgICAgICAgICAgICAgICAgICAgICAgICAgICAgICAgICAgICAgICAgICAgICAgICAgICAgICAgICAgICAgCiAgICAgICAgICAgICAgICAgICAgICAgICAgICAgICAgICAgICAgICAgICAgICAgICAgICAgICAgICAgICAgICAgICAgICAgICAgICAgICAgICAgICAgICAgICAgICAgICAgICAKICAgICAgICAgICAgICAgICAgICAgICAgICAgICAgICAgICAgICAgICAgICAgICAgICAgICAgICAgICAgICAgICAgICAgICAgICAgICAgICAgICAgICAgICAgICAgICAgICAgIAogICAgICAgICAgICAgICAgICAgICAgICAgICAgICAgICAgICAgICAgICAgICAgICAgICAgICAgICAgICAgICAgICAgICAgICAgICAgICAgICAgICAgICAgICAgICAgICAgICAgCiAgICAgICAgICAgICAgICAgICAgICAgICAgICAgICAgICAgICAgICAgICAgICAgICAgICAgICAgICAgICAgICAgICAgICAgICAgICAgICAgICAgICAgICAgICAgICAgICAgICAKICAgICAgICAgICAgICAgICAgICAgICAgICAgICAgICAgICAgICAgICAgICAgICAgICAgICAgICAgICAgICAgICAgICAgICAgICAgICAgICAgICAgICAgICAgICAgICAgICAgIAogICAgICAgICAgICAgICAgICAgICAgICAgICAgICAgICAgICAgICAgICAgICAgICAgICAgICAgICAgICAgICAgICAgICAgICAgICAgICAgICAgICAgICAgICAgICAgICAgICAgCiAgICAgICAgICAgICAgICAgICAgICAgICAgICAgICAgICAgICAgICAgICAgICAgICAgICAgICAgICAgICAgICAgICAgICAgICAgICAgICAgICAgICAgICAgICAgICAgICAgICAKICAgICAgICAgICAgICAgICAgICAgICAgICAgICAgICAgICAgICAgICAgICAgICAgICAgICAgICAgICAgICAgICAgICAgICAgICAgICAgICAgICAgICAgICAgICAgICAgICAgIAogICAgICAgICAgICAgICAgICAgICAgICAgICAgICAgICAgICAgICAgICAgICAgICAgICAgICAgICAgICAgICAgICAgICAgICAgICAgICAgICAgICAgICAgICAgICAgICAgICAgCiAgICAgICAgICAgICAgICAgICAgICAgICAgICAgICAgICAgICAgICAgICAgICAgICAgICAgICAgICAgICAgICAgICAgICAgICAgICAgICAgICAgICAgICAgICAgICAgICAgICAKICAgICAgICAgICAgICAgICAgICAgICAgICAgICAgICAgICAgICAgICAgICAgICAgICAgICAgICAgICAgICAgICAgICAgICAgICAgICAgICAgICAgICAgICAgICAgICAgICAgIAogICAgICAgICAgICAgICAgICAgICAgICAgICAgICAgICAgICAgICAgICAgICAgICAgICAgICAgICAgICAgICAgICAgICAgICAgICAgICAgICAgICAgICAgICAgICAgICAgICAgCiAgICAgICAgICAgICAgICAgICAgICAgICAgICAgICAgICAgICAgICAgICAgICAgICAgICAgICAgICAgICAgICAgICAgICAgICAgICAgICAgICAgICAgICAgICAgICAgICAgICAKICAgICAgICAgICAgICAgICAgICAgICAgICAgICAgICAgICAgICAgICAgICAgICAgICAgICAgICAgICAgICAgICAgICAgICAgICAgICAgICAgICAgICAgICAgICAgICAgICAgIAogICAgICAgICAgICAgICAgICAgICAgICAgICAgICAgICAgICAgICAgICAgICAgICAgICAgICAgICAgICAgICAgICAgICAgICAgICAgICAgICAgICAgICAgICAgICAgICAgICAgCiAgICAgICAgICAgICAgICAgICAgICAgICAgICAgICAgICAgICAgICAgICAgICAgICAgICAgICAgICAgICAgICAgICAgICAgICAgICAgICAgICAgICAgICAgICAgICAgICAgICAKICAgICAgICAgICAgICAgICAgICAgICAgICAgICAgICAgICAgICAgICAgICAgICAgICAgICAgICAgICAgICAgICAgICAgICAgICAgICAgICAgICAgICAgICAgICAgICAgICAgIAogICAgICAgICAgICAgICAgICAgICAgICAgICAgICAgICAgICAgICAgICAgICAgICAgICAgICAgICAgICAgICAgICAgICAgICAgICAgICAgICAgICAgICAgICAgICAgICAgICAgCiAgICAgICAgICAgICAgICAgICAgICAgICAgICAgICAgICAgICAgICAgICAgICAgICAgICAgICAgICAgICAgICAgICAgICAgICAgICAgICAgICAgICAgICAgICAgICAgICAgICAKICAgICAgICAgICAgICAgICAgICAgICAgICAgICAgICAgICAgICAgICAgICAgICAgICAgICAgICAgICAgICAgICAgICAgICAgICAgICAgICAgICAgICAgICAgICAgICAgICAgIAogICAgICAgICAgICAgICAgICAgICAgICAgICAgICAgICAgICAgICAgICAgICAgICAgICAgICAgICAgICAgICAgICAgICAgICAgICAgICAgICAgICAgICAgICAgICAgICAgICAgCiAgICAgICAgICAgICAgICAgICAgICAgICAgICAgICAgICAgICAgICAgICAgICAgICAgICAgICAgICAgICAgICAgICAgICAgICAgICAgICAgICAgICAgICAgICAgICAgICAgICAKICAgICAgICAgICAgICAgICAgICAgICAgICAgICAgICAgICAgICAgICAgICAgICAgICAgICAgICAgICAgICAgICAgICAgICAgICAgICAgICAgICAgICAgICAgICAgICAgICAgIAogICAgICAgICAgICAgICAgICAgICAgICAgICAgICAgICAgICAgICAgICAgICAgICAgICAgICAgICAgICAgICAgICAgICAgICAgICAgICAgICAgICAgICAgICAgICAgICAgICAgCiAgICAgICAgICAgICAgICAgICAgICAgICAgICAgICAgICAgICAgICAgICAgICAgICAgICAgICAgICAgICAgICAgICAgICAgICAgICAgICAgICAgICAgICAgICAgICAgICAgICAKICAgICAgICAgICAgICAgICAgICAgICAgICAgICAgICAgICAgICAgICAgICAgICAgICAgICAgICAgICAgICAgICAgICAgICAgICAgICAgICAgICAgICAgICAgICAgICAgICAgIAogICAgICAgICAgICAgICAgICAgICAgICAgICAgICAgICAgICAgICAgICAgICAgICAgICAgICAgICAgICAgICAgICAgICAgICAgICAgICAgICAgICAgICAgICAgICAgICAgICAgCiAgICAgICAgICAgICAgICAgICAgICAgICAgICAgICAgICAgICAgICAgICAgICAgICAgICAgICAgICAgICAgICAgICAgICAgICAgICAgICAgICAgICAgICAgICAgICAgICAgICAKICAgICAgICAgICAgICAgICAgICAgICAgICAgICAgICAgICAgICAgICAgICAgICAgICAgICAgICAgICAgICAgICAgICAgICAgICAgICAgICAgICAgICAgICAgICAgICAgICAgIAogICAgICAgICAgICAgICAgICAgICAgICAgICAgICAgICAgICAgICAgICAgICAgICAgICAgICAgICAgICAgICAgICAgICAgICAgICAgICAgICAgICAgICAgICAgICAgICAgICAgCiAgICAgICAgICAgICAgICAgICAgICAgICAgICAgICAgICAgICAgICAgICAgICAgICAgICAgICAgICAgICAgICAgICAgICAgICAgICAgICAgICAgICAgICAgICAgICAgICAgICAKICAgICAgICAgICAgICAgICAgICAgICAgICAgICAgICAgICAgICAgICAgICAgICAgICAgICAgICAgICAgICAgICAgICAgICAgICAgICAgICAgICAgICAgICAgICAgICAgICAgIAogICAgICAgICAgICAgICAgICAgICAgICAgICAgICAgICAgICAgICAgICAgICAgICAgICAgICAgICAgICAgICAgICAgICAgICAgICAgICAgICAgICAgICAgICAgICAgICAgICAgCiAgICAgICAgICAgICAgICAgICAgICAgICAgICAgICAgICAgICAgICAgICAgICAgICAgICAgICAgICAgICAgICAgICAgICAgICAgICAgICAgICAgICAgICAgICAgICAgICAgICAKICAgICAgICAgICAgICAgICAgICAgICAgICAgICAgICAgICAgICAgICAgICAgICAgICAgICAgICAgICAgICAgICAgICAgICAgICAgICAgICAgICAgICAgICAgICAgICAgICAgIAogICAgICAgICAgICAgICAgICAgICAgICAgICAgICAgICAgICAgICAgICAgICAgICAgICAgICAgICAgICAgICAgICAgICAgICAgICAgICAgICAgICAgICAgICAgICAgICAgICAgCiAgICAgICAgICAgICAgICAgICAgICAgICAgICAgICAgICAgICAgICAgICAgICAgICAgICAgICAgICAgICAgICAgICAgICAgICAgICAgICAgICAgICAgICAgICAgICAgICAgICAKICAgICAgICAgICAgICAgICAgICAgICAgICAgICAgICAgICAgICAgICAgICAgICAgICAgICAgICAgICAgICAgICAgICAgICAgICAgICAgICAgICAgICAgICAgICAgICAgICAgIAogICAgICAgICAgICAgICAgICAgICAgICAgICAgICAgICAgICAgICAgICAgICAgICAgICAgICAgICAgICAgICAgICAgICAgICAgICAgICAgICAgICAgICAgICAgICAgICAgICAgCiAgICAgICAgICAgICAgICAgICAgICAgICAgICAgICAgICAgICAgICAgICAgICAgICAgICAgICAgICAgICAgICAgICAgICAgICAgICAgICAgICAgICAgICAgICAgICAgICAgICAKICAgICAgICAgICAgICAgICAgICAgICAgICAgICAgICAgICAgICAgICAgICAgICAgICAgICAgICAgICAgICAgICAgICAgICAgICAgICAgICAgICAgICAgICAgICAgICAgICAgIAogICAgICAgICAgICAgICAgICAgICAgICAgICAgICAgICAgICAgICAgICAgICAgICAgICAgICAgICAgICAgICAgICAgICAgICAgICAgICAgICAgICAgICAgICAgICAgICAgICAgCiAgICAgICAgICAgICAgICAgICAgICAgICAgICAgICAgICAgICAgICAgICAgICAgICAgICAgICAgICAgICAgICAgICAgICAgICAgICAgICAgICAgICAgICAgICAgICAgICAgICAKICAgICAgICAgICAgICAgICAgICAgICAgICAgICAgICAgICAgICAgICAgICAgICAgICAgICAgICAgICAgICAgICAgICAgICAgICAgICAgICAgICAgICAgICAgICAgICAgICAgIAogICAgICAgICAgICAgICAgICAgICAgICAgICAgICAgICAgICAgICAgICAgICAgICAgICAgICAgICAgICAgICAgICAgICAgICAgICAgICAgICAgICAgICAgICAgICAgICAgICAgCiAgICAgICAgICAgICAgICAgICAgICAgICAgICAgICAgICAgICAgICAgICAgICAgICAgICAgICAgICAgICAgICAgICAgICAgICAgICAgICAgICAgICAgICAgICAgICAgICAgICAKICAgICAgICAgICAgICAgICAgICAgICAgICAgICAgICAgICAgICAgICAgICAgICAgICAgICAgICAgICAgICAgICAgICAgICAgICAgICAgICAgICAgICAgICAgICAgICAgICAgIAogICAgICAgICAgICAgICAgICAgICAgICAgICAgICAgICAgICAgICAgICAgICAgICAgICAgICAgICAgICAgICAgICAgICAgICAgICAgICAgICAgICAgICAgICAgICAgICAgICAgCiAgICAgICAgICAgICAgICAgICAgICAgICAgICAKPD94cGFja2V0IGVuZD0idyI/Psrc9HAAAAAgY0hSTQAAeiUAAICDAAD5/wAAgOkAAHUwAADqYAAAOpgAABdvkl/FRgAAX5ZJREFUeNrsnXecXUX5h58559xz+/aWbHpvhAAhlNBCM3SkK4qIoCACoqgo+hMLiorYFcQGokgR6b3XUBIgENJ72V5vP21+f8zdNBLYJJuQMs/ncynJ7t2755z5zsw77/t9hZQSjUazZ2LoS6DRaAHQaDRaADQajRYAjUajBUCj0WgB0Gg0WgA0Go0WAI1GowVAo9FoAdBoNFoANBqNFgCNRqMFQKPRaAHQaDRaADQajRYAjUajBUCj0WgB0Gg0WgA0Go0WAI1GowVAo9FoAdBoNFoANBqNFgCNRqMFQKPRaAHQaDRaADQajRYAjUajBUCj0WgB0Gg0WgA0Go0WAI1GowVAo9FoAdBoNFoANBqNFgCNRqMFQKPRAqDRaLQAaDQaLQAajUYLgEaj0QKg0Wi0AGg0Gi0AGo1GC4BGo9ECoNFotABoNBotABqNRguARqPRAqDRaLQAaDQaLQAajUYLgEaj0QKg0Wi0AGg0Gi0AGo1GC4BGo9ECoNFotABoNBotABqNRguARqPZXli9+SIhhL5SuzYCiAIlQBywgQpAFl8AJtAB5IAs0Ank9aXbtZFSbrsAaHYpbGAQMBooBWqAfsBAYGzx78JAbBMikS0O+hXAbGABsApoLP5/g768u9nM8FEKoVcAOz0VwAhg/+IArwHGAeN7vqAqalAWMamImJTagpAhSNoGpiEIivffMgTdhYCcF9BZCGjNBTRkPPLe2ufjFeBdYAbwHLBMX/pdfwWgBWDXZDRwAjCpOOj7AfVCCGpiBntVhRleFmJEeYi6hMnAhEl11KI0bhGPGJhCEhECIdZtAISAQgCOhHTOpz3tsSLlsaLb490WhxkNOd5vc3F8KYG5wGvA74FZ+nZoAdBsXyLFJfxJwGeKA77GMjAGJi3GVIaZXGdzSP8oI8pClEYMkraBHTaKu3y5drfvA0Zx4G/qtkpAyOKGwFBf4LgBnTmf+R0eDyzK8PjSDO+1OkhoAR4Hfggs1LdJC4Cm70gCI4GDgfOBiQJCVVGTIaUWxw6NMaVflEnVIfqXhzCFADfAC9QgDgJJAARSjWPLFNimuo8FT5L2Ago+BMUfZgBRS5CwBCFT4AcSx1fvYxpgCEHIABky6Mr43LcozT/fTfHymjyOL13gB8DNQKu+dVoANFvP3sBk4GRgOmDXxkwmVNtMGxjluOFxRpSHKIlZIMAvBOTdgKA4aW948yFiG4TCAteVzGsu8MrqAm82Fpjf4bAm7VHwJAiImAaDSkwmVIWZNijKYYOjVCQt3FxAzg16FgNICWFbYEdM3FzA3+d089s3OpnT5gC8DlxW/LdGC4BmC5gOHAecAfQvtQ2m1IU5bnicKf0j7F8bxrZV2obvBxQcSXHsbnopLyEaMggEPLAww93zUrzWkGd5t9erD3PUoCifn1DC2ROSEEDW2VAEBBAOG4RCBks7HK5/pZ2/vNNNAG1FEbhD31ItAJqP5hzg88ABQOnEapuThic4dliMvfqFKQ8bEIDrBLiBxA967smH3XQ1S6ccyVeeaOb+RVlyXrDFH8wy4KwxCX51VDUVYZOcE2zwc2VxexEPG/im4J/vdHP1c600Zf0c8BPgx/r2agHQfJAwcC5wMTDeFMQOGRDhggmlHDU4Sv8KGxFIXF/iuAFBcX3fm7sgAVNALG7xy1fauerZbd+Sf+fAcq6bVkU+7+MGm95qhEMCO27y5Lw0FzzawqqUGwDfKwqBZicVAJ0ItGOpAI4AfgSMTYYMcdjAKBfsXcL0IVFiYQPpQy7nqUHPR8/2m7yppgA/YF6r86FfFzIEUUuAhJwvcYNNPyyvrs7jOQGWKXB9+QEFEEIFFr1uj2NGJbgzYnDO/xqNlSnve6ikotv1rd850QKwY6gt7vEvBA6pjpkcNiDKeXslOX5YDMsyyOV8UrmAbV1rCcD1JHbY4MghUW6d0427nphURAxGltkcXB9mVGWYQeUhAFa0uzy/IsvLa/KsTG0YJ9i3XxgrZFAoBJtdhgjAl5BJeRw8KMafptfw2QcaIx2F4FeobMLn9GOw86G3ANuf84EvAIckbIMzRif4/MQSDhsYAdOgkPcpOBKjD8uypISQqY7zfvF6B7fNSeEHkoPrI3xmfJIp/aMkw4bawJvFb/KBIGBWk8sf3+jk/sVpsm7AJ4bG+c3RVdQlLfKFjxYoKdWRYrzU4taZXVz4WBNewELgKGClfhx0DGBP4QTgSuAo2xScOCzGVyaXccSgGEKo5JqCK5Gszbfp4xsPtiWwDcGSbg8fybCEiRU28T2J50t8X+IXb79pFHMFijP9nE4XJwgYW2pTEjJIe71fnfQIUMQ2+OqTzfxmVhfAn4rXo6AfDS0AW7OylbvINR8JfB84SQhKpg+N8/X9yzhgcJSEMHC8ABOJaYq1I993A7KupK8vswRCBoQttbxwfBVYlMVMv00F8wQQsgRhS32B60mVK7AVPzsZNmjMB5xxTwMvr8m5wInAE3pYagHYHBFUmms50L8YNBsG1BVnDguVctqEqkxrRaWjNu8EAlFV3ON/B0juXWNz1ZRyTh+VIBoxwQvAEEgDWro95rU6tGR9QqZgSr8wdXGL9IfssXfJ/aWAeMLi7ve6+fQDTXiBfAOYBmT00NQC0EMlsF9x5jwAle9eBuui1BFLrJ21sm5A1ivOYop3gEeB94A3gfkfw3U+DpUKu//gEosv7l3KF/YuoTZhIb0AYQpyPsxck+eRRRleWZPntcb82kq7E4bFuWV6NTUxi5wb7EYPH0RsgWMIzr23gfsXZQDOA/6ph6YWgH2K++RpwJEANTGTMRU2w0othpSGqE9a1ERNymMmQaBmlKaMS2MmYGWxUm1+u8P7bQUcH4qrgxdQEec7iqGt7b3c/yZwYdgSXDC+hC/tX8bedWG8nA+GwDLg8cVZbnq7i2dX5ugqbHqA/3JaJV87sIJszieQ7FYikEyaPLIgwxn/ayDnybnABNaVIWg+RgH4OI4BRwDXAocAgyujBofWRzluWIzJtRHqS0xqkyEVSt7kZ4+qPzfAcyWrOl0Wd7k8tzLH40uzI99oKoxE8nngIuAWtt8Z9MXAV4HRk2vDXHNwBaeMTiAMyKY9ohGD1mzANc+3cde81GYHfg+t2WBtsGO3QkAhF3DMkChHDY7x0OLMKOAU4H96eO4Et2cHrgCs4sC/AOg3tjLMp8bGOXVknCFVNkmhElICKXGDYgWrVBVt639EQ/TkvwsMoYJcwhBIoM2RvLI8wz/fT/PgogwFX+ZQBhZX0Xd163XAz4FzoiER+vr+ZVyxXzlVMZOCG+B6kkTM5N3GAhc+3sTrDR8d9K6Omtx+Yh3HDouSzu/6E6Moni76cl01cjJu8tD8DGfc30DBl8+jEqI0e8gWYCCqVPS4iojBN6aUc8HepVSXWQSFAMeRBGywr99ilBgIQhGDwJc8vzzPjW908MTSLE4gC8B1wG+A7m34PY4H/gAMOXRAhB8eWsXhQ6PgSNJugJCQSFq8tjzLZx9uZmHH5jPxbENQGTUZkDT5zoEVnDIqQd4N8AK5y68C4rYgQGAKSBcCVZhkG2RcybQ7VvFWc6GhGDd5Rw/R3V8AxgF/AQ46dnCM7x9awcGDYvhuQK4QIEXfLnsDIGIK7LCB6wb8fU6KG17tYGGnC/AI8G2Uv92WEAMuAW6IWYILJpbwg0MqqUhYZLIqbVcCJVGDJe0un7yvkdktm575KyIG0wZG+cTwONMGRBlcEiJkQc6RavDv4qM/HjJ4clmWR5dmOWN0nAPqo+QdtapJJC1++Fwr33+pHeCnqBMTzW4sAGOAe4DxX963lOunVZEMG2Sy/tqg3nb5pVGuNuGQIBSzWNBc4AfPt/LveWlQ2WhfK36u3gb6rgdOG1Nh88NDKzhzXAmeF5AvHtupYhiDnAw4/Z4Gnl6R2+QbnTgsxlcPquCoARFVaucEuL6k4O8eUT/bVLP+qf9r4KElWY4bHuO+T9YhAkHOk5TETV5ZnuWYu9eQdeUC4AbARRVHpVB1Az0vzS4eBIwDNwHjL9mnlF99ooZQAKmUDwbbdaYTxX/kXUm+y2VUeYi/nVrHpBkd/PDljoFpN7gddfx480e81TRUBtvoTwyN8bujaxhZa5PN+HieSt+VgGGAHTH4zUsdmxz8ArjmoAquOriM0ohFLufj5by1f7k7BP4kyli0I+/TlleHL0lLYARCmZUIyOd99uofYe/qMK+uyY8C/rzeW3goL4EWVH7HXOBZlOVYtx7K24ftKQDXAYefOCzGjdOqsH1Jdz7o05z33gSjJJDK+sTCBt+YWkn/hMVXn24Nt+b83xaf2z9v5ttPA/4ioPwr+5Ry7RFVVEQMMmm15F/7e0iIRUwWtTv8/d3UJt/op4dX8o2DKzH8gHTKUyuU3S3cL8EwBY2FgOaMEoAxlWGsiEk64yFQuVBhS/CdA8uZ1VygLmaBhLTr01kIrAWdbu3yLq92WZdLc9Y/IpCcVxSE14BfAG+z/Y92tQD0AQcBZ/VPmFw/rZpIyCCV87dLzntvVwM5J8BwA86dWEpd3OSzDzXbDRnvJpQX/vpHhSHgUuAXZWHDuv6IKr64bym+E5DO+muFZe0FNEAY8NC8DHPbPxj0u3zfUq6aWoHv+GRdudvM+JsSWwxY0uGwpigA4yptMIopxsVf2ikEHDcsxgkj4uvMRwEpwDcFbiFgabvL7LYCzy7PxR9blos3pb0hBV+ejsrx+CXwkl4V7LwCYABnA/2u2r+c8f3CZFLeTjHjBRKyWZ+jRif4iwen398g8p78J+vKVW1URt/V/eMmfzq2lpPHJ8hnfVxv0wE60xQ4AcxY88Gl/5jyEF87oBzDlyrXfwcvyde3/N7ehEyBFPDk4iw5T9I/bjKlX5hg4/wHATl3/YZEG28jYGx1mHH1Ec4Zm2RVyuOppTnumpuyXlydPzLtBkcCDxWF4Dk9hHc+ARgMHDesNMRp45L4hYBAsl0KXTZ4hno5s/qBJJ/yOX5cgp90VPK1Z1pB+dt/EvgUcPW4Cpubp9dwyNAY2bSH/xEBS0PApuJ4nxyVYHBFiGzG36GDP5AQsZRDD4VAbb228wcI24KFbQ4PLlZp/lMHRBlYYZPP+b2+9wLwA0jnfWReiUp90uL8fUr47Lgkjy7P8vd3uvjfosyJUnIk8HdUbsnO5kQcBqpZ14UpAQwH2ouTTQFYU3wVdjcBmASMOmFYjIFxi4Lj9/ngF0DYFJjrPdW+L3GKVtjiI5aqri8RaZ+vTilnWZfHb2d2jgUeBIbsWxvm1pPrmFATVvv9j5hBPV8SsyWnj07w2NIs6WIu//gqmy9MLEG6quR2RwpA1BK05Hz+NyfFftU2U/pHyBa2X4KRKdS5/99mdbOs28My4PPjk1iB3KrmgqIo5l4gSefUyitsCU4cFefIYTEenZfmey+3x+a2OZei6keuQHUu+rjoj+rMNLn4SqL6MFYVt5SRoggEqP6LbvHf7UAX67otvbKjYxzbQwCGAxw+MIYhJH15wmUagqgtwBSkMz7tGQ8QCCRlEYtk3AJfkisE+B9y/CEEFNyAcNzk0n1L+evsLiPjytETq23+cWItE2rtdcG6j1pRSMjlAs4cm6A0JLhvcZaamMGnxiYZXhEikw+22+A3xLpMu3WDEUJhg5tntPPjVzsYlAzx5Dn1jKiw6M70fRBWSkk0ZvLMkiy/e7sTgOOHxDh8SIyCK7dZ6HsuXt6T5D2fSEhw+sRS9q2P8NOX2/nru92TA8l/UV4D/9lB48ZAuTydikprHg+UCUgkbIOaqEl9icWQEosS26A8YlATs+gs+EZLzq/MuJLFnU7dyi6fxqxHxpXHF8VgJXA38Dd2UB9Gazu838CqmEl9idknBbprnWdtA0cI3mzI8eSyLM+vyLOgw127HRhdEWLaoCjTh8YYVxshKiU5VxlfbDyDBxISMZOWTpdvPtdKxpVMrA5z+ym17FUTJt3t93pL0RPdFk7AccPjHDs0hiEECEk6H/RKRLZm+2MbgnBIIAP1e/psaJpQn7QIJCzrdvnyE83cc0odJXGT1CYCmVt7X4SAZCLE8jaHrz/TQsaVJEOCK/YvJ1bM9+jTYC5QcCUFz2VI0uKm42qZWBPm6ufb6jJucFPx+due/oNVwMTiimM6ECq1DTGk1GLqgCgTqsPsXWUzttImEVIPkIFKWe+53n4AEpX5milI3m93eWF1jhdW5CpmNuYrWnLB3sD/oY6ofwks367B2z5OBIoD/xpbaZ9y7yl1jKm0STvBNj1kIVMQiRksanW58bV27p6fpjUXgGpOuQJ1fhxC+QbUV0RMzhod56JJpezbL0LgS7LrZRwGQCxs4AnBFx5s5N/vpxhSavG/M+uZVGuTSvsbPHBb+6Buz9Qe2xI0pD1ufS/FyLIQnxyVQErwpUqnjoTUKulLjzbz93dVsPyk4TH+elId1XGLbNrHl1ufdSgDsG1BOGqxuKXA5x5u4uVVKgj640MrueawCvJZlda83YKcUuUdROMG/3kvzZcfa6KjEOSAL9H35cajgWOAzwGT4yGDcZUhDh8Y5dgRcfarClORNAGBdAPyrlzbdHV90RbrPyRSrdbCIQMRNnDzATOb8zwwP8N/F6R7JrcmVN3Jragcia1aoe1IAUgCd02qCU//76l1DCu1SDtb9xAEEqKWQShicMe73fzo5faeY7Y3gHtZ5wHgF5V/P+ATKD+BybVxk0smlXHlAeWUhNWWQaKy1cIxkx8828q1r7TTL2Fyx4l1HD4iTrp75z+jF0A8ZvL71zu57OkWhpWGePzM/oyoCJEqevZJCdGIQcoLOPveRp5clgXg6EFRfnlMNRP7R/GyPlknQBi9F7ug+NDGYyYYggfnpbn62Rbeb1crsc+OL+HmE2sxfUlhox4C208EIJoMcc+73Vz8WDNteb8LOBN4so8G/udROSEjq6Mm04fFOGNUgsMHRymNWmCC76isUP9DGrV82DUFJdp2RO3PFrS63P5OFze9001Lzgd4BmWx/srOLgA28KdBJdYF93+yH5Nqw8rlZiuWuGFTYIdNfvpyOz9+pY2sJwNU/vhNxUjq5hiI8hn4NRCePjTGr4+pZnSVyuCLRU3+9W43Fz7eDAhuO76GM/dKkkn7HxlA3GkEIGJw/YwOvv18G8NKQ9z3yX7sVW2TctbFG6SERMSgMetz2RMt/HdBGoAhJRZfP6CcL04qxQ4JnJyPK9lsIVbPA22iOgFhCd5rdvjrrE7+OrubVHGff8k+pVx3eBUlIUG2EOwwEZUUV4kJi1tndXLZEy2knGA5cPg2LJ9Lga8UZ/yRg0sszhiV4Ny9kuxVFcYyBYEvcT2JUwxy9cWWCiBkQsQ2wYBZa/L89NV27lmQoRgT+D6qxL3PBKCvYwAOsHBVymNFl8ekushWzvyCkG3wk5fa+L+X2vAlzcDlwJ29eIuVRZF4CfjhY0uznzzl7jX86RM1TBuXZPbSDF9/tpW8J7nxiErO3KuEXNbbJQb/+kSKJyCGoQw9NxXoTOcD+sVN/nZyLUOeD/HbmZ0s6/a44qkW/js/zWfGJTlpaIzKuKlOVAyxrpNwz8j3VZFSd8Hn2VU57l2Y5YGFaZqK+/uysMHVB5Zz5QEV2FKqVYjYsYLoeBKZ8vjcxFIWtjpcN6NjMKoA7dgt3I2ZwGeLe/Ch1TGTL+xVwoUTSxhSZWMGkoIjyTvBOl/FPvpde97H9cHNKau4fQdG+NfAeo56vYMfvtLeryHt/x5lk/fzvtplbo9TgCWBhKeWZzl5TAJTiA+NyG+8t4yEDQxb8IMX2vnhS20EsATVRWfGFn6O91Btt74/v8O9+guPNht/8CV/fquLpqzPp8cmuWRKGZ7jq3N+di389adAufmHKpULSIQNfnFkFQf1j/DDl9uY3erw3Iocz63IMbjE4oiBUfatizAwaVJmG0RDBiknIOUELO50eaelwBsNBRZ1uuuWrKbg8EFRrp1awYGDoriFgJT78VQzGsWjXdsJuPqgCl5cleeFVbmjUYYtv+rl20xEFScdXRo2xOmjEnxzShmjasKIQJLLB/jrxTTEdnJytixB1DLAgnQ2oDnlMak6zNT+Ee5ZkLFRhWlJVMKau7MFAUEdAz5Vn7CGPHFOPeNqVGDto96ixz/OCptc90Ir177Uji/pQGUVbut+7gfAt0OGCLmBZHylzf1n9mdoaYhM3t+lBr8pBJGQ4OvPtPKrmZ3sWxvm4dP6URu3lCfB5pbJhiASMVjT5XH7+938a06Kee3u2iXs+oOpxDbpLGw6gj84abFPbZizx6vVQzxsks37a08hPk6khETU5I3VOT5xzxo688F8VD+C1R/ybRXFwOE1QPzowVG+eVAFxwyKIiXknWC7H8yrYHdx6Q+82+by7JI0Ty/L8OrKHC2bHua/QJVTeztTDKCHa4AfHz8kxu1n9KMsZJBJ+yoSLz74cPYU1JgmXPdSG9e+1I4naS3emHv76DrfDFwYNoRx72l1HD+mhHTKZVdCotp4B0gOv2MVrzUUmD40xkOn9ycIJHn/w9ONZaCCg1ZYsKbb5/klGZ5enmNBh8uKbo/Ogr+BdVmJbVAeNRmStBhUYrFvbZgjhsXZqzKEaRsUMj4FX34sNR6buz4GEE9afPupFq6f0UFx3/zDzXzLUSh/iKOGlFp8fXI5n9+3lLhtkM36eNv5d1vbRCWmymNnrM5z+7vd3L8gxaqMug8DBg1k8qQJ1A/oT11tDXnH4/Z/3sHyFasAvosqutvpBKAK5f++z9ljEvz6E9XUJUMqp369h1TKYlQ+bpLJ+vz45TZueL0TT5JBucfe24fX+6fAty6YUCL+emodhayP4+1aBhxSQiJsMLs5z6F3rCblSL65fxk/O6pKJT8FvXzoDNXRF1NAAE0pj4aUR7cb0JEL8KQkZAhKwwZlYYP+CYvqhKmCDYHE8VSUf2csbJJSBUkXd7oc9q9VNGb8hSj3ocUbfen/FeNKlaePTPCDwysZX6dqFzKF7f+7yWL1ZDxmsKzV5VdvdnDX3DSNWR8zHOW0k6dz1uknMX6vfRkyeDDReNna733p+Sf41Lnns2p1g4PqOnX7ziYAoGoCngRG7l1t892plUwfEiMaMTCKy87AFGRyPs+tyvOr19t5fmUeCUuLEdhH+vB6HwHcOaQ0VPPiuQOoS5jk8gFC+uAHyJ5NtFT+ghgGGOZOKQDJpMX1L7XxnefbSNoG/z21jqOHx0hngy1/AA11lh4yKCYvFcNqYr2l2Xo+jUEg8XrRnvzj3yZBNGzw7efauP61DlBHef8o/nU/4EbgnP5Jk6unVPD5vUtIhARZR3VL2hG/WyxkIC3Bf+Z0c+3zrSzq9sEM8eUvns/nzv88E8ZPIBaPF6M9HgR+8ahAglnC44/ezxlnnUs6ncmijr9f2tkEAKAG5aH3CUuQHFNpM7kuzJASC9M0WNblMrOxwJxWBzeQOeBlVHONvsx+CqESKT71+6OqufSAclIpBzwXEYli1dQjKmsRkQjS85CdbfhrliPTKbDtneZJ75nZOvIBR9+xirdbHCbVhHnu3HqSIUOlHIvt97MNoQJUpiE2WMH5gcq23B4FX9tCImLyVkOe6fc00Jz1Hkel7U4A/gWMAvjBIZX83zHVuN0ueW/7V2vK4gSTiBi0ZwK+91Irf3yrC4Djjz+W733nWxw49fDiF6fB8zfa4PRkEFlglPK73/yCK7/2LfxAvo7yq2zbUgHY3rbgzaikjBM9yQXvtTqj32t1qlFuPKAKIppRWX23A//eDp/hCOCT+9SEOXdcEjfnIZ08VnV/7H0OxqiqQyIQQiClKvszO1tx33iBoK0J7DDb5FbaV7OaITCiJv95p4s5bcp34JOj4pTGLLJpb7usV3vSfRMRA2EJfF/S6bE2i9AWgtKQQTgC0lMZlzuLEHhewLham6n9w/xvkXcM8BNUtWddz9d05DyCtKfSxbch7rDhf/TMmhveErXiEsQTFvMbClzyRBPPrsxRVVXBlVdeydevuoKwnYCgGzxvExdRrPu350Eoy4UXfZmZb87k1tvvnFLc0lyxpZ9/R/UFeKj4GlLcGgwq/vlq1JJ/6Xb6uWHgLCGIXLFfKWUJk0xXFquqH+GpxyJKypGFHARy3TZACIzKOkKTD6XwwmNQyIBlf+wiEIsaLGrI85vXO3EDGFoa4vN7leA6AZ7s+wajUkI0JLBsg6UdLs8sz/LiihzLuzzc4nFYwhYMLwtxyKAYB9VHGFIaUmavruxzs9ctxQkgFjE4ZECEB5ZkDT+QV278Ncu7PfJOgGmKLRKBnkfBMFRNhik2XCVLJH6gjiaD4sRtGhCLmTyzIMWXn2xlfofDPpP24sYbf8kR044BmQe3jV755QkBXpZorJIfXfdT3nhzFu/PW3h5MWb2/M4oAD0sK752FKOBTx/cL8IJYxJ4ro80Q9h7H4gorUBmUh/c0EoJ+SxmZR1mv0F4C95BmKGP7UEOpLLZzjgB33q2jYXFAqhrDixnYFmI7rS/HSr81ODxfcnvXu/kj291Mq99cycmOW56p5vR5TZnj01wxeQySqMG2XzwsSZX+b6EAI4YFqffzC5WpT54WtaY8cn6klKrd59SojKFIhEDwxLgg+dJcm6Au16jIwtBPGRgxwykrxKHolGTJxamOffBRlrzAaedehI3/vo3DB48FLwOtccXW3IjDfC6GDhoKNdc8y2+cOGXyRec64GD2YIkIYvdm9OB2Cmj41TFLTJtacxBIzDrBoCT/0ilNWJxJfNy0+va7d2yOJAQDwmwDa59soV7F6p03rNGJ/j0hCSFvL9lz0wvn/Jk1GBFyuPrT7X0pKEytT7KiSNiHF4fpTJqEEhY0unxWmOeJ5ZlmbEmz7Uvt/PUsix/Ob6W0VX2Wgu1j008fcmQEov+MXOTAtBeCHCUR+2HPwdCBUvtsEEArGl3mN3m8XZTnvdaHRZ0uLRk171/mW2wd22Yg/pHOG5YnCH1EWYtynD+w0205gPOPO1kbv7L3ygvrwS3vSf6vBX3yoMgw9mfOo9//us/PPbYU5NRSXO3awFQ+dznDy2xOH5kAly1Pw0NGAZmCFn4CAHoSYndaA7rCcUkbAMM8D1JzpN9WvYrpdrzJ2KCVEHyvcdb+M3MTgCm9Ivw86OqiFqCdL5vA1eq0MhiaZfDp+5r4LWGAgMSFjccVcnpY0owDYF01p2ajKkIcdzoON87uJy75qf52SsdvLQ6z9n3N3DHiXWMrQqTKnxMiVbF1uYVYYO9asO83vRB4x1zM9uUnnsZMott0oHGXMAri1M8uCjDC6vVVqh4mNWK8pV0UcWmYgXYs1udstvnpEqGl3dy5tgSnlySoTEPZ55+Mn+66S+Ul5eA01Z8Brf2Chng5TDtGN+66qs89dSzluf5F6JS5t09XQD2BQYdVB9hXFmIXDqPKK3AqKoDN9+7J0gGH9j7C6HSYF9vzDOv1eGEEXEqExaZjP+R7kG9WWIKqcqVzYjJ3DU5rn6+jQdUV13GVoT46/E1DC6zSaX71mdRonID2rIen32gidcaCkztH+Hm42sZXxcmX1wubxxrCByfsCn49D6lHDwgyiWPNvPYsiyffbiJx86upyxiqCNXscPHP44vCcdNxlTZvV6tSQkhSxCJmBAEvNtY4IFFWf49N8X8dqdn0M8GFqG6UT9V3Na2rvcjqoADJZy1qMM9+qevtPUDOPG4o/nHrf8mFo+A27GFs77c9H8LAX47hx95BIcdOpVnnn1hEqoY7r49XQA+bZuCowbHESGB4/nYZVUYiZKPnv1RI1Hm02pvVtwGSFTnm9aczyVPtDCrqcBxw2L8YXotQ6tsMilPnSNvgRCs720YDQmsmEk6F3DbjHZ+9UYni1RHIw7qH+Hm6TVMqLbJpL0+v1ihorvQd19o5eXVOfavDXP7qf0YUhYi062KpTYVaDQEOIHE7fQYUmnz1+NrmX7XamY2Fbju5XZ+dWwNITNYmz+wQ5FqTh5YYhG1DLIf8iF6dD4ZMSBk8OqqHLe/083DSzIs7/ZA+fc9ijpvf6L4/5ujdb3A90GojL3ju9MZurvbicX79WLWX8/RVQgwbZSzmLnR90rAR2Bx8UWf45lnXyhFddveowXAAo6pjpkcNTiCLAQYholRWt67eUAYSNchyGU3UGllWimJmYJR5Tazmgo8uiTLyXet5psHlvOZsUlE2MD3JIUeUwjx4bNU2BKEDGXg0Z72uOf9FHfNSW3QYOQLe5Vw7aGVDCixSGf9vvcskBCJmvx3boq/zk4xKGnxx+NqGFJpk+l2PzKiL1C23pluj/4VIa4/oopzHmjgpre7OGtMgoMGREjlgo/neNALGBC3CFuCrPfBGEvP54/aBiFT8F6rw59mdvC/hRkalL35IpRp7HNsXS/DV1HHjz974cVXL/7alVdw8y3/IJkIg+ds+mYYFpjR4mBXHzKXbmXp0nnkcgWamltIpdPEYzFqa2uIxyOMGDmK6ccdx94Tx/PO7DlTUWXxK/dUARgGJMdX2QwuCeE4PlgWIlGK9HsRmBJCBQkdh41D7HlXErcFfzy2GtuE2+akeK/V4aJHm7lrbpqLJpZwyIAI5XELYQnlF1ZM4hLFbRvFAS8DSSrj806HctN9YGGGd1sLa30UR5XbfO/gcs6cUEIYqey8+vh4TTkIGXQVAn4yowM3kFw+uYzJA6NkU26vg5wCCAQUsh7Hj4pzysgEt89Jccs73Rw0IIplwA7vgCZA+lAXNSkLG3TkN7z3NVGTmC0wYiYdnS5/mtXNn97pYo1aYbWhcgfuYNv9+bqBbwKD/3Pn/4478sgjufCLXwHRvm4+EgZYYSAKFGhpXMmsWe/w8kuv8fqst2lcuYampiZc36XgOPi+j2mY2GGbkGlR368f9UMGksvmAfZBJT3tsQIwTUDisPoomEJZUxkCYvFePjgC6blIz2Vt/6/1tCHjSEojglum17B3TYRfv9nBypTHQ4szPLQ4w6SaMMcMiTG20mZAwqBfPER5REXOm7M+LTmP1emAxR0Oz6/M8lpjYYM8/sElFp/bK8nFE0vpV2rjOD6p7ZSiKgSEbMH976SY1VRg7xqbz04oQeaDTdqhS8ASqoZDAgVvnROzqs2HsBCcO66Ef81J8fTyLAvaHEat51i0I/GlJB4SxDZx1FefNIlELR56P801L7Qyu8UBZcN1C/A7VJJaX5ECbpRw+O//cFPs1FNPpaqmEnwHzBggaG5u4YXn7uGF51/irrvuo6m1+ONNIARWwkIkBLGqKJFYDC/vkm7N4HcHNC9qZda8d3tqAwXqCPzRPVUAjjQNYe9dGwYDgiBAmCGMcBSCLRwdm/njTF5iGvC1g8o4fniM377ZwRPLcizudHm7ucDbzSrqbBlQGzcpCZkEEtoLPu15/wOFO3Vxk2GlIU4fneCM0UkGVVoUcgGprLfWJnt7BcuCQGIagglVNl/Zp5SahCrO+sDgL64WQiY0pT0ilkFp1KTgBDjrCZSX9zmof4RxlTYLOx3ebCkwqjYM+R1vvNDjA7mpxUfWlVz2SCO3zUlR8GUeZQ1/LfD+dvo4TwF3vTN7zvnPP/s0p5/9OTCjzH3/Pe6++9/cd+/DvDVbNa6OVEeo3LuCygkVVIwvI1obI1IWxrBNrLiJaRkEvsTLeng5D6fbodDp0PR6M0vuXUbgBAegrMjTe6IA9I9agvqECVLNVEYoRF8emguh9pDpjM+Yaps/HlfL3OYCjyzKMKOxwNtNBValPPK+ZHXKZ/VGVeXxkKA2bjGuwuaA/mGOHBRl3/4RImED6aEsynZAWq0EcvmAT46IcdjACP2iJrncB5N4egxaJZKfz+jkgcUZEiGDz+9VwtljkwTSV554xaaspSUWxw6NMedNh1lr8nx6bPLj2QZ8CA8tyfaYfMxA1dffuwN+7H3AaU8983zJ3vvsz51338lf/vx3lq1Qq/Xq/aqonVJDzf7VlIxIYtomZshESomf95G+JPAC/IIPQmAlQthlNslBCexSm+r9qmiZ2UrXwu4xqH4FC/Y0AQgDdn3SojpqEviBOs4LR4veWUGfD6BUxidkCcZW2YytCVPIByzLeLRmfRq6PZZ2uTjF8R8PC4YmQtSUWpRHDQZETBJRE6RKH81m/LVL7x0VNAukMgwZmLTIuxJPyg/EmQ2h3JqufbGVH7zcsfbvXlqdxzLg9PFJ0sWegFKtvdmnxgZgTqtDzgkImQaet+O3AZv7ecXBfw2qUnDNDvo4jwJL7rzr3knPPfcC8xYsBgEDjx3AoOkDqBhfgV1iIaUkcCVu2sVxHVXUI1QXjA3ujBvgFas2nbSLEIJobYyuhd3DUf0K9jgBqAFKBsQtKiImvrcNKTq9qZQs/sP11/UgsA3B6NIQo8tDUL+ZE+hiZafrS7J5Ndv3JBzu8DNzobrwpAqSTaalSIjFTea2FvjT210I4HcDa2nxfH7Q0Mr3X27jkEFRqmyDrKceVOkGjChTArAm7dHsSgbFDJWesoN/v83cxReBq9nxHYUcoKGjs2tSR2cX/Y6oY/TZI6nYuwJDqO2T0+1uaPUmPrwiV/REhn2JETaI18VA2YaN3hNjAFHAituCmCnI95z1bFExj1R+AJa1LnwvezfLSAkFX1LocYvdRChhbZJh70IOH/tMKQBhCV5vKNCWkxwYj3JpvwraPZ/Hu9PMaM3zwvIcZ45LIlx1UlHwYXh5iLKwSc4NKARyxxcGFDMqW3Iq7rJeRP6PKJeg3Md0qd8QQkwfe8FoMfYLoxGmwE25uG6w4Y3YwuslAzBsg2jNWjPekR/1PcZuKAD1QGll1CSwhQq2CSCfBb+XznVSIqIxjEgUfG9bn0ECueFL7kIXUwIhC3AD3mss4AeSw5IxCAIqDMG0ZBwBvNaQR3rrMgUlkpABFRFBlyPpLjZI3eEiFxKsyfhklH35ClSu/Lc/xsEPsBQDN1wWRhiCQnuBwAu2atBvKAASYRqEkmuL18btiQJQBSRKIwYiJAikVLX+vsdaL+eP3BQHiFAIIxL/UNfdPQXTMAh8WNilshLHRUNrHXL3iYUJC4O57Q5uIDHWKQCWIeiXCJF2A7I5f1uf763DEizpdsmqGubrUNl5HzcNSNzA8dcN/OIqS25r2bkfYIZNlYPyEYahu6sAeIDvr7/OFirPVeazvZ+CAokoqwA7pNKB91Tkuova0+Wp3DTWXtqEUPvIvL9ul7Vh1rrEFOs6Ocsd+LFDpgBXMrfFwVftE1/eSa5qMyp/FwIwoybhijChRIhIeVjt97fyQgUSwiU2VqR3lna7YwwgB7hB8fBX9Oic7yOzaXp1baVaqxtV/RBWCOk4iHBkp3AG+jjjAz2T+/ot/9yewbYZXfUCFW3vWTGIHSUCEuyQoDPnM7Ox0DPolu8kl7MOsKSUWHGT1LIc8/+9iGxDltop1dQf1h+/4CO3sreiLPaI3FMFYCXQ2ZTxyylILFMoJ2LfR3Z3FM0+e1EpKX1EshSjrJKgcdUePfg3syhQ2wOhDqb8TSiGH0BHPqAqalBVFtqhKwABGJZgfpPHMrV1eRFVtrtzxKkkIStm4RcCZl7/Ns1vtACw6snVBAXJkBMGUuh0tmrPJITo9UJ3d9wC5AAn6wT4fqB+QSGQgY/MdPf+IfeVS6sxYJhKIJLBHj/oe5J4LCHWZtfV2iHChmB12sML1uUPBFIdh/7wkHK+P7WSIXGTXCHYYQJgFovmnlqcplHlJ/ybvk4C2YY4lWELM94/zoqHV9D8Rgv77j2RL134Ofy8z/JHVuCkXYyIsRWDH9yMh9/Lnpy7owC0ANmmrE9nwVcPAgIhDPxUJ0EujTB7sT+SEoHEGjAcUV61zacBu/LaX0qV/18WVo9LxleVfVIIbCEwgJSzrjvuul2U5JzxSS6YVIrsyZPYQR87bBp0pHweWZIF5T05cye6qpOMkGkgJMufVn1ur/vptdz059/Sr7KO1Oo0ueYcVtjc4iWTMA3crEugjhRDO4MAFEsZ2FHGemkgvTLl0ZqXGD2WXlaIoLuDoLOt106/0nMRyVKsYWPVfmwP3QZIKTGEYEBS7RiXOZ4ayHLdlLo5d51UNiC1PUqYP0K0DBOeXpZlpnIC+hPbXtHXlwwIxSzybQ6tb7UxedJE9p9yMBKb2poqfH8r9/8CpK9Shoss+jgEoArVqODPqKKK+cC84msh8CxwEcodeHs8EhLIdRYCmvMeokd2DAMKDkFbC71+GmWA8FxCw8dh1tQrI5Fdro3odtj9b8El+DgyG0NC0O0F/GV2NwVfdqEMPHaW5X8MSEbroqRXpQkKAYcdPpXKihqy3V3kCwUMw9iqXhzCEEg/wOl0ei0AfRUEjAMHoEw4LwTMeEiYSdugxDYJW6r2PeNJugvBiLa8fzhQAO4CfgPM6uOLPNML5DGL21xx2KB1D6AIhQjWLEWOmoCwbKRb+IinUyBdBxGJEtrnYILnH0I6BYQV2iOHf08MwNyELKx/SvBxE46ZPPhuiseXZUHV87+xE13GiUBNclCSzmXdGEKw376TQAg838H3g82nivZCAAJXkm/Lg4p0L9neAmAA04ELgNMFsFeVzcEDohw1OMrE2jBltoFAIITElbCs0+ORxWnx6NJsZGZj4TyUW8rPUTXYfXVM86gv+fKbDfnSz+9VgmX0eAKYBJ0d+G3NWPWDwevFEysEspDHrKolNGZvnLdeBS0AxYEvSRgqDpByAzrzAXUJ82Oba4Ni96T2tMePXm0H1XjmrzvZZZwK1MXro7S+2EptdTWjxk4AoLmpmdaWNkLVNmbURG5h6aSwBJ7jkWnMgSpuWrw9BWAf4OvAuZYhOHZwlE+NSzJtUIz6UmvtIxIE68+ngn4Ji4MGRbhyis9/3k/xuze7QvM6nGtQrY1+AtzTBxd5NpB9tbFQmvcCQobADUAYBrgO/rKFWLX1CMNE9jLJR3ou5oDhmEvmEWRSYIbYE1IERXFgYUBdzAQB7X5Q/HNJTKjGGFlH0poLqE9aH8t1kRJsA0zL4MfPtDK7pRAAv0UZd+5MjDEjJlbUIrMiy6gRw6jvXw/AkiXL6Mx2UVlRgZ20CbwtqJ+QYFgGbtql0J4HWNWbCXVrYwBfAv4HnDu1PsK9p9TxnzP685lJJfRPmOTyPumcTyobkMmve6XzPqmcTzbrU2obfHlKGQ+c1Z8vTypBCPZB+Zn/HtWzfVvoAjLLu1xmNTuYlrGB9ZK/ZglBSyOE7C2Y/nyMRAlG3UDlFLQHhQKCYpliddREAI2Oh8E6s42evb7xMZ0p9WxBIjHVOq3Yb+81VI3/zkQVMLZkWBIzYiHTkv51dVRXq055c+cvQiKJ948RSqouS1ui1D11BU6XQzH21ro9BOCXwG+jlhh83aEVPHBmf04alyQaQDrtky4eB60fANrgVZxRsoWAdNpnZHmIX0+v5Y6T6hhVboeBS1Elmids5eeLoPzX+nfkA15Zk1ch6rVrHhOZy+Auek/1ArS2YBFkWhCNs8GyZg/cAux0nYElJEosZjYW+M6LbT3uPpcAmZ3sk+4L7FM2snRtb4URI4Zh2XFA8vastwEoHV6KMMUWuacIodJVupakeoKAc4F8XwqAibJL+trQUsu+85R+fPuQSsosg3TGI18sahBb8IEBUjmfwAk4e1yCR87ox2fGlxAPGaOB+4tBwkNRzUQ/7K3DqL6DZ6POe3+WDImYBJ5bnqVQCIiERPGSG2BH8Fctxl+xCELhLV8T76Gs7Ym30ezbI4cfVxAwGbdY3ely+WPNLO32vOLgf2cnvITjgVjlXhV4OZVXUl5WAghaG1fw7LMvYMQNKiaUE7hbWH9iCIQp6F7cTaCEY2Vvvm1LYgCnAN8blLS449R+HDAgSroP/OkFyhTDzUmGloe47eRa/jc3zm/e7DBfayicXvDl6Shr5ReK+5pWlKkCqNOHAah2zycBlXVxk5NHxDl+ZIKLHmni9YYCb7UVOLBfhILrg5Aqiu/kcd+ZgVFagSivhFz+wwe3LI6AgkPf9+PaReIBxToKY71LYgqICkFH0RRF7kgRkJCImXTkfC59tFmt9uAG4J874eWLAAdZMZPq/apY+exqAOxIAoAHH3mMNQ3NlIwuoXRYcsuW/6jlv5cPyKzJgMqFWdaXAlAF/DhuCePnR1VxwJAYmS63z69QOh8QsuC08QmOHRrjwUVpHlmU4ZWG/EGrU/5BhU0siUwB1VGTkRU2B9eHOXlkgoMHRCFmcsd73dw5L81TCzMcWB/FNFV+uooYRZCpLgpvPk946icwInFkIbvpVk1SImybINONv2aZEpA9KCcoCNSor0yY2Iag2Q2KBjSSEtNgQCjEioLH6ozPJGO9Tfl23PMTQDJu0lnwuejhJu5fnAG4DfgRmyhN2AkYCxxXMaGCxMD42mSdeKIE3ytwy5//gic9hp40CLvEJt9e2KJraFgG2YYs3ctSFLfQ8/tSAI4Exp49JsEZY5M4aY/tYfBiFFufZ9I+MdvgUxNKOHNUgkVpj8Zun1WdLqvSHl6xRj8eFowus6kvD9EvalATV1Fqxwmw/YBzxya4c16ahxZnuGjfUqojJlknWC9sHCZoXInz6tOEDzoKEU+qkmG54RpF2CpY6L33BrKrHewIe5IC9LRIjIcNTAFtnr+2rE8UHdclqkPQDlmJAIm4ycq0x6WPNvOgGvz/Bi5j5yn42ZjJQKJm32rshL3WN2Hu+3P4ztXf4rXXZlI2spSBR9fj5Xy1r9qChaYRMkgtT5FangaVdNfZlwJwVnnY5JwJSXXk48rtFgjqWWZmCgGGo2q6R5eEGFNmw6DoJgaesuf1A0muoAKQagISTB0Q5aD+EV5ryPPs0hzn7FWCcIN1Gb1CICIx/IblFJ5/hNDeB2LU9N+w17uU+F1teO/NxFu1pJgEtGemBK/1P5QSLwBDCDyp+gIgd0xeuWVAJGoxuyHHBY8096T6/hW4fCce/AngK9GaKDX7V+NmPaomVIIBf/vbbRQ8Bytustdl47FLw+Tb84gtCagIkJ6kc0En0pP0dvbfEgGYPrDEZEK5jXR3jLdbjxA4vsTp8dfbRL75ppKmBOAGkoqExZmj4ry6Js/t73dz8ug4lhC4G+T0C0Q4QtDeROHFx7D6D0JU1qhkct/Db29BtqwhyGUQIXuP3f/jSfpFTSKWYIXj0eB6DIyE6PYDGlwPCZRvRfFKr1cgQMw2MMMmj8zt5rKnW1nS6brAzcCV9ML95mNkIjCxdEQJZWPKcFMupWPKGPXpESx9aDmldSWMv2As1ftWUegqbNngLz7DvuvT8lYbqOSf5/paAKyBSYuahIXjfXyz35ZkSAZSNbw4dUyS2+dmeHhJlueX5ThuZAwnu/EKRqhlfRDgrVoMK9clUEkBQpgIO8KejO9JhhWt1pfkXGblCgwsSzCnq4MG16MqYTCmIoTn9e3+X7VKh1jEpMsJuOmFVn72WgcdhaATZen9x13g8l0hDEH9Yf2wIga5VgdhCMZ9YQyDpw8kXB4mXBbGTbtbJaBmSJBemaFzXheo5J9eNzbp7XQmQqZQtvrb0KVGys28ttO+teBIhlbbHDUoCsB1r3WQ9ooNLjb1Qw0DLFslCBVfwrKLxeV7LkJArhBQWRLi6MExPODf7SnmdGf5TXMH3UHAmSPj1CRMHL9vfP97uibHIgaxhMUba/J8+n+NXP1CGx2FYD5wzi4y+PsB0xP1cWqn1q5t7iF9iV8ISAxOYEZMCl2FrfIDlIHELrVpeq0FN+0GwOtbtKXq5dc5K7s9uy3jUxExVRuoLbyZomcJZxvFyhF6OhvjFHwKfVwrLoCwLVjT5fHSKmUA+/KqHP+dm+Jz+5bidXloek8AeG7ApfuUcPe8NPe0d/NmOscSx2V4WYjL9invuZ3bfB97GpHEkxaZjMcvX+ngz293sVodO/8NuB5VWborcAWQqDu4lkS/GLmW3HpLfIlXPEoXW5NEIcEImbgZj6bXm0HVPvx3ewjAq0s63WPeanU4elhMncKL3g1CyxTYlsAXsKTN4d02B8eXdBQkUVOll06pC1ORNDE8yHtBn7SPskyBMOB3r3XwakMeVHFE9Y2vd4SmD41REzNJ54OdL6ttJ8UQkHcCxlXZ/PUTNXz7pVbmtLpM7hfmN0dWM7IqRDq37bO/aQiilsA34MF5KW58rYPnVuZBRbUvRyWHFXaRy5YETohURYzhZw1DGAIraqmUkkCCLwm2wSdeBpJImU3H3A46F3SCSv6ZtT0E4M6OQnDMv97r5uihMSK2Qd7Z/OCREixLELUNuvM+D87LcNv7KV5vyNOS9Xv26FKgMh6Hl9tMGxTl/AlJ9q+PYCDI5LeuN56UELIEkbjJLa918rPXOkAdi5wKXDi7xbnqhtc6+cUx1YTMAC/Qg3tLyBQkJ41JcED/MEu6PUaX25THDNL5rbuQPX1X7JDAtk38QPLSyhy/ebOTexemCSSp4qD/HjuXqUdvuAyYkO/K8/pP3yRWE6N8eBmlw0uI948RrY4SjlsEBR8/H+C7wRbFmEVIgAGNLzfjpjxQ2bNbdCNEb/YdQogBwMsRUwz60/Qazp9Sjp/2yG7GdywZMcEWPLMow42vdfDw0iwor763UEcUDUVFT6ISJEYCeydtwcV7l3LxvmUMq7ZxcwF5N/jIuINc+w9IRgwIGdw5u4srnm6jKesVgM+gqgzrgNk1MbP67lP7cdjQGKmUp1cBW7H0jNoGpiVwXUnB3fKuvz2PXdgS2BEDL4B3GvL8890Uf3m3q6eRxwuo2pMHdsGrlCwOyGnl5eW4hQLp7LpTSrsuRP2U/lROLKd2Sg2x/nECJ8DpdlSDj4/aEkiw4haBG/DSlTNom90WFMfRkg2vs+wTAQA4BrinLGyUfP+QCr44qZRY2AQ3wC823DANASFY0+3xuzc6+fPb3T0tme4G/gM8wqYLFPqhPAXOAiaOr7T55kHlnDM6iR0SuMX205vKMxFCNaCwLYFhGzSnPG58vYPfvNFJXu0lLgD+vt63XAD89eD+Ee47qz8VtkH2Y+hbv8trwPp967YkllD0FwyHBGbIwHMDnl2d59a3u3h8WY5W1UDkOVTDzjvpRUHLTspngb+defrJ1kVf+gquk2fZorm8+/5cFi5czKyZ79LR3QlA2ehS+h9Sx4BjBlAyNElQCHAz7rp99GYIl4dpeKGR177/Jl7WewLlzSG3lwAAnAHcBFQePTjKmWOSHFofZUDCBCFZ3u3zxPIst7+X4q3mQs+e5HsoVxanFxdtKPBl4MqQIcxjh8T42pQyptVHEGGVoiv94lNU3OMD4EmaMz73Lc7w99ldzFhTAGhHFYXctfE2E5Ur/qmv7lfGL4+txisEa3MNNNtPMCxDEIkaCCSpTMB/F6W5a16aGavzdKjV5AyUMcyDKHPXXZVa4IFEIj7l2WceZ/L+UzcIp7a3tbFo4Xu88sqrPPDAozz7/EsAxOqiDDh6AENPHkzJ0AROt0vgbHp1ZVgCwzZ562fvsOzhFQDHAk9+8Lr3rQAA7I9qrHh0yBBWRdQgagmEhIwnac35BBK3OOt/n174km38u6EqAH8J7FMWNozJdRFOGxVnbJVNZcSkxBZ0FAK6CwErUh4vr8rx1LIcK7o9nEC6qPZP16BKIjdFKfDfkCGO+t0x1Vy4Twm5XF/ErzUbB4ENQxAywAqb+F7Auy0FHlqU4a55GRa0OxR86QHPFwf+U0DbbvCrXwjcct5nzuKvf7sNy3LBK4ARUglmwkIVsEJnRwuvvvICt/z5Vh544CF8JLH6KGPOG83QkwZDAE7a2bC+QkIoaZFakeGlK14h15KfBxy2KdHcHgLQEzzcB2Xnddx6wUSvuF+7rTj4tiXEFkFV+F0HlAqoMQSURQwqIxYNGY+sG1Cs7UkVZ/w5wHeAdz/iZ9egTEtPMQXcdUo/PjkmTjqrTwW2ZYYXqJQJ0xDYRZvgnA8tGZ+nl2Z4aHGWR5ZmyKtkslWoopVfoTz7dpf+a/2A9+uqq8oeevg+9tv/IHA7N4pYFQvOhCj6UUQIAskTTzzKDT/7Jc8+9yIBkgFH1TPuojGUDErgZjzVR7Bo/BEus5nzl3m8/+d5oJy5btz0fdk+ArCjmVQUm1Go9t9RlNlDthhQfBLV+aWjF+91Bsp6bOSIshCfGVfCOWMTDC2zKGzHGofdNBaoWnALCIdVUBAp8IOAxW0uM1bneXpFludX5lje7YEqU32nuMe/qSgCuxu/AS6/6sqv8IsbfwcyBd5HnJtLCZYJRhn5fIqb/ngTv7zxRlatbiQxMMFel41j4NEDcDodvJyPnQzhZh2eu/glUsvSXcA0VIB9txUANrGP39IZwyiuJq62DLh47xIu3b+cMVVhpBOQdvTsvyXBPyEgbApCUROkpDsfsLDD5bmlWWY2Fni7pcDctrVhnxeLs/3LKIvuwm56efYD3hw1cihPP/0MAwYOBLeDXiXcSlRpZSgBhHnzjVe55ppv88STz2PFLcZdOIbR5w7HSXuE4iEW37uUt372DqjEqIvZTL+7jxrfu2pvQH8rBOMPwJdGlYW4bloVZ4xNgC/JZD2CAD34e8Ha0xYAQ9CR9XhxRZbXVhV4YWWW5V0eK9eZxMxCZaXNKQb3mvaAS/Qz0zS4/LKvMGDgEPA7eh9XWltqmQKRY/L+B3HHHXfxox9cy69/9ydm/+Y93JTLxMvGk23KsejOJT3bqFvoVbPL3UsAtnTm/x3wpSl1EW45roaJAyI4WZ9CsbJRD/7NXDihmn+GQwJsAycXsLrb5a1mh/8tzPBmY55lXR5pN5CoU563gPuAp1FFKS170OU6D5h20IEH8MUvfRm8btVWfourRw2QPrhtVFRW8osbf019fT3f/s7/Mfdv87FLbYyQIKWMP2YWxXWr2VW3AFsy+L8HXDulX4R/nVTHiAqLdD5YG7TS+3j1DyHWDfiQKTAMgTSgy5Msay7wSkOe19bkeWxphtZcQCDJoCL27xRn+peKg35PLLKIAQ9Zljntvnv/zQknnQVuK9vukCAhFAHi3HbrLVx66ZWksxnMsImf91PAaaiTkw/Zsu2eW4DeciBwbb+YyS3TaxhRFSKtOsXqBl9FAQyZELIMlcQlAD9gWdpjfpvDc8tyzGouMKu5QKtK4c4Bb6PqKv6DCua1ojkfmHb2mZ9k+nEnguymb+xRBLh5MH3O+9xFRKNhvvjFy+js6gYV+H5qm7d1u/OWFfhGyBB855BKJg6KkN3DKwB7JoOQKYiEhbLX8SVZRzKvKc8bDXleb8wzs9FhTluhp06iCVViOhvVZOMJdl7nnY+DOuCL8XiMSy+9GNOKgdvWh1OMUKcIdsARhx9Nv/61PQLwvb4aJLsrw4FTptSFOX98Aj8X4H2IbZVZbIO9O9YGqaW9Sr8lZCILAQvbXN5rc5mxMsurDQWWdbmsSnk9eaQLinv5ecUZfwE7n8f+zsIRwN5nfPJEJh8wFWSmj9eXEqwwYHDzzX9k8eJloDoevb8rC4AAxhX3MFPpSYuCFcXZ5klUBuG2jMfJgJg+LEYiapJO+5v2rZcQCQk8X22EDTZdc7ArIOjZywsiplBnH1LZdXcXAl5cneflhjwzGwq83VSgI++TVv5obnGw/w3VUWcFKr9C50d/OHHg/Hg8yrnnnU/IioDb3vd31Ujy1qwZ/O73N+E4bicqS5ZdVQDGA1cDZwshQlWV5UQiETzfJ5PJ0N2dPg9VAPIwKkvsla18EPdO2AYTqsIQbNqpWkpIxkwWtzl86YkWDu4f4ZqDyjGlxN1JlwIbX4iQobwPLLN4nGFC3oOVnQ4LOlzeb3N4cVWeWU15Vqd88r70UZWY7ago8sOoqH0r23CctIcyDPjE1IOmcMCUA4shkr70RFdBQNfJcsPPf05zSxvFsbNiVxWAc4C/APGDD5jMqaefxqGHHExlRTlOwWHFqjW89fZbPP3UU5EXX3z1dNfzTy/udX5ZvLpbQsISkAgJNuX/JYszf9YLuPLZVp5enqV/0VZ8ref1Vu6xt8U2beNAHaxrq2YIsIpRegyUWZ4X0OYEtKZ9FrcUeLvJYWGnyzsted5qWpuI0wQsLc7qzxdn+bfYfRNydtjy3zAMjj3mKEpKy8HrgD73tYpz73//zn/uvp/iZPi/vg6U7Si+BPy2JBm3v3nVFXzp4kupqulf/CsPMBg/cTLHHX8yV1x+Gffccxc/+9kvmTtv0Y+KW4Tvb+GWYHHaDVjY6XK0aWzwraoyDUK2yQ+fbeHBRRmGloa45uBybEsoZxuxZQPfEhCNGcXmQVJ1yWGdnvTWz6DntodNgWkJzGJO/dq/9yVLO12Wp1TSzTtNBd5qcljR5bIm45FVefZ+cXZ/szj4ny0O+LQes306Os/vV1fDkUcdrW6QDPpQAAIIlbN86Ty+8c3vEgRBB6o1X/OuKAAXAr8cPKje/v1vb+DEU85Rg97rUEkPPRdNSjBM4ok4nzv/Yvbbbwpnn/Up3p+34BuogpEtMYZ4wwvghZU5vrhPKbYp1pX8CogmLO59N8Uv3ugkbApuPKqK0fURMp1bbhBiGYKCL5nfVKA2ZtIvYRGxLWV75AT4vsQJPhhb6GmtFS6euwtTKCUBKAR0OQFthYA1KY95LQ5z2hzeb3NY2e3RkvN7aucpDuw3iwG7t4uz/WJgtR6n240EMLa+vo7x48f37e5JBmBFQPp85zvXsHLVGlDVtU/29S+xIwTgNOC3A/rXRf/+t78w7ajpEKTB71l9rheXF8XlupsGkWfCXvvy4x//H6ed8ZkwyizkCXpvEDEbWPXsityA1xsLHDQwgptWAyYRN5nTVODbL7RS8CXfOaicU8cmyXX7rK/hEtVz3rINZKA88Tbe4UkJkZjB4naX8x9qIudJjhgYZUy1zbBSmyFJi/qESWnUUMuO9URACvDdgJZcQHveZ03aZ1XGZVXaZ0mby4J2h6XdLnlPknElBbV/91FFT88Vl/NLUS4wLUA3u09V3c5OGeAPGTQIOxIF2UcCICUYFhgJfn3j9dxx570URf0b2+OX2N4CMBa4NRIJR3/921+pwe93QfBR5vECpAdkOeTQoznwgP2Y8drM/YH+bGR59CF0Atc3Zf3f//yVdv51Wj8iYQOkJJMP+NZTLSzocDlxeJz/O7iCQtbHC9Y5EwcSEmGDzkLAFQ824Qfwx2OriFsG+fUcjI1iW+blrQUWdrhkPcmCDnft31VGTKpjJqVhQ+3d5YZ6l/cknUVvg7a837N18IFU8VVAZdj1FNS8V/zzLLvnqeWuQj/AHDZsKGCCzPfN4DctMEt58P7/8sMfX4+UdKBcrLp3NQFIoFo2Jb7x9cs5/fRzIEhB4NK7LCkBMqC0NMm4saOZ8drMGpSRx5ZwB3DufYsyB/3i5Q6+P60SBPz46VYeXpplcInFDUdVEbIEmfX2/RJUPbsl+Nnz7dz+fooxFSHVgrlnlVL8WsNUtd0vrcj37L/X7eIkqZac/0ZLzreKn33jvmKiOMAzqFz6nmBdE+qcd3Zf7/k0fUYGCDo6Otep+baGfQ0BZimvz3iRr1/1DTo6ugLgW2ym1HdnF4CvAlM+ceyRfPvb34UgW1z2G1t0UUIhKEkme8bllobm24vBx0d+OqN9wIgyk5Koxc9f7yBpG/zh2BpG14TJbGQMagiIxEz++143v5/VRYltcOO0Kspsk3TB3+BrwyY0dDg8vnyTyXF/Ab6mpgiqUSYnGwtArvg59RHcrsVqQLz73hwCv4Bh2mz9oUqgZn6jjNdffZ7PnHc+CxctA/gBqtqPXU0ADgK+UVdbY/72VzcQjZeA21IcB1sSZxU4TkBXd9e2fJZ3gfMKvrzjkidba6MmeBKun1rBCaPi5DL+BiNSAvGIyZzGPJc/3ULWk/zokAqOG50gl/1gDMAwDR5ZlOKdlg/c/EXAT4v/7QONeszsVnQBixYuXjJxxozXOXjq4dsw+GNgxHjk4Qe55JKLWbFyDahsvx9v71/C2E7v+QWg5FvfvJxR4/Ypno9uTXstQTaTZ9Wqhp49/damoz4LnJtygpbmXMCQpMXxY5JgGaoxAxsu/R034Jrn21iT9jl+SIwrp5TiOxJPbti9KGIJOrI+f3qna+MIv49KYmrR42S3RQK/aGlp509//AOB70AotmWLVAGESpHY/PmmP/CZz57HipVrApRj1Td3RIxnewjAYcAFU/afxLmfvUgti+TWZpSGaGtvZ/6CRaBaQW1L5dnTwNHAksVdLufcu4bn5qeJRE0StliXLx8x+MmrHdy/KMOIshDXH1NNPGKSc9dZh0upymatqMmNb3T2tKheP9X4LZTllWb35mHgvdv/fTc/+sEP8D0LQqVFD4BgIzGQ616GpZx/rAoWLVrM+Z/7LJd8+St0dHQ2AxehDG13SJJWXwtACLgoHLbF5ZddSnV1DbhbWzgmAZs5s19nxcrVoI5COrbx880GJgeSf8xsKsiT7l3D1U+3sjLtE4ubxCptHluc4Revd2AK+OEhFexVFyGdCdZqmJRqlRAts7j7vW5+MqOdqqjJGaMTJMNrL+cV6Aj9nkAHqhS45dof/YRvX30VrS1tYJVBqATMsHIBNkwwbTXoQ5VgltDY2Mqfb/o1xx77CW67/T8EklkoE9y/7dh1jJQf+doCJgHyqGlTZXdXl5QyL6XTKqXTtuUvv1P6XkFedOF5PT0nP9XHv/r5xZla7lsTlv84sVa+edFguV9tWALyq5NLpbx6pMx+dbjsvnyYTF0xTKYuHyaDb42U8ruj5T2n9pP94qYE5A3TquRPDq2Qtikkql+9Zs/iiOIKVU474hB5539uk02Nq+XGdHe1yZlvvi5//MPvyqkHT+lZEqRRNvtVH8f47mtHoH+Ebftzf/jdDXzhi5eB3wnB1kyEEkJlLF30PpMPOJz29o7XgRO3w576F8BVoJb//eMWK9Mek6ptXv70AGJJCwr+uiMeQ7Ckw+W3M7v42ztdpNyA7x9cwVGDYnzy/gbacv77wCfYPd1uNR/OaNTJ18WRiM2EcWPZd79JVFVUIIQgnU4x+733Wbx4Wc+KFuDnqOzWl7fnBL+jVgC1QHr8uJGycc0yKaUrpdOydbO/1y6llPJXv/xJj0r+bjtcmy8BHcNLLfmHo6vlgf0jazdppWFTHjskJq/cr0zecESlvHFalfzJYRXyrNFJOSgZkqgkPvm9Qypl61Uj5LSB0Z7vvViPgz2aUHE1cCfrjna94sstzvYzikIxgR1gTPWRY7sPBeBKQF751UvVesfr2srlf6uUQUZmU41yrwljJKqCbWIfX5cjgVVRS8i7Tq6T8rujZPcVw+Q/T6yRp49OyNqYJW1DyA0jN+qVDBny+GEx+fSn6qX8wRj5vakVPX93R/EB0GgMVPOZ/YATiqvCA4HBO/oZ+aixbfXhL3xaSTLBSSecoMZD4GxljFGCiPGfu/7J3HkLKSrm7D68JvsCt4YMUf/zaVWcuVcJubRHSMBnJpbx6fElvNfiML/D5d2GPJ2FgJApcAPJ8HKb/fqFOaAuTKgsxKNvd3ODaj/eWtxO6GQeDagAcDO7QBZnXwnAUGD4iJEjOHjqwRBktn7wm1EK+Qx///s/8DzfYzMtj7aS4ago64BvTSnj0v3LcPIBXrEvQHfKw7YEE+vCTOwf4cwxCVUU0FOPa6laAiQ0rMnz9WdbyHnSLwZxZunnXrOr0VcCMB2oOvzQqYSjpdtmiWzEeerJ/zJz5lugrKZf6qPPOAG4Fdj7qv3L+O7hlfhOsEE7MMMAN5C4aR9BsVuTECpaKsDNe1iGwLQF17zYztw2F+Dx7RSj0Gh2GQGYBoSOPWZaMd4hNj/Dr+3E0WNhZaCyBA1UqrzL7bf/i2yuAMoJqC986cajWoJP+vr+5Vx3VBVm0Q134wOOtYZAULQFW/fjTQPCcZM/v9HJre91gyra+Yp+jDR7sgBEgOqSkiT7TNqLdX0hNqp5CdnFH2et92N9CgUH13Fw3BSeJ3hr5kxeePEVgPnAC33w+cYBfxMw6Wv7l3HDkZV4XkDGkZs2Cd1YDNb7bWKxEO805PnJq+09LdC/hKre02j2WAEYAdQffOD+lFeWA07RwC4Ehk2P4a8McjS3dNDe3sHKpfNYsngJKxsaaFjdSHtrOy2tHXR2dtKV7mJNQxOoM9JtrYGehuoJOPaq/cu4floVnifJuR89+DdYt0iI2oL2jMtVT7X0dLr9I/CofoQ0e7oATAYGjR8/Djtcppbzltr/t7asZPa781kwfy4z33iNeQsWs3rFGlauXIO3UQcpUSqwEzaFNQVQR3+vbOPnOhf4NVD1zQPK+elRVQSOJOtt+eAPmQIrZPCdJxp5SpX9zkJ1Gnb0I6TZ0wVgMBA6dOqBIEKsWrmEl19+mSefeJK33n6HZctW0N5jmgCIckHZ3qWUDi4hMTBOvF+CUNwiWh2hc1GKN384ExnI+1CplVvLV4HrLYPwjw6t5KqDKghcSc4JtnjwCwMiSYtbXuvgz++mQFkyX4Cu9NNoAQCKLj0vvzKDZ59/mXvuvo/29nZyjipmigwMM/DAAZQOLaFiXBnJIUnMiIVhCoRVdNgRYEVMVr/QgFR1tTPZOm87G1WG+6WysDB/fmQ1F04qxXcDcpsI+H0UhoB4wuKpRWm+80IbUpIDvotqiKnR7PECIFDmiPzixt+rPwlD6bAShh42lMq9KigZlCBWH8cusfEdn8DxcTpdAscHp3jEZiivvM75XaCMM97bis8yCnVqcOKocps/fKKKo4cnyGc83GDLHZukhETCZH6Tw2WPNfc48N6IOk3QaLQAoFojlQtTkByWpP/UOmr2q6Z8bBlWzEQYBoEXIAPJ0vuW0Tmvi1j/KAOO7g9CIH25zvNeSArthR4BaNqK/f5PgEHHDYnx8yOrmVBrk0l7BHIrBj+odmL5gK8+1cy8dheUn8AP9COj0QKw4fdHE/VxDrpuf8rHlOGkXPyCj5NyIQC7zGbVU2t440dv4udUZaAZMhg4faAa8BIM28AvBHh5D7YshXIEynPvkrAp+Mq+ZfzfoRWU2AbpbLEN+FbM/OGwICfhiidaeGxpFlRA8gx0qq9mN2NbDUESQJkVNVUEv8PB7XYJCkExq9eka0E3s65/m7gR59CpB5KIxll8/1KctItRNNAIlYZomdlKelUGoLJnW/ERwvMN4CHgkn1rwvzn5DpuOLqKuClIbeTztyWDP2QIbNPgpy+28TeV7DMPFfTr1I+LRgvAhpQB9YEv8XLeuqiAQHkdhk0W37cEp9vhtNNO5J+33Uy/frV0LOvES7kIQ2CX2bS/28FbP38HX+2z9wbO28RnM1GmCV8sDsqflYbF6KumlPHwGf05dUwSpxCQKQQIY8vrLKVUmX6RuMmvXuvgZ+uKfK5CJSVpNHoLsBE9w/0DaXNmzCS9OsOKp1dSXlLC+Z//AoOHjcE0BX53gJfzKBmSoHtZmlk/e5tcS559Jk2gpaXNWrW64Seo8smHUacBpcChwLFArCJiiOnD4nxjShl714XxPMjkPNVUZSsqrCVgWYJozOSfb3Xxfy+14wbSBb5d/AwajRaATRCwieM6GUjsEpsVj67E7w6YfPS+HHrYVFoaG3EcDyyw4iGMiMn7f51Hx9xOxo4axeOPPcK8efP59neuEfPmLTilrb3zFNM08X31I8ZU2Bw/NM7po+McPCiKFJDN+lsV6Ft/8JtCEI2b3PtuN5c/1UJaFQF8F+Xrr9FoAdgMrcAyYNAG+4qQQeAGtM1tRyA47LDDMMwIK1auIJvNEqkKE6uNsuKJ1ax8cjXJRIKbbv411bUDqa4dwBOPT+TVGW+xpqGZV158hptu+QejykPcc0Z/xtfY4EkKxUo+w9i2piwGEIubPL8kw6VPttBZCEBF+3+uHw+NFoAPpwBk19sIIAOJFbcotBdoe6+dWDjC1IMOAGDRooV0dXdTcWgFhbYcc256Hz/v860fXM5hRxwHfgcEklgiwVFHfwLwueeeOwH42uQyxtfYFLK+6vIrVfnutgZAYnGLF5Zm+cwDTTRmfFANGa7Vj4ZmT2Bbg4AuUHBTLk6Xq9pbA4Zl4KRdCu0FEvEEI0YOA+DNN2aSKxSoGF3O6hcb6Xi/k0OnTuFLl1ym3qqnu4abBSTPPPEgDzzwMOMrbY4fnkAWAgqeas6xLbO+LMYsYnGTZ5dlOeu+NaxKewB/Br6uHwuNFoDekQFa3ZSLm3LWNcy0BH7eJ/AlZeVJBg4eRldXGzNefQMERMojLH1wBaZpcsmXv0RVdR146zX9MSzA4dZ/3Q3AqaPiDCy31ODfRhvFnj1/ImHxzNIcn3uwkaZsAKqRx8WwUZWSRqMF4EPpcDMeTpdT7JS7wTyLMEzA5pVXXuHt2e+RGJ0gszpNx3sdHHfsNE444ZMgCyD9dd9nRmlctZT7HnqMchtOGZVUCwNfbpONak9Tj1jC5JH5aT7/UCMrU17P4L+EvjEf0Wj2KAFIAxS6XLDWH56qjbYdCuPku/jXbbeRzmYZMLkfa15vwA6FOPuccygpLQcvvS6IgATCPPDwU3R3dLJXdZiJ1SF8b9vGZiAhbArCMZN/vd3NuQ80skIN/j8VB79GowVgK1gCuOlVafycjzAEvhNgl4QIJ8OsWbmGT3/6XO757/2Ujy4jUhula06KiXuN5+RTTgDyG068hglInn3uBZAB00ckCEdN8k6w1cv/QELYEtgRg9/O6OCSJ5p7ov3fAy7Vj4FGC8DWMwtYmVmZwct6GJaBm3aJ1UUZMK0/ral2/vu/h/FjMO6LY2ibq9r7nXbaqZSU1oGfXe9jSDDjdLU38d7c+Qhgv9owBOBv5QJASkhEBJYp+NEL7Vz1TCspJ8gDl6HaL+tlv2aPpS/8ABYCKzoWdA1z0h7RijDSkXhZn5GfGgEIOhd3M+YzI0kOS/Dm9bMoTSQ57bST1dhba7vdg83CRUtoamikzoYJFTZ+Idjy1N7iuyYTJt15n6ufaeFPb6818rwMuFvffo0WgG3HAdpyzTnSy1PEqsMIoU4BrKjFhC+PBSGwEyEW/GcxhTaHw6ZNZdSoUSBzm3zDVatWk06nmFxl0a80RCa/Zct/KZWldzRmsqjV5atPNPOwquqbX9zvP6tvvUbTd+3BXwLctrfaMMOmaicmIPAC3LSHV3y1vtUGAZxw/HSEGQc/v+Hsbyg9amxaTT6XZ3h5GGEKgl62J5M9+/2Qyut/ZEGGU+9Z0zP4nwRO0YNfo+l7AbgPaG6e1YqX9jEsY93OWoIRNsi25Oha3IWFweT99l43Va8/fIUJwMoVK5FSMqQ0BF7vlv+y+I941MCyDH79agfnPtDInDYH4BbgbHRVn0azXQRgGbC8a0k3bXPaCVeEe7z91D4jYpJrzZNuyDByxHDGTdgLyG32zQqu8t1IWL3/eJYhSMZMVqd8znuwkW8810ZnIegCvoxq3tGhb7dGs30EAOCvfs5n1dNrEEJghs11kThDkGnK4qd9xowfTSJZ8cHlP4BhIKVLo+oLQF3CWvcem9nrC5R9lx0xuG9eiqP+vYp/vZ/CC+R84CjUOb+279ZotrMA/A/obnixgfb3O7DLbGX4aQoIJJ0LuwAYNXI4lmVt5vDNwHddOjrUZF0eMTe73JcS7JBBPGmxtNvl64+38OmHmlnU6RZQZbwHodyFNRrNDhCADuBX+fYC829bSOAEWFELIQTSh9wateQfOXI44kPK+IQQGMW/DzYz61sCkjETy4R/vd3FqXet4TezOsl5wbsog9CL9JJfo+nF1rmP3+9G4ITVz66ZvHBcGaM/OxI/5+O7PvmuPAKDsWNHAd5GAcCNBnkgNznrm6ijPSHg+WVZbny9k8eWZXBUGcH1qGo+3atPo/mYBKAb+H7gBQ/NuXmuCJeFGXH2MJwuBzfjYiKoqKzZzNwOyADTsqmprQGgJaMK8wwhiNkCTMH7TQX+MrubW9/tpqMQSOBl4Puo4z2d1afRfIwCAPAIcJ6f92+eed1bMTftMuCY/jgZh/p+/Ygnk6jW4HzwGFAGYFhUV1cCkHEDiJogfV5vyPPvOSn++X6ajrwP6kjvBuBWtF23RrPTCADA7YAXeMHP3v7l7EHLHlxOdk2OmvFVxOMlQBis8EYrgZ5FPpSVlQCwMuVx/+xubn+/m8eWZkm7ElRbrgdRzTnz+hZqNFuPkL3IshNb78KxL8q//xyAstISzjrrdI45+ggGDBxGeXk5QVD0ARAG6VQ3TY1N3HLLzTzw0OMkQqJn0AM8XnzdgeoepNFoPoKPGt/bWwAAQqjz+ONR0flI2LaprCwnnoitC/gJQT6Xo7Ozi3RmbZLQ68D9qIrDGejmHBrNLicA6283hqLaiR9QfFWzzlZcAGtQZ/fvo7IL16CchzUazcclABqNZvfE0JdAo9ECoNFotABoNBotABqNRguARqPRAqDRaLQAaDQaLQAajUYLgEaj0QKg0Wi0AGg0Gi0AGo1GC4BGo9ECoNFotABoNBotABqNRguARqPRAqDRaLQAaDQaLQAajUYLgEaj0QKg0Wi0AGg0Gi0AGo1GC4BGo9ECoNFotABoNBotABqNRguARqPRAqDRaLQAaDQaLQAajUYLgEaj0QKg0Wi0AGg0Gi0AGo1GC4BGowVAo9FoAdBoNFoANBqNFgCNRqMFQKPRaAHQaDS7J/8/APsJ0z67WEncAAAAAElFTkSuQmCC;verticalAlign=bottom;" vertex="1" parent="epSYKEgupzC-YlLHhk_k-24">
          <mxGeometry x="190" y="190" width="106" height="106" as="geometry" />
        </mxCell>
        <mxCell id="epSYKEgupzC-YlLHhk_k-14" style="edgeStyle=orthogonalEdgeStyle;shape=connector;rounded=0;orthogonalLoop=1;jettySize=auto;html=1;exitX=0;exitY=0.5;exitDx=0;exitDy=0;entryX=0.013;entryY=0.116;entryDx=0;entryDy=0;strokeColor=#13A8FF;strokeWidth=3;align=center;verticalAlign=middle;fontFamily=Helvetica;fontSize=11;fontColor=default;labelBackgroundColor=default;endArrow=classic;entryPerimeter=0;" edge="1" parent="epSYKEgupzC-YlLHhk_k-24" source="epSYKEgupzC-YlLHhk_k-4" target="epSYKEgupzC-YlLHhk_k-3">
          <mxGeometry relative="1" as="geometry">
            <Array as="points">
              <mxPoint x="160" y="98" />
              <mxPoint x="160" y="180" />
              <mxPoint x="190" y="180" />
              <mxPoint x="190" y="190" />
              <mxPoint x="191" y="190" />
            </Array>
          </mxGeometry>
        </mxCell>
        <mxCell id="epSYKEgupzC-YlLHhk_k-4" value="  max" style="shape=image;aspect=fixed;image=data:image/png,iVBORw0KGgoAAAANSUhEUgAAA+gAAAH0CAYAAACuKActAAAACXBIWXMAAAsTAAALEwEAmpwYAAAAAXNSR0IArs4c6QAAAARnQU1BAACxjwv8YQUAACClSURBVHgB7d0/bJznfcDxR4EGLwK8NdKSTLpsKSAC2RKfR6dityoRgXSRLU4F5FqrHHOlEwOdKFtTAArW2FOsoYOpdGoBCkjG0+QMldKFcKElG3u/k85hFMmiSD7P+3vf+3yAAxWjte9eavne7/lzam9vb78AAAAAXdr/TgEAAAA6J9ABAAAgAYEOAAAACQh0AAAASECgAwAAQAICHQAAABIQ6AAAAJCAQAcAAIAEBDoAAAAkINABAAAgAYEOAAAACQh0AAAASECgAwAAQAICHQAAABIQ6AAAAJCAQAcAAIAEBDoAAAAkINABAAAgAYEOAAAACQh0AAAASECgAwAAQAICHQAAABIQ6AAAAJCAQAcAAIAEBDoAAAAkINABAAAgAYEOAAAACQh0AAAASECgAwAAQAICHQAAABIQ6AAAAJCAQAcAAIAEBDoAAAAkINABAAAgAYEOAAAACQh0AAAASECgAwAAQAICHQAAABIQ6AAAAJCAQAcAAIAEBDoAAAAkINABAAAgAYEOAAAACQh0AAAASECgAwAAQAICHQAAABIQ6AAAAJCAQAcAAIAEBDoAAAAkINABAAAgAYEOAAAACQh0AAAASECgAwAAQAICHQAAABIQ6AAAAJCAQAcAAIAEBDoAAAAkINABAAAgAYEOAAAACQh0AAAASECgAwAAQAICHQAAABIQ6AAAAJCAQAcAAIAEBDoAAAAkINABAAAgAYEOAAAACQh0AAAASECgAwAAQAICHQAAABIQ6AAAAJCAQAcAAIAEBDoAAAAkINABAAAgAYEOAAAACQh0AAAASECgAwAAQAICHQAAABIQ6AAAAJCAQAcAAIAEBDoAAAAkINABAAAgAYEOAAAACQh0AAAASECgAwAAQAICHQAAABIQ6AAAAJCAQAcAAIAEBDoAAAAkINABAAAgAYEOAAAACQh0AAAASECgAwAAQAICHQAAABIQ6AAAAJCAQAcAAIAEBDoAAAAkINABAAAgAYEOAAAACQh0AAAASECgAwAAQAICHQAAABIQ6AAAAJCAQAcAAIAEBDoAAAAkINABAAAgAYEOAAAACZwuAKTz9nhcAGr6cmenAJCLCToAAAAkINABAAAgAYEOAAAACQh0AAAASECgAwAAQAICHQAAABIQ6AAAAJCAQAcAAIAEBDoAAAAkINABAAAgAYEOAAAACQh0AAAASECgAwAAQAICHQAAABIQ6AAAAJCAQAcAAIAEBDoAAAAkINABAAAgAYEOAAAACQh0AAAASECgAwAAQAICHQAAABIQ6AAAAJCAQAcAAIAEBDoAAAAkINABAAAgAYEOAAAACQh0AAAASECgAwAAQAICHQAAABIQ6AAAAJCAQAcAAIAEBDoAAAAkINABAAAgAYEOAAAACQh0AAAASECgAwAAQAKnCwDAc86eO1fOnDlTzj37GeLPC48ePfqrnw+n0/LkyZMCABydQAeAJRbxfX40KqMDr4NR/rqms1CPaN/d3Z3/+cHsJwBwOAIdAJZMBPl4PC4rKyvzID9qjL/IIvLj378Qsb6zszP/GZN2AODFBDoALIFYsr66ujp/HVyq3kJ8ERCvENP1yWRS7s5ei+XxAMBTp/b29vYLAKm8fWD6CMdxYRbG6+vr3wRyJjFRX8Q67X25s1MASGVfoAMkJNA5jliyfnltrZNp+VHEJH1ra0uoNybQAdIR6AAZCXSOKqL8g+vXT3RfeStCvS2BDpCOQAfISKDzumIp+/VZmMcBbX0Xof7+tWvzU+CpR6ADpLPvkDgA6LGYlMfEPCbnQxHL8j+/c2e+P/3mbKLuMDkAlsV3CgDQS3GV2Rf37g0qzg+Kz/XZrVvl4kA/HwA8zwQdAHompuZX19fL2tpaGbqYpm9sbMyX7n+8uVkAYMhM0AGgRyJYY6q8DHF+UHzeWC3Qh1PpAeCoBDoA9ERMkSPOh3AQ3FEsvpxY1s8PwPAJdADogdiHHQenLfsEeRHp9qUDMEQCHQCSu7y2Nt+HzVOxBz+ex+UlW+YPwPA5JA4AEovD4NZnL/5W3Psebm9vFwAYAhN0AEgqJsTi/NtFpFvuDsBQCHQASCjuOF9MiPl2sdx9ZWWlAEDfCXQASCYOQvvInvPX8utPPnEFGwC9J9ABIJHFKeVxEBqHF8/LcwOg7wQ6ACQSk3OT4KOJ5xaTdADoK4EOAEnEie32Uh9PPD/XrwHQV65ZA4AEYvqb6cT2R48elel0Ov/5cPZz8c8WYin52dl7jvc9Go3mP7NM/uNwvQe7u/P3DwB9ItABIIHYP9213VnU7uzslPuz18EYP6wI9Jhgx7VnXa8EiK0CP7t0qQBAnwh0AOhYLG3vavocIX53Minb29vlyZMn5Tji3zWZ/bvitYj1rj5bTPVjqfvt2ecCgL44tbe3t18ASOXt8biwHCJev7h3r7QWMb21tTWP89pWZxP1LkI9vnCIKfpRVgMsgy93dgoAqew7JA4AOnS18b7ziNabszCPcG0R5yEm6j995535f7el2Cd/NdG+fgB4FYEOAB2JiXJMl1uJQ9MizGNyftzl7EcR/90I9ZYT7dUE++EB4LAEOgB0JA4yayX2YmdY7h3//dbTdFN0APpCoANABxaHqLXw8eZm2Zy9MolpeqtIj+dsig5AHwh0AOhAq6nuhzduzE9ozygiPd5fCxcbbiUAgKMS6ADQWKu95xG/k0YHwR1VvL8WkT4ej+eHxgFAZgIdABprMc2N5ePZ43wh3mft5e4R53EvOgBkJtABoLHa0/MI3q3GV5odV7zfncr3cq9a5g5AcgIdABq6sLIyX+JeS5yS/nGyA+EOK5a61zxlvuXBfABwFAIdABqqPcWNyO3ijvOTEO+79n70t8bjAgBZCXQAaKjmBDeWtu/u7pY+i/dfc6n7WKADkJhAB4BGRqNR1eXtN3u27/xlai7Rj+d/tuLvAACOQ6ADQCMXKk/Pa+7fbik+R827203RAchKoANAIzXDcCjT84XbFQPdQXEAZCXQAaCRWOJew5Cm5wvxeWrtpxfoAGQl0AGggYjzM2fOlBpq3x/elbuzLx5qiN+DfegAZCTQAaCBWkEYV5PdH2igxxcPta6Mq7WaAQCOQ6ADQAO1grDv16p9m4jz6XRaajhngg5AQgIdABqoFYRDDvRQa/m+CToAGQl0AGigVqA/rDRhzqLW56t1HgAAHIdAB4AGagXh0CfolrgDsEwEOgA0UCMIh3a12ovEPvQaB8WZoAOQkUAHgAZqBOEyBHqo8TlN0AHISKADAKnVumoNALIR6ADQU8syQQeAZSHQAQAAIAGBDgA95aAzABgWgQ4APSXQAWBYBDoANFDjoLNlOYncFXUALAuBDgANCPSjiVUCNT6nk+EByEigA0ADtSa2o9GoDNn5Sp9PoAOQkUAHgAZqBfr5gQd6rS8gLHEHICOBDgAN1ArClZWVMmS1Pp9AByAjgQ4ADTyuFITj8bgMWa1An06nBQCyEegA0MDu7m6pIQ5RG+oU/cLsc9W6Su6xCToACQl0AGggllTXOpjsrYFO0VdXV0sN8XswQQcgI4EOAI3UisII2VqT5q7E1Wq1Al2cA5CVQAeARmouc7+8tlaG5GKlOA87OzsFADIS6ADQQOynjqlwLWuzQB/KFL3m9Dw8qPRFCQAc1+kCAJy4iOWYAscp63GXd+14XkzRb25tlb67ur5e7cuMOAvAEncAshLoAHBCDkZ5Fyerr8/C9u5k0us7vmtPz3dNzwFITKADwDHF8vVYYr5S8Vqww/poY6O8e+VK6avPbt0qNcUXGACQlUAHgCPoelr+MvFePrh+vXy8uVn6pubS9hArC0zQAchMoAPAa1js9c58KFu8t9hn3adpcTzTWKJfkzgHIDuBDgCH0IcwP+j6bIr+cBbpfTgQLQ7Ri/db2xAO0ANg2FyzBgCvEGH+xb178wlvX64yi/cZ+7kjfjOL91d733mIu8/7fHgeAMtBoAPAS8ThbxGPMd3t4x3j2SN98XxbPNvb29sFALIT6ADwnAjGOGjt1iweMx0AdxTxWT6/c2e+CiCTeD+3GsV57D23/xyAPrAHHQAOiFPZ46qyPk7Mv02sAohJepzu/uTJk9KVxZcfNe86f5695wD0hUCnAPA0HOOar7Vkk+aTFFEcKwK2ZsHaxQnv8eVHxHnNq9SeF3vPTc8B6AuBDsDSi8nyrz/5pGk4diU+48bGxjzUY7Lc4uC02GseB+x1sV2gj/fBA7C8BDoASy32Qre44iubmKbHKybM29vb5UGFKXOXYR7iYDgntwPQJwIdgKW0DEvaDyOWnccrQjZiPV7HifWI8vj3Rfx3uY8/Ps+WvecA9IxAB2DpxDLvWNKe/Y7wluKZxJcV8YpD5KbT6TeviN34Z88fLhf/P/GK57h4ZTlcL+K8y8PwAOAoBDoASyWCMu7eXob95kcVkR3L0vt6xVwsbe/iEDwAOC73oAOwNGLCK86HLab9mw6GA6CnTNABWAqLOB/a/eb8RcT5u1euFADoKxN0AAZPnC+HuFLNqe0A9JkJOgCD1qc4j0PNIjDjYLb488PZz/CiQ9oWy/Tjc52d/Tl+xmddHNq2bOJO9ziBHgD6TKADMFiLA+GyxnkEd0RlBHlcbTZ9FuSH8apJ8eJU9bfG42/Cfagizl2pBsAQCHQABilrnO/OQjxifBHmtSyuSJs8O818EevjZ8E+FOIcgCE5tbe3t18ASOXtWURxdBHln9+5k2ZqHJPyuPqrdpQfVgT65bW1+TVqfZ6si/Pj+dKWAIBs9k3QARicjzY2UoRnTMtjgn1/FkIH9493Lb4k+PDGjfmfV1dXy9X19d6FujgHYIgEOgCDErE57ngFQoR5BGT8zC6+QIhXX0I9vuiI09oXS/cBYEgEOgCDEZG5PovMrsTBbTGZ7kOYP68PoR7P9/1r11JsEwCAGtyDDsAgRFBe7SjOY6obE/OfXbrUyzg/KCL9p++8M/88mcRzfffKFXEOwKA5JA4gIYfEvb4v7t3rZOob4RhT81dde9ZHi5Pwu5ymL7782N7eLpwsh8QBpLNvgg5A73W1JDv2QsdUd4hxHuJzdTlNj/9+rEoQ5wAsC4EOQK9FmLfedx7hGGG+LOEYp6V38UVEtjvsAaA2gQ5Ar8US7JZiD3TEat/3mr+uxR7wlpEegR5X5gHAshDoAPTW5bW1pkvb704m8yXXQ13S/iqLJed3G15xtrKyUi6urhYAWAYCHYBeijBfmwV6K7EP+8aNG2XZxaFt8Rxa7ku/fv265e4ALAWBDkAvtTwYLmJ0K9m1Y12L59Eq0iPOLzf8MgYAuiLQAeidCPPVRsuexfnLtYz09Y5O6geAlgQ6AL1ztdGp7eL81eL5tNqTfrXxaf0A0JpAB6BXLqysNJme7+zsiPNDij3pLU61j997HBoHAEMl0AHolRZ3nsdp5R86EO61vH/tWpPT7U3RARgygQ5Ab8Qe5NoT1DilPO77jp8cXjyviPTazy1+/6PRqADAEAl0AHqjxfR0c3Nzae85P67pdNrk0Dj3ogMwVAIdgF5ocXL7ZDJpduDZUG1vb8/379cUfw/ciw7AEAl0AHqh9vQ8puY3HQp3ImL/fs2l7u5FB2CoBDoAvVB773mc2G5p+8mIOP94c7PUtCbQARgggQ5AerGkOZa412Jp+8mLZ1rz6rWYortyDYChEegApPfWeFxqsrS9jtrP1WFxAAyNQAcgtZicjysGekx6LW2vIybok4orE+LvhcPiABgSgQ5AarWXMZue11Xz+Uac115dAQAtCXQAUqu5jNn0vL54vrWn6AAwFAIdgLRqHwRmet7G7e3tUkv8/bDMHYChOF0AIKkLFeM8+/T8jVl0fnd0vpwfv1XePHdu/uf4Z288i9E/P3lSvn70ePZ6VP64u1v+NH04+/mgZDSdTuf70Wt82RJxPhqNqp4YDwCtCHQA0qq5fDnrtWrfX7lQfrx+9Zsgf5mnAf804n8wi/gQsf7VLNL/c+vmPN4zidUKK7dulRpiH7pAB2AIBDoAacVktIaYnGcLukWYx8+jikn736/G62L5/eRuqlCP5/1kNvWvsRzdfegADIU96ACkFNer1Qr0SaLpeUzC/+mTX5Vf3Pr0WHH+vIj0f7n32/KTWfRnUeu5x98T+9ABGAKBDkBK5yvFeciyvD2Wp7935/Y3S9Rr+Mn6e+WfZ/H/5rmzpWv3d3ZKLaOKf18AoBWBDkBKtZYtx/L2DIfD/XA24f7FPJzPldq+N5vM/yJBpC+WuddwXqADMAACHYCUak1EdypOcQ8r4vwfN375rYfAnbT4IiBDpNda5m4fOgBDINABSKlWoN/vONBjWXvEeRcWkf5Gh/u1H06npQZL3AEYAoEOQDpx4FetQ7+mlQLxMCKQ40C4LsV7WO3oC4JQawVDHCrooDgA+k6gA5BOrf3EEee19kAfxo/X32uy5/xV4lC6H61dLl2I51/rDIBzCZ4tAByHQAcgnVHFQO9K7DuPq8+yiNPdu1rqXusOegfFAdB3Ah2AdIa4vD2COJOI8x+t/bx0odbvwRJ3APpOoAOQTq2lyg87CvSYnmdY2v68WObexRS91hJ3B8UB0HcCHYB0agX6/3R0//kPEy1tPyji/Ier/1Bae2iCDgAvJNABSKdWaD3uINBjcv79lQslqx+Mx6W1Wgf1CXQA+k6gA5BOjdB61NH0/HuJ4zzE+2u9zD0CvUakO8UdgL4T6ACkUyPQu7peLXughy7eY5fX3QFAVgIdgHSGFOgZD4d73ndH50trNX4flrgD0HcCHQAq6iJ+X1cXXyIIdAD4WwIdACp6owfR+Oa5swUA6J5AB4BK+rC8HQDIQ6ADAABAAgIdACr5uqOr3ZaVk+EB6DuBDkA6Q7oj+889iMavHz0urdX4fQh0APpOoAOQzpBCqw9T9C7e45Cu0gOAkyLQAUhnSBP0P+4+KNl91fg9RpwLdAD4WwIdgHQeVZronu0g0r/qQaD/7/RhaanWlyUCHYC+E+gApFMrtEajUWktJuiZ96H/cXe3+fur9UXJI4fyAdBzAh2AdGqFVhfL3CN+/9R4Qv06fj/5bWmt1hclJugA9J1AByCdx5UCvYsJevjd1s2SURwO94fJ3dJard/DdDotANBnAh2AdGqF1srKSulCLHPPuBe9izgPtQL9sSXuAPScQAcgnZpL3GucHn4Y2aboMT3/3danpbX4HZyzBx0AXkigA5BO7CWutZ/4QodT9P/evl2y6CLOQ61VDLHqwh50APpOoAOQ0u7ubqmhq2XuIaL46wRT3v+afVHQ1fL2Wl+QmJ4DMAQCHYCUagXXeDwuXYkT3X9z5Wqn167FifL/sfmr0pVaX5DU+kIHAFoS6ACkVCu4Yv9zl1P0mKD/5sp7nUT64r/dlZie19p//tAJ7gAMgEAHIKUHFSeiFzoM9BBT7Ajllsvd47/56aXLnU7vV1dXSy2uWANgCAQ6ACnFgV+1omttba107WmkX20S6bHn/NNLP+80zkPN5e0OiANgCAQ6AGnVWuYeV62tdDxFDxHn//bOxWpXsMW//861f+10z/lCTM9rLW83PQdgKAQ6AGnd39kptVxdXy9ZxOnuEeondbJ6TMoj+mNJ+3TnfsngYsXl7TX/ngBAS6cLACS1uNs6Jt4nLSboo9EozfQ1pt3/fuOX81j/yfp75XsrF8qbrzlx/mp3dx7kf5j8tvPl7AfVPJgv/n44wR2AoRDoAKS12IdeK+4ur62VD2/cKJksQj18d3S+/N3sS4SnP8+XN2ZfVLzx7MuKCPD/m/3ffv3o8Xw/e4R5pig/qOZqhR3TcwAGRKADkNrdyaRaoMe+6JtbW9XuXD+uCO94/aH0V0zPa57eLtABGBJ70AFILQKs5gndmfaiD1HN5xt/L+w/B2BIBDoAqdXeYxzT3Qwnug+R6TkAvB6BDkB6t7e3S02m6HV8dutWqSm2PwDAkAh0ANKLCXrNZe4xQY8D4zg58Txr3Xse4twAp7cDMDQCHYBe2K48RV+fTdFrBuUyiee4XnlVwtbWVgGAoRHoAPRCLHOvOUWPu9Y/2tgoHF88xxp31y/E34MHpucADJBAB6AXIsomlfccW+p+fLGfv/ahe3E4XNar8QDgOAQ6AL3R4lCwWJo9Go0Kry+e23qDA/duWt4OwEAJdAB6YzqdVj8YLJZm//qTT+xHf03xvOK51RarKEzPARgqgQ5Ar7SYni5is+Y+6iGJ5xRXqrX4UsP0HIAhE+gA9EpM0CcNlrrHcu0Prl8vvFqrFQem5wAMnUAHoHdiilrzRPeF1dVVJ7u/Qjyf2ofCLZieAzB0Ah2A3okpau170RdE+svFc4nn00LEuek5AEMn0AHopdr3oh8k0v/a4s74VnEeYb5leg7AEhDoAPRSxPnHm5ullYjROAht2Q+OWxwI1yrOgzgHYFkIdAB6Kw4Nq33t2kGx1/rzO3eW9gq2+Nzx+VveEx+/47sNDgUEgAwEOgC99uGNG82WuoeI1JggX2w4Qc4gPm/rLydiabuD4QBYJgIdgF7rIuIiUjc2NpbiGrZY0h6fMz5v6+X9Ww6GA2DJCHQAei9OdG+51H1hbW2tfHHv3mCXvF94tqQ/PmdrlrYDsIwEOgCD8P61a51MWyPOI9LjVPOhhPpian7r1q1OPpOl7QAsK4EOwCDEPvTYj96VxSnvfd6bHmF+dX19/oVDF1PzhXevXLG0HYClJNABGIxY5t7y6rXnLfamR+D2KdQPhvn67GeXV8nF70+cA7CsTu3t7e0XAFJ5ezwuHF0sz+5yArwQoRkHnT2YfXGQMTojxC/PnlM8qwz3u9/e3i6bHX7Bsmy+3NkpAKSyL9ABEhLox9f6vu5XiUPP4vWgg8PsnheHv0WUx73uGcI8xOqHWNpOOwIdIB2BDpCRQD++CM/W93YfRkzSI0Zbxno8i/OzLyvGs79XsVc+S5QvxDP52aVLTe+zR6ADJCTQATIS6Ccj4vyzjk4iP6yI9cXr4XR6IpF6dvZ5Y/VATMjjZ7yyRflCxLlD4boh0AHSEegAGQn0k9OHSD8oAn06C/UI1njF/47X8wEbwX3wde5ZlMfPrDH+PHHeLYEOkI5AB8hIoJ+svkX6MhDn3RPoAOnsu2YNgMETg7n4fQDAiwl0AJaCKMzB7wEAXk6gA7A0xGG3Ym+95w8ALyfQAVgqiyu9duy/beruZCLOAeAVBDoASydORX//2rVyc2urUF885xs3brjnHABe4XQBgCW1NQvHmOh+cP16b64m65PFFyFxxzsA8Gom6AAstclkMl/ybun1yYooj+cqzgHg8AQ6AEsv4vyn77xjyfsJiedovzkAvD6BDgDPxJJ30/Sji1Pa4/lt+aIDAI5EoAPAARGZpumvJ/aa33z25UY8PwDgaAQ6ALxATIEj1F3H9u0We81NzQHg+JziDgAvEUvd4xTy1dXVcnV9vZw7d67wVIR5TM0dAgcAJ+fU3t7efgEglbfH40I+Qv3plxYxLb87mRT67UurQwCy2RfoAAkJ9NyWMdRjUh5X0gnz4RDoAOkIdICMBHo/jGe/p8tra2VlZaUMlaXswyXQAdLZtwcdAI4oDpCLV0zSY6IeoT6EqXqcyn57e7tsz17xZwCgDRN0gIRM0PsrpupvzV7x88yZM6UvIsRjCfv92RcOpuXLwQQdIB1L3AEyEujDEBP1i6uraSfrceBbrAAQ5ctJoAOkY4k7ANQS0bsI3wj0CPULs9doNJq/Wosgj/fz4Nn7iv8NAORhgg6QkAn68MXy94j087NXxPvo2c+TmLRHeE+n0/nPeD2c/Tn+t/3kHGSCDpCOCToAdCFi+eCE/aCDoX4w2M8e+PPjA9PviPD498XLVBwA+kugA0Ayi8k3ALBcvlMAAACAzgl0AAAASECgAwAAQAICHQAAABIQ6AAAAJCAQAcAAIAEBDoAAAAkINABAAAgAYEOAAAACQh0AAAASECgAwAAQAICHQAAABIQ6AAAAJCAQAcAAIAEBDoAAAAkINABAAAgAYEOAAAACQh0AAAASECgAwAAQAICHQAAABIQ6AAAAJCAQAcAAIAEBDoAAAAkINABAAAgAYEOAAAACQh0AAAASECgAwAAQAICHQAAABIQ6AAAAJCAQAcAAIAEBDoAAAAkINABAAAgAYEOAAAACQh0AAAASECgAwAAQAICHQAAABI4XQBI59SpUwUAgOVyam9vb78AAAAAXdq3xB0AAAASEOgAAACQgEAHAACABAQ6AAAAJCDQAQAAIAGBDgAAAAkIdAAAAEhAoAMAAEACAh0AAAASEOgAAACQgEAHAACABAQ6AAAAJCDQAQAAIAGBDgAAAAkIdAAAAEhAoAMAAEACAh0AAAASEOgAAACQgEAHAACABAQ6AAAAJCDQAQAAIAGBDgAAAAkIdAAAAEhAoAMAAEACAh0AAAASEOgAAACQgEAHAACABAQ6AAAAJCDQAQAAIAGBDgAAAAkIdAAAAEhAoAMAAEACAh0AAAASEOgAAACQgEAHAACABAQ6AAAAJCDQAQAAIAGBDgAAAAkIdAAAAEhAoAMAAEACAh0AAAASEOgAAACQgEAHAACABAQ6AAAAJCDQAQAAIAGBDgAAAAkIdAAAAEhAoAMAAEACAh0AAAASEOgAAACQgEAHAACABAQ6AAAAJCDQAQAAIAGBDgAAAAkIdAAAAEhAoAMAAEACAh0AAAASEOgAAACQgEAHAACABAQ6AAAAJCDQAQAAIAGBDgAAAAkIdAAAAEhAoAMAAEACAh0AAAASEOgAAACQgEAHAACABAQ6AAAAJCDQAQAAIAGBDgAAAAkIdAAAAEhAoAMAAEACAh0AAAASEOgAAACQgEAHAACABAQ6AAAAJCDQAQAAIAGBDgAAAAkIdAAAAEhAoAMAAEACAh0AAAASEOgAAACQgEAHAACABAQ6AAAAJCDQAQAAIAGBDgAAAAkIdAAAAEhAoAMAAEACAh0AAAASEOgAAACQgEAHAACABAQ6AAAAJCDQAQAAIAGBDgAAAAkIdAAAAEhAoAMAAEACAh0AAAASEOgAAACQgEAHAACABAQ6AAAAJCDQAQAAIAGBDgAAAAkIdAAAAEhAoAMAAEACAh0AAAASEOgAAACQgEAHAACABAQ6AAAAJHB69tovAAAAQJf2/x8wvWYaQcDUTAAAAABJRU5ErkJggg==;clipPath=inset(22% 36% 23.33% 35.67%);verticalAlign=bottom;fontColor=#FFFFFF;align=left;" vertex="1" parent="epSYKEgupzC-YlLHhk_k-24">
          <mxGeometry x="200" y="49.53" width="100" height="96.47" as="geometry" />
        </mxCell>
        <mxCell id="epSYKEgupzC-YlLHhk_k-15" style="edgeStyle=orthogonalEdgeStyle;shape=connector;rounded=0;orthogonalLoop=1;jettySize=auto;html=1;exitX=1;exitY=0.5;exitDx=0;exitDy=0;entryX=0;entryY=0.75;entryDx=0;entryDy=0;strokeColor=#13A8FF;strokeWidth=3;align=center;verticalAlign=middle;fontFamily=Helvetica;fontSize=11;fontColor=default;labelBackgroundColor=default;endArrow=classic;" edge="1" parent="epSYKEgupzC-YlLHhk_k-24" source="epSYKEgupzC-YlLHhk_k-6" target="epSYKEgupzC-YlLHhk_k-3">
          <mxGeometry relative="1" as="geometry" />
        </mxCell>
        <mxCell id="epSYKEgupzC-YlLHhk_k-6" value="open stage control" style="shape=image;aspect=fixed;image=data:image/png,iVBORw0KGgoAAAANSUhEUgAAAOEAAADhCAMAAAAJbSJIAAAAZlBMVEX///9ttf3Y6/5ps/35/P/Z7P73+//g7/7x+P+02P7w9/91uf3i8P5vtv3m8v/4/P9isP3P5v7I4v56u/1+vf3M5P6ay/6FwP3D3/6k0P2Sxv693P6UyP6+3f6fzv632P6s1P6t0v7mKQFGAAAKbklEQVR4nO1d6YKqOgxWyr6NuIAi4zjv/5IXdXSQpEDbBDhz+X7OOdJ+NM3WNKxWCxYsWLBgwYIFCxYsWLBgwYIFC1qwXTcMQ9e1p54INXwv+wyup7wqn6jyyzU4Zl449dTMkW6vebHfRUmyXos3rJMk2u2LPDikU09SG/G5itY3Yms57v+YlFdr6skqwvbTYyU2ndzeeW5EdUz9f2V/hk5Q1FMeyO7FciOKwEnnTzK0zmW3YHYtZU3Smrf28T7zSJPek2SUf3pT05AiOxWJCb0fkklxyqamgiLLd0bL1+AodvlhajoAGcXyNUgmxazW0bYKZd3Zy3Gzz+aiWG2vJOd3x6b03KnJ1bDT65qF3/q2IU/x5OsYngsufneO+6+J7aNVkSoYhOK6mlKtutcdL787x91psmX09uz0HthPFHoEgzXM8//dAsIau6j19/7fXyfgl1ZD5ld7OTWt8hQcPP/t56GzDS5lHRsPc9NFGY9NMOtXofXUd2V+3XYofNs5XqtiN2Axxf4wqt1wP6O+SYl1cTlnQzIU6SHI970rKaKvEc2/f+pdvuK0VXBIQut46SUpLqPp1DDvnotI8m2s+sJ971j2cBTVSEkrr+ycyCYKUr//KQh869TNURSjmA2nS8eITXT+MHi4e+1Oze1HiKmyTjem2Jo+/yPYdVGM2H24DoJ11PpJoe7CoOiiaPwOu9FFkC4MSL87huGlKCcoom9KLZDlci8gOhIO1IIjJ1geTBQMRHiUK7SEbRWlWlQkAb2lSi9yeWGimMrsoIhYckb2URpd71go+rJgQlRcPnG6l1HkWEVXJjRRQD/YC7JBxY7cu7G/JGPxZm4PkjVMTuQb/xDhQ5UO9UhNbKUEM0/P95XCk+yInNXb3yYShqfMsTzS3W/jdoI5YjtK5GZzshzLskjzGieU4ObCGnXLCIrLnaBFeZaa4a8ypxsBwbZ7BW8gk9MQddbEier5KLYyU/hL0KI6LLbxpAWviMq16C9ByyLSc/h+YFYyUoJZg6DlkJgM3B3lTQrJRLRFsNanBFvRvWJDFaz1ElIt+iaiVPrUwkaLWF21Hjv4BvNTYh9TM+KTgogMUjNxhQQJlE2GEbxQEJFB5qqJr1UKCVqW4SK6yPsUBQ0VHFIlc66VCrKGps7beQPHijgTz1I7+HXLA7nYIhpZjA9sS5yJyGCQruDPwVOIMDRS6wFcQpETB2ZNSMOl58maHdMuYogk2DnP1KVm4vwy7D6yFQ0WMUBGC/iOYqUEm5kgTJ9qL6IL415R8HlrUjv49lJdj1CdnuGuYDw0kIZLLc2GKBtdBxxLkLKlRjvMRHtIZBE1BSuDUsPnj8oJAp8FUTZ63qn9DXchW96izw6+AVlErRDDQ/QMV8wkDZe+sBMtH9E1OrsHvlZRmjKRQGomwB58AC6ijq5BwqYNk7EfZiYaQNSphpjGwFSIkkeRysMl6XhwETUy4EfgkgoeRSrToms5QWwRlbWpC/JPomDJrknNRNAxZxsaDGWTmEKhYfFItQhi3qmymG6BkNKfSa46wqVugpjBUBVT4LGJnEFIpVq0Yw/egcSJqtODPgZDfm0rKfDaXHt/CsVUMcBwgJAyRL7KdrABxDlVG/wKhZQ8eSE1E0MSQYiYqm1E6JN+6dGQI5PUWSbBoOoqKKZq9gKMuyM398cKrRXvMRMvhDDBrzK60x5XlPTZC/9Y6hPEshkqg5/ByCyJ/BSca4lhInoDZKiyES/w1WoQ6Id7fBfUIVr0CbgRVSwiUDRs6YtD0yxtrgquF9yIChvJB1e29mxn2o3DLTXP1zVRNRbwNbii+1XjyD5RdO0BQ4UCNOhsMJ4YuqcnQUXfGagaZ/gbCoDHz1lh+SiFUCYIVY0z/AmwOIH/3F6ZIAz0FdJRMAnFevvPr8RmuB38/RlgOFgd2rCChvdi3Ke4avwKHggPNhc+YLjTmIACwq1OgsTWZ5i2DT5vbYI2AMPBeylu3zsSFedEtaHP0Gq7NLwFNNrQd2oywJC3lFQXwOQPzihmbadNS9XxAyQyDBhyujT60Gd4+PMMgeMtOMug9AEc04XhC39fSv+PuvSv2cO/79M4wC/lvf+jizZBFc+7HVswJqIMoM8wHDs+1INBfAirFBLay/Y0MIjx4RH3eo7djOFZ/vC0NbxBPatGlD+AubbhDGE2cY5um0m+FBYHz9EgmuS8Ye3sHM2FyblFCk5m9vNTNUZnTyvQ5Ie/eZEyjM4PoblgOgM2gdkZMFSm81M1Zuf4oOEG500SPRjWYvhgDblbbCnDsJ5mBUvq5rYRTWuiwAkiS/GlAZC6NrXCuwMsoJ2Xa2pcm+jCOva+otZxgZRBKz4B1AxxVLbpw4aaVHUXBSCASuYkpgR13h68E3SdQ5P7H0AhVQgsHvBh/8ndfLQpxX0LG4rpjE4vkDsz6kXaUEzX0Wy0Kcm9pxCmozasDT8UgOgZHUV/RhaRfK56oLl/uHLgdwE283C/ke4YWndIXdikTexnYTCo7gGjV1rIb11oANmFmp2G4PHFej2HQBhp/qE7K1hIO4cwEYa++k3NQqQf5ORBFOJzGzQ3QRqZsbanGQKkt4lBXzqYGa5DDMZu2gNA3J8GXtK7Zd1G/x5KA9Q9hlY+1svsNKF7ivWJMuvziyziej2dZwPPKgyXsF5E7CJrMt0XphCCpt1IDpicTlX2zdFzD+/EPlGNFLYJCZq0or0vkykiRXQTKpxsS5+LKpsJXBusyRdNP2hQIfXYimN/7A21hCQ9aFerT0xOR08Qo1qGpo+wpBe0qEZ1UFGCVL2gUfd05HI+nKByFlgK/BsMA/pzUAEnaGwKG0D76lfWWF9ClxCk1ATItxGSPHPGoWhLCNLGOOA7SHeC9WvkL8uUEfSIh261O/ohWL9I7vyii9pBMkPxi9ZJTf7q/k79NZQWfNSTsUg/bvEcqlF0Kqpm73DOWApJrNFrmddgryhDVI7DPdoDki1IrWVewz0VatV+sQQOPgbc175vDSYdbt0/GJTkcEQnpB/SlkooG8FbZa341aItsaFWODIdyicyd2TRGidYD5tSjvuRSheQ3k68IWt/JKQpO3RKNZTuQG6C3WNT2UY/li8gO8EuBUfEsXsAfoL44U+To5msSn2Yn6ePcgiNZ0yaHHWVud25ByxOM9GC1NV4IvXVp2L7HfrzAZq80yD0zsWK1UjW9HqWz+L0DhHI/Y0XnDgNh+0aN0y7tOfzeSOflvRohJ9JeV4fy5qd5/XTY4/SEPTpmxdLx6lp+m5bZm3Xr8k5zhB2NeIp7niiByWdZD0vjtM0HrZob5joPK/HMtKB09XuQb9OpeA3VtISRUeMQwXyuEwRvW6IIThia1W4yhpHAaRBpz7YRHUcP3sQuiMeTYwRKClgkI+jQm98H6YXnZH5H+B3w5D4YAi8dJ78bnBD44V04oERyVSwfSMD6enEzqPDdjWl1fkn6D1gu8or6aUgwJo9hrOcs2rpg/uIctE49/73wamOWePjFs6ncR35PhHfIuEw/Pfksg/2E1NPZMGCBQsWLFiwYMGCBQsWLFiwYH74D0gaiZ1PqNJPAAAAAElFTkSuQmCC;verticalAlign=bottom;" vertex="1" parent="epSYKEgupzC-YlLHhk_k-24">
          <mxGeometry x="20" y="200" width="105" height="105" as="geometry" />
        </mxCell>
        <mxCell id="epSYKEgupzC-YlLHhk_k-10" value="RASPBERRY" style="whiteSpace=wrap;html=1;aspect=fixed;verticalAlign=top;labelPosition=center;verticalLabelPosition=bottom;align=center;rounded=1;sketch=1;curveFitting=1;jiggle=2;shadow=0;fillColor=#f8cecc;strokeColor=#b85450;fillStyle=solid;" vertex="1" parent="1">
          <mxGeometry x="150" y="730" width="260" height="260" as="geometry" />
        </mxCell>
        <mxCell id="epSYKEgupzC-YlLHhk_k-16" style="edgeStyle=orthogonalEdgeStyle;shape=connector;rounded=0;orthogonalLoop=1;jettySize=auto;html=1;exitX=0.25;exitY=1;exitDx=0;exitDy=0;entryX=0.5;entryY=0;entryDx=0;entryDy=0;strokeColor=#13A8FF;strokeWidth=3;align=center;verticalAlign=middle;fontFamily=Helvetica;fontSize=11;fontColor=default;labelBackgroundColor=default;endArrow=classic;startArrow=classicThin;startFill=1;" edge="1" parent="1" source="epSYKEgupzC-YlLHhk_k-5" target="epSYKEgupzC-YlLHhk_k-19">
          <mxGeometry relative="1" as="geometry">
            <Array as="points">
              <mxPoint x="705" y="620" />
              <mxPoint x="610" y="620" />
              <mxPoint x="610" y="700" />
              <mxPoint x="213" y="700" />
            </Array>
          </mxGeometry>
        </mxCell>
        <mxCell id="epSYKEgupzC-YlLHhk_k-27" style="edgeStyle=orthogonalEdgeStyle;shape=connector;rounded=0;orthogonalLoop=1;jettySize=auto;html=1;exitX=0.5;exitY=0;exitDx=0;exitDy=0;entryX=1;entryY=0.5;entryDx=0;entryDy=0;strokeColor=#FF33FF;strokeWidth=3;align=center;verticalAlign=middle;fontFamily=Helvetica;fontSize=11;fontColor=#FF88FB;labelBackgroundColor=default;endArrow=classic;" edge="1" parent="1" source="epSYKEgupzC-YlLHhk_k-5" target="epSYKEgupzC-YlLHhk_k-3">
          <mxGeometry relative="1" as="geometry">
            <Array as="points">
              <mxPoint x="730" y="380" />
              <mxPoint x="490" y="380" />
              <mxPoint x="490" y="293" />
            </Array>
          </mxGeometry>
        </mxCell>
        <mxCell id="epSYKEgupzC-YlLHhk_k-31" style="edgeStyle=orthogonalEdgeStyle;shape=connector;rounded=0;orthogonalLoop=1;jettySize=auto;html=1;exitX=0.5;exitY=1;exitDx=0;exitDy=0;entryX=1;entryY=0.816;entryDx=0;entryDy=0;strokeColor=#FF9933;strokeWidth=3;align=center;verticalAlign=middle;fontFamily=Helvetica;fontSize=11;fontColor=default;labelBackgroundColor=default;endArrow=classic;entryPerimeter=0;" edge="1" parent="1" source="epSYKEgupzC-YlLHhk_k-5" target="epSYKEgupzC-YlLHhk_k-29">
          <mxGeometry relative="1" as="geometry">
            <Array as="points">
              <mxPoint x="730" y="820" />
              <mxPoint x="430" y="820" />
              <mxPoint x="430" y="853" />
            </Array>
          </mxGeometry>
        </mxCell>
        <mxCell id="epSYKEgupzC-YlLHhk_k-42" style="edgeStyle=orthogonalEdgeStyle;shape=connector;rounded=0;orthogonalLoop=1;jettySize=auto;html=1;exitX=0.75;exitY=1;exitDx=0;exitDy=0;entryX=0;entryY=0.25;entryDx=0;entryDy=0;strokeColor=#13A8FF;strokeWidth=3;align=center;verticalAlign=middle;fontFamily=Helvetica;fontSize=11;fontColor=default;labelBackgroundColor=default;endArrow=classic;startArrow=classicThin;startFill=1;" edge="1" parent="1" source="epSYKEgupzC-YlLHhk_k-5" target="epSYKEgupzC-YlLHhk_k-37">
          <mxGeometry relative="1" as="geometry" />
        </mxCell>
        <mxCell id="epSYKEgupzC-YlLHhk_k-5" value="ROUTEUR" style="whiteSpace=wrap;html=1;aspect=fixed;verticalAlign=middle;labelPosition=center;verticalLabelPosition=middle;align=center;sketch=1;curveFitting=1;jiggle=2;" vertex="1" parent="1">
          <mxGeometry x="680" y="485" width="100" height="100" as="geometry" />
        </mxCell>
        <mxCell id="epSYKEgupzC-YlLHhk_k-7" value="TABLETTE" style="verticalLabelPosition=bottom;verticalAlign=top;html=1;shadow=1;dashed=0;strokeWidth=1;shape=mxgraph.android.tab2;strokeColor=#6c8ebf;direction=north;fillColor=#dae8fc;sketch=1;curveFitting=1;jiggle=2;" vertex="1" parent="1">
          <mxGeometry x="20" y="460" width="220" height="160" as="geometry" />
        </mxCell>
        <mxCell id="epSYKEgupzC-YlLHhk_k-8" value="open stage control" style="shape=image;aspect=fixed;image=data:image/png,iVBORw0KGgoAAAANSUhEUgAAAOEAAADhCAMAAAAJbSJIAAAAZlBMVEX///9ttf3Y6/5ps/35/P/Z7P73+//g7/7x+P+02P7w9/91uf3i8P5vtv3m8v/4/P9isP3P5v7I4v56u/1+vf3M5P6ay/6FwP3D3/6k0P2Sxv693P6UyP6+3f6fzv632P6s1P6t0v7mKQFGAAAKbklEQVR4nO1d6YKqOgxWyr6NuIAi4zjv/5IXdXSQpEDbBDhz+X7OOdJ+NM3WNKxWCxYsWLBgwYIFCxYsWLBgwYIFC1qwXTcMQ9e1p54INXwv+wyup7wqn6jyyzU4Zl449dTMkW6vebHfRUmyXos3rJMk2u2LPDikU09SG/G5itY3Yms57v+YlFdr6skqwvbTYyU2ndzeeW5EdUz9f2V/hk5Q1FMeyO7FciOKwEnnTzK0zmW3YHYtZU3Smrf28T7zSJPek2SUf3pT05AiOxWJCb0fkklxyqamgiLLd0bL1+AodvlhajoAGcXyNUgmxazW0bYKZd3Zy3Gzz+aiWG2vJOd3x6b03KnJ1bDT65qF3/q2IU/x5OsYngsufneO+6+J7aNVkSoYhOK6mlKtutcdL787x91psmX09uz0HthPFHoEgzXM8//dAsIau6j19/7fXyfgl1ZD5ld7OTWt8hQcPP/t56GzDS5lHRsPc9NFGY9NMOtXofXUd2V+3XYofNs5XqtiN2Axxf4wqt1wP6O+SYl1cTlnQzIU6SHI970rKaKvEc2/f+pdvuK0VXBIQut46SUpLqPp1DDvnotI8m2s+sJ971j2cBTVSEkrr+ycyCYKUr//KQh869TNURSjmA2nS8eITXT+MHi4e+1Oze1HiKmyTjem2Jo+/yPYdVGM2H24DoJ11PpJoe7CoOiiaPwOu9FFkC4MSL87huGlKCcoom9KLZDlci8gOhIO1IIjJ1geTBQMRHiUK7SEbRWlWlQkAb2lSi9yeWGimMrsoIhYckb2URpd71go+rJgQlRcPnG6l1HkWEVXJjRRQD/YC7JBxY7cu7G/JGPxZm4PkjVMTuQb/xDhQ5UO9UhNbKUEM0/P95XCk+yInNXb3yYShqfMsTzS3W/jdoI5YjtK5GZzshzLskjzGieU4ObCGnXLCIrLnaBFeZaa4a8ypxsBwbZ7BW8gk9MQddbEier5KLYyU/hL0KI6LLbxpAWviMq16C9ByyLSc/h+YFYyUoJZg6DlkJgM3B3lTQrJRLRFsNanBFvRvWJDFaz1ElIt+iaiVPrUwkaLWF21Hjv4BvNTYh9TM+KTgogMUjNxhQQJlE2GEbxQEJFB5qqJr1UKCVqW4SK6yPsUBQ0VHFIlc66VCrKGps7beQPHijgTz1I7+HXLA7nYIhpZjA9sS5yJyGCQruDPwVOIMDRS6wFcQpETB2ZNSMOl58maHdMuYogk2DnP1KVm4vwy7D6yFQ0WMUBGC/iOYqUEm5kgTJ9qL6IL415R8HlrUjv49lJdj1CdnuGuYDw0kIZLLc2GKBtdBxxLkLKlRjvMRHtIZBE1BSuDUsPnj8oJAp8FUTZ63qn9DXchW96izw6+AVlErRDDQ/QMV8wkDZe+sBMtH9E1OrsHvlZRmjKRQGomwB58AC6ijq5BwqYNk7EfZiYaQNSphpjGwFSIkkeRysMl6XhwETUy4EfgkgoeRSrToms5QWwRlbWpC/JPomDJrknNRNAxZxsaDGWTmEKhYfFItQhi3qmymG6BkNKfSa46wqVugpjBUBVT4LGJnEFIpVq0Yw/egcSJqtODPgZDfm0rKfDaXHt/CsVUMcBwgJAyRL7KdrABxDlVG/wKhZQ8eSE1E0MSQYiYqm1E6JN+6dGQI5PUWSbBoOoqKKZq9gKMuyM398cKrRXvMRMvhDDBrzK60x5XlPTZC/9Y6hPEshkqg5/ByCyJ/BSca4lhInoDZKiyES/w1WoQ6Id7fBfUIVr0CbgRVSwiUDRs6YtD0yxtrgquF9yIChvJB1e29mxn2o3DLTXP1zVRNRbwNbii+1XjyD5RdO0BQ4UCNOhsMJ4YuqcnQUXfGagaZ/gbCoDHz1lh+SiFUCYIVY0z/AmwOIH/3F6ZIAz0FdJRMAnFevvPr8RmuB38/RlgOFgd2rCChvdi3Ke4avwKHggPNhc+YLjTmIACwq1OgsTWZ5i2DT5vbYI2AMPBeylu3zsSFedEtaHP0Gq7NLwFNNrQd2oywJC3lFQXwOQPzihmbadNS9XxAyQyDBhyujT60Gd4+PMMgeMtOMug9AEc04XhC39fSv+PuvSv2cO/79M4wC/lvf+jizZBFc+7HVswJqIMoM8wHDs+1INBfAirFBLay/Y0MIjx4RH3eo7djOFZ/vC0NbxBPatGlD+AubbhDGE2cY5um0m+FBYHz9EgmuS8Ye3sHM2FyblFCk5m9vNTNUZnTyvQ5Ie/eZEyjM4PoblgOgM2gdkZMFSm81M1Zuf4oOEG500SPRjWYvhgDblbbCnDsJ5mBUvq5rYRTWuiwAkiS/GlAZC6NrXCuwMsoJ2Xa2pcm+jCOva+otZxgZRBKz4B1AxxVLbpw4aaVHUXBSCASuYkpgR13h68E3SdQ5P7H0AhVQgsHvBh/8ndfLQpxX0LG4rpjE4vkDsz6kXaUEzX0Wy0Kcm9pxCmozasDT8UgOgZHUV/RhaRfK56oLl/uHLgdwE283C/ke4YWndIXdikTexnYTCo7gGjV1rIb11oANmFmp2G4PHFej2HQBhp/qE7K1hIO4cwEYa++k3NQqQf5ORBFOJzGzQ3QRqZsbanGQKkt4lBXzqYGa5DDMZu2gNA3J8GXtK7Zd1G/x5KA9Q9hlY+1svsNKF7ivWJMuvziyziej2dZwPPKgyXsF5E7CJrMt0XphCCpt1IDpicTlX2zdFzD+/EPlGNFLYJCZq0or0vkykiRXQTKpxsS5+LKpsJXBusyRdNP2hQIfXYimN/7A21hCQ9aFerT0xOR08Qo1qGpo+wpBe0qEZ1UFGCVL2gUfd05HI+nKByFlgK/BsMA/pzUAEnaGwKG0D76lfWWF9ClxCk1ATItxGSPHPGoWhLCNLGOOA7SHeC9WvkL8uUEfSIh261O/ohWL9I7vyii9pBMkPxi9ZJTf7q/k79NZQWfNSTsUg/bvEcqlF0Kqpm73DOWApJrNFrmddgryhDVI7DPdoDki1IrWVewz0VatV+sQQOPgbc175vDSYdbt0/GJTkcEQnpB/SlkooG8FbZa341aItsaFWODIdyicyd2TRGidYD5tSjvuRSheQ3k68IWt/JKQpO3RKNZTuQG6C3WNT2UY/li8gO8EuBUfEsXsAfoL44U+To5msSn2Yn6ePcgiNZ0yaHHWVud25ByxOM9GC1NV4IvXVp2L7HfrzAZq80yD0zsWK1UjW9HqWz+L0DhHI/Y0XnDgNh+0aN0y7tOfzeSOflvRohJ9JeV4fy5qd5/XTY4/SEPTpmxdLx6lp+m5bZm3Xr8k5zhB2NeIp7niiByWdZD0vjtM0HrZob5joPK/HMtKB09XuQb9OpeA3VtISRUeMQwXyuEwRvW6IIThia1W4yhpHAaRBpz7YRHUcP3sQuiMeTYwRKClgkI+jQm98H6YXnZH5H+B3w5D4YAi8dJ78bnBD44V04oERyVSwfSMD6enEzqPDdjWl1fkn6D1gu8or6aUgwJo9hrOcs2rpg/uIctE49/73wamOWePjFs6ncR35PhHfIuEw/Pfksg/2E1NPZMGCBQsWLFiwYMGCBQsWLFiwYH74D0gaiZ1PqNJPAAAAAElFTkSuQmCC;verticalAlign=bottom;" vertex="1" parent="1">
          <mxGeometry x="70" y="480" width="120" height="120" as="geometry" />
        </mxCell>
        <mxCell id="epSYKEgupzC-YlLHhk_k-13" style="edgeStyle=orthogonalEdgeStyle;rounded=0;orthogonalLoop=1;jettySize=auto;html=1;exitX=0.25;exitY=1;exitDx=0;exitDy=0;entryX=0;entryY=0.5;entryDx=0;entryDy=0;strokeWidth=3;strokeColor=#13A8FF;startArrow=classic;startFill=1;" edge="1" parent="1" source="epSYKEgupzC-YlLHhk_k-3" target="epSYKEgupzC-YlLHhk_k-5">
          <mxGeometry relative="1" as="geometry" />
        </mxCell>
        <mxCell id="epSYKEgupzC-YlLHhk_k-17" style="edgeStyle=orthogonalEdgeStyle;shape=connector;rounded=1;orthogonalLoop=1;jettySize=auto;html=1;exitX=0.25;exitY=1;exitDx=0;exitDy=0;entryX=0.25;entryY=0;entryDx=0;entryDy=0;strokeColor=#00CC00;strokeWidth=3;align=center;verticalAlign=middle;fontFamily=Helvetica;fontSize=11;fontColor=default;labelBackgroundColor=default;endArrow=classic;curved=0;" edge="1" parent="1" source="epSYKEgupzC-YlLHhk_k-1" target="epSYKEgupzC-YlLHhk_k-5">
          <mxGeometry relative="1" as="geometry" />
        </mxCell>
        <mxCell id="epSYKEgupzC-YlLHhk_k-34" style="edgeStyle=orthogonalEdgeStyle;shape=connector;rounded=0;orthogonalLoop=1;jettySize=auto;html=1;exitX=0;exitY=0.5;exitDx=0;exitDy=0;entryX=0.5;entryY=0;entryDx=0;entryDy=0;strokeColor=#CC0000;strokeWidth=3;align=center;verticalAlign=middle;fontFamily=Helvetica;fontSize=11;fontColor=default;labelBackgroundColor=default;endArrow=classic;startArrow=classicThin;startFill=1;" edge="1" parent="1" source="epSYKEgupzC-YlLHhk_k-19" target="epSYKEgupzC-YlLHhk_k-33">
          <mxGeometry relative="1" as="geometry" />
        </mxCell>
        <mxCell id="epSYKEgupzC-YlLHhk_k-19" value="chataigne" style="shape=image;aspect=fixed;image=data:image/png,iVBORw0KGgoAAAANSUhEUgAAAQAAAAEACAYAAABccqhmAAAACXBIWXMAAAsTAAALEwEAmpwYAAAKT2lDQ1BQaG90b3Nob3AgSUNDIHByb2ZpbGUAAHjanVNnVFPpFj333vRCS4iAlEtvUhUIIFJCi4AUkSYqIQkQSoghodkVUcERRUUEG8igiAOOjoCMFVEsDIoK2AfkIaKOg6OIisr74Xuja9a89+bN/rXXPues852zzwfACAyWSDNRNYAMqUIeEeCDx8TG4eQuQIEKJHAAEAizZCFz/SMBAPh+PDwrIsAHvgABeNMLCADATZvAMByH/w/qQplcAYCEAcB0kThLCIAUAEB6jkKmAEBGAYCdmCZTAKAEAGDLY2LjAFAtAGAnf+bTAICd+Jl7AQBblCEVAaCRACATZYhEAGg7AKzPVopFAFgwABRmS8Q5ANgtADBJV2ZIALC3AMDOEAuyAAgMADBRiIUpAAR7AGDIIyN4AISZABRG8lc88SuuEOcqAAB4mbI8uSQ5RYFbCC1xB1dXLh4ozkkXKxQ2YQJhmkAuwnmZGTKBNA/g88wAAKCRFRHgg/P9eM4Ors7ONo62Dl8t6r8G/yJiYuP+5c+rcEAAAOF0ftH+LC+zGoA7BoBt/qIl7gRoXgugdfeLZrIPQLUAoOnaV/Nw+H48PEWhkLnZ2eXk5NhKxEJbYcpXff5nwl/AV/1s+X48/Pf14L7iJIEyXYFHBPjgwsz0TKUcz5IJhGLc5o9H/LcL//wd0yLESWK5WCoU41EScY5EmozzMqUiiUKSKcUl0v9k4t8s+wM+3zUAsGo+AXuRLahdYwP2SycQWHTA4vcAAPK7b8HUKAgDgGiD4c93/+8//UegJQCAZkmScQAAXkQkLlTKsz/HCAAARKCBKrBBG/TBGCzABhzBBdzBC/xgNoRCJMTCQhBCCmSAHHJgKayCQiiGzbAdKmAv1EAdNMBRaIaTcA4uwlW4Dj1wD/phCJ7BKLyBCQRByAgTYSHaiAFiilgjjggXmYX4IcFIBBKLJCDJiBRRIkuRNUgxUopUIFVIHfI9cgI5h1xGupE7yAAygvyGvEcxlIGyUT3UDLVDuag3GoRGogvQZHQxmo8WoJvQcrQaPYw2oefQq2gP2o8+Q8cwwOgYBzPEbDAuxsNCsTgsCZNjy7EirAyrxhqwVqwDu4n1Y8+xdwQSgUXACTYEd0IgYR5BSFhMWE7YSKggHCQ0EdoJNwkDhFHCJyKTqEu0JroR+cQYYjIxh1hILCPWEo8TLxB7iEPENyQSiUMyJ7mQAkmxpFTSEtJG0m5SI+ksqZs0SBojk8naZGuyBzmULCAryIXkneTD5DPkG+Qh8lsKnWJAcaT4U+IoUspqShnlEOU05QZlmDJBVaOaUt2ooVQRNY9aQq2htlKvUYeoEzR1mjnNgxZJS6WtopXTGmgXaPdpr+h0uhHdlR5Ol9BX0svpR+iX6AP0dwwNhhWDx4hnKBmbGAcYZxl3GK+YTKYZ04sZx1QwNzHrmOeZD5lvVVgqtip8FZHKCpVKlSaVGyovVKmqpqreqgtV81XLVI+pXlN9rkZVM1PjqQnUlqtVqp1Q61MbU2epO6iHqmeob1Q/pH5Z/YkGWcNMw09DpFGgsV/jvMYgC2MZs3gsIWsNq4Z1gTXEJrHN2Xx2KruY/R27iz2qqaE5QzNKM1ezUvOUZj8H45hx+Jx0TgnnKKeX836K3hTvKeIpG6Y0TLkxZVxrqpaXllirSKtRq0frvTau7aedpr1Fu1n7gQ5Bx0onXCdHZ4/OBZ3nU9lT3acKpxZNPTr1ri6qa6UbobtEd79up+6Ynr5egJ5Mb6feeb3n+hx9L/1U/W36p/VHDFgGswwkBtsMzhg8xTVxbzwdL8fb8VFDXcNAQ6VhlWGX4YSRudE8o9VGjUYPjGnGXOMk423GbcajJgYmISZLTepN7ppSTbmmKaY7TDtMx83MzaLN1pk1mz0x1zLnm+eb15vft2BaeFostqi2uGVJsuRaplnutrxuhVo5WaVYVVpds0atna0l1rutu6cRp7lOk06rntZnw7Dxtsm2qbcZsOXYBtuutm22fWFnYhdnt8Wuw+6TvZN9un2N/T0HDYfZDqsdWh1+c7RyFDpWOt6azpzuP33F9JbpL2dYzxDP2DPjthPLKcRpnVOb00dnF2e5c4PziIuJS4LLLpc+Lpsbxt3IveRKdPVxXeF60vWdm7Obwu2o26/uNu5p7ofcn8w0nymeWTNz0MPIQ+BR5dE/C5+VMGvfrH5PQ0+BZ7XnIy9jL5FXrdewt6V3qvdh7xc+9j5yn+M+4zw33jLeWV/MN8C3yLfLT8Nvnl+F30N/I/9k/3r/0QCngCUBZwOJgUGBWwL7+Hp8Ib+OPzrbZfay2e1BjKC5QRVBj4KtguXBrSFoyOyQrSH355jOkc5pDoVQfujW0Adh5mGLw34MJ4WHhVeGP45wiFga0TGXNXfR3ENz30T6RJZE3ptnMU85ry1KNSo+qi5qPNo3ujS6P8YuZlnM1VidWElsSxw5LiquNm5svt/87fOH4p3iC+N7F5gvyF1weaHOwvSFpxapLhIsOpZATIhOOJTwQRAqqBaMJfITdyWOCnnCHcJnIi/RNtGI2ENcKh5O8kgqTXqS7JG8NXkkxTOlLOW5hCepkLxMDUzdmzqeFpp2IG0yPTq9MYOSkZBxQqohTZO2Z+pn5mZ2y6xlhbL+xW6Lty8elQfJa7OQrAVZLQq2QqboVFoo1yoHsmdlV2a/zYnKOZarnivN7cyzytuQN5zvn//tEsIS4ZK2pYZLVy0dWOa9rGo5sjxxedsK4xUFK4ZWBqw8uIq2Km3VT6vtV5eufr0mek1rgV7ByoLBtQFr6wtVCuWFfevc1+1dT1gvWd+1YfqGnRs+FYmKrhTbF5cVf9go3HjlG4dvyr+Z3JS0qavEuWTPZtJm6ebeLZ5bDpaql+aXDm4N2dq0Dd9WtO319kXbL5fNKNu7g7ZDuaO/PLi8ZafJzs07P1SkVPRU+lQ27tLdtWHX+G7R7ht7vPY07NXbW7z3/T7JvttVAVVN1WbVZftJ+7P3P66Jqun4lvttXa1ObXHtxwPSA/0HIw6217nU1R3SPVRSj9Yr60cOxx++/p3vdy0NNg1VjZzG4iNwRHnk6fcJ3/ceDTradox7rOEH0x92HWcdL2pCmvKaRptTmvtbYlu6T8w+0dbq3nr8R9sfD5w0PFl5SvNUyWna6YLTk2fyz4ydlZ19fi753GDborZ752PO32oPb++6EHTh0kX/i+c7vDvOXPK4dPKy2+UTV7hXmq86X23qdOo8/pPTT8e7nLuarrlca7nuer21e2b36RueN87d9L158Rb/1tWeOT3dvfN6b/fF9/XfFt1+cif9zsu72Xcn7q28T7xf9EDtQdlD3YfVP1v+3Njv3H9qwHeg89HcR/cGhYPP/pH1jw9DBY+Zj8uGDYbrnjg+OTniP3L96fynQ89kzyaeF/6i/suuFxYvfvjV69fO0ZjRoZfyl5O/bXyl/erA6xmv28bCxh6+yXgzMV70VvvtwXfcdx3vo98PT+R8IH8o/2j5sfVT0Kf7kxmTk/8EA5jz/GMzLdsAADoyaVRYdFhNTDpjb20uYWRvYmUueG1wAAAAAAA8P3hwYWNrZXQgYmVnaW49Iu+7vyIgaWQ9Ilc1TTBNcENlaGlIenJlU3pOVGN6a2M5ZCI/Pgo8eDp4bXBtZXRhIHhtbG5zOng9ImFkb2JlOm5zOm1ldGEvIiB4OnhtcHRrPSJBZG9iZSBYTVAgQ29yZSA1LjYtYzA2NyA3OS4xNTc3NDcsIDIwMTUvMDMvMzAtMjM6NDA6NDIgICAgICAgICI+CiAgIDxyZGY6UkRGIHhtbG5zOnJkZj0iaHR0cDovL3d3dy53My5vcmcvMTk5OS8wMi8yMi1yZGYtc3ludGF4LW5zIyI+CiAgICAgIDxyZGY6RGVzY3JpcHRpb24gcmRmOmFib3V0PSIiCiAgICAgICAgICAgIHhtbG5zOnhtcD0iaHR0cDovL25zLmFkb2JlLmNvbS94YXAvMS4wLyIKICAgICAgICAgICAgeG1sbnM6eG1wTU09Imh0dHA6Ly9ucy5hZG9iZS5jb20veGFwLzEuMC9tbS8iCiAgICAgICAgICAgIHhtbG5zOnN0RXZ0PSJodHRwOi8vbnMuYWRvYmUuY29tL3hhcC8xLjAvc1R5cGUvUmVzb3VyY2VFdmVudCMiCiAgICAgICAgICAgIHhtbG5zOmRjPSJodHRwOi8vcHVybC5vcmcvZGMvZWxlbWVudHMvMS4xLyIKICAgICAgICAgICAgeG1sbnM6cGhvdG9zaG9wPSJodHRwOi8vbnMuYWRvYmUuY29tL3Bob3Rvc2hvcC8xLjAvIgogICAgICAgICAgICB4bWxuczp0aWZmPSJodHRwOi8vbnMuYWRvYmUuY29tL3RpZmYvMS4wLyIKICAgICAgICAgICAgeG1sbnM6ZXhpZj0iaHR0cDovL25zLmFkb2JlLmNvbS9leGlmLzEuMC8iPgogICAgICAgICA8eG1wOkNyZWF0b3JUb29sPkFkb2JlIFBob3Rvc2hvcCBDQyAyMDE1IChXaW5kb3dzKTwveG1wOkNyZWF0b3JUb29sPgogICAgICAgICA8eG1wOkNyZWF0ZURhdGU+MjAxNi0xMC0yOFQxNzo1Nzo0NiswMjowMDwveG1wOkNyZWF0ZURhdGU+CiAgICAgICAgIDx4bXA6TWV0YWRhdGFEYXRlPjIwMTYtMTAtMjhUMTc6NTc6NDYrMDI6MDA8L3htcDpNZXRhZGF0YURhdGU+CiAgICAgICAgIDx4bXA6TW9kaWZ5RGF0ZT4yMDE2LTEwLTI4VDE3OjU3OjQ2KzAyOjAwPC94bXA6TW9kaWZ5RGF0ZT4KICAgICAgICAgPHhtcE1NOkluc3RhbmNlSUQ+eG1wLmlpZDowNGIyZGYxNS1mZThjLWI1NDEtYmI0Yi0zOTkxYWYyN2NiNmM8L3htcE1NOkluc3RhbmNlSUQ+CiAgICAgICAgIDx4bXBNTTpEb2N1bWVudElEPmFkb2JlOmRvY2lkOnBob3Rvc2hvcDoxODJhOTA2YS05ZDI3LTExZTYtYTY4MC04MzFmZmNiMDY3N2Q8L3htcE1NOkRvY3VtZW50SUQ+CiAgICAgICAgIDx4bXBNTTpPcmlnaW5hbERvY3VtZW50SUQ+eG1wLmRpZDo0YzEzNTJlMS0xZWI3LTY4NGQtYmIxNy1lYTc1Mzk5OGExMDg8L3htcE1NOk9yaWdpbmFsRG9jdW1lbnRJRD4KICAgICAgICAgPHhtcE1NOkhpc3Rvcnk+CiAgICAgICAgICAgIDxyZGY6U2VxPgogICAgICAgICAgICAgICA8cmRmOmxpIHJkZjpwYXJzZVR5cGU9IlJlc291cmNlIj4KICAgICAgICAgICAgICAgICAgPHN0RXZ0OmFjdGlvbj5jcmVhdGVkPC9zdEV2dDphY3Rpb24+CiAgICAgICAgICAgICAgICAgIDxzdEV2dDppbnN0YW5jZUlEPnhtcC5paWQ6NGMxMzUyZTEtMWViNy02ODRkLWJiMTctZWE3NTM5OThhMTA4PC9zdEV2dDppbnN0YW5jZUlEPgogICAgICAgICAgICAgICAgICA8c3RFdnQ6d2hlbj4yMDE2LTEwLTI4VDE3OjU3OjQ2KzAyOjAwPC9zdEV2dDp3aGVuPgogICAgICAgICAgICAgICAgICA8c3RFdnQ6c29mdHdhcmVBZ2VudD5BZG9iZSBQaG90b3Nob3AgQ0MgMjAxNSAoV2luZG93cyk8L3N0RXZ0OnNvZnR3YXJlQWdlbnQ+CiAgICAgICAgICAgICAgIDwvcmRmOmxpPgogICAgICAgICAgICAgICA8cmRmOmxpIHJkZjpwYXJzZVR5cGU9IlJlc291cmNlIj4KICAgICAgICAgICAgICAgICAgPHN0RXZ0OmFjdGlvbj5zYXZlZDwvc3RFdnQ6YWN0aW9uPgogICAgICAgICAgICAgICAgICA8c3RFdnQ6aW5zdGFuY2VJRD54bXAuaWlkOjA0YjJkZjE1LWZlOGMtYjU0MS1iYjRiLTM5OTFhZjI3Y2I2Yzwvc3RFdnQ6aW5zdGFuY2VJRD4KICAgICAgICAgICAgICAgICAgPHN0RXZ0OndoZW4+MjAxNi0xMC0yOFQxNzo1Nzo0NiswMjowMDwvc3RFdnQ6d2hlbj4KICAgICAgICAgICAgICAgICAgPHN0RXZ0OnNvZnR3YXJlQWdlbnQ+QWRvYmUgUGhvdG9zaG9wIENDIDIwMTUgKFdpbmRvd3MpPC9zdEV2dDpzb2Z0d2FyZUFnZW50PgogICAgICAgICAgICAgICAgICA8c3RFdnQ6Y2hhbmdlZD4vPC9zdEV2dDpjaGFuZ2VkPgogICAgICAgICAgICAgICA8L3JkZjpsaT4KICAgICAgICAgICAgPC9yZGY6U2VxPgogICAgICAgICA8L3htcE1NOkhpc3Rvcnk+CiAgICAgICAgIDxkYzpmb3JtYXQ+aW1hZ2UvcG5nPC9kYzpmb3JtYXQ+CiAgICAgICAgIDxwaG90b3Nob3A6Q29sb3JNb2RlPjM8L3Bob3Rvc2hvcDpDb2xvck1vZGU+CiAgICAgICAgIDxwaG90b3Nob3A6SUNDUHJvZmlsZT5zUkdCIElFQzYxOTY2LTIuMTwvcGhvdG9zaG9wOklDQ1Byb2ZpbGU+CiAgICAgICAgIDx0aWZmOk9yaWVudGF0aW9uPjE8L3RpZmY6T3JpZW50YXRpb24+CiAgICAgICAgIDx0aWZmOlhSZXNvbHV0aW9uPjcyMDAwMC8xMDAwMDwvdGlmZjpYUmVzb2x1dGlvbj4KICAgICAgICAgPHRpZmY6WVJlc29sdXRpb24+NzIwMDAwLzEwMDAwPC90aWZmOllSZXNvbHV0aW9uPgogICAgICAgICA8dGlmZjpSZXNvbHV0aW9uVW5pdD4yPC90aWZmOlJlc29sdXRpb25Vbml0PgogICAgICAgICA8ZXhpZjpDb2xvclNwYWNlPjE8L2V4aWY6Q29sb3JTcGFjZT4KICAgICAgICAgPGV4aWY6UGl4ZWxYRGltZW5zaW9uPjI1NjwvZXhpZjpQaXhlbFhEaW1lbnNpb24+CiAgICAgICAgIDxleGlmOlBpeGVsWURpbWVuc2lvbj4yNTY8L2V4aWY6UGl4ZWxZRGltZW5zaW9uPgogICAgICA8L3JkZjpEZXNjcmlwdGlvbj4KICAgPC9yZGY6UkRGPgo8L3g6eG1wbWV0YT4KICAgICAgICAgICAgICAgICAgICAgICAgICAgICAgICAgICAgICAgICAgICAgICAgICAgICAgICAgICAgICAgICAgICAgICAgICAgICAgICAgICAgICAgICAgICAgICAgICAgIAogICAgICAgICAgICAgICAgICAgICAgICAgICAgICAgICAgICAgICAgICAgICAgICAgICAgICAgICAgICAgICAgICAgICAgICAgICAgICAgICAgICAgICAgICAgICAgICAgICAgCiAgICAgICAgICAgICAgICAgICAgICAgICAgICAgICAgICAgICAgICAgICAgICAgICAgICAgICAgICAgICAgICAgICAgICAgICAgICAgICAgICAgICAgICAgICAgICAgICAgICAKICAgICAgICAgICAgICAgICAgICAgICAgICAgICAgICAgICAgICAgICAgICAgICAgICAgICAgICAgICAgICAgICAgICAgICAgICAgICAgICAgICAgICAgICAgICAgICAgICAgIAogICAgICAgICAgICAgICAgICAgICAgICAgICAgICAgICAgICAgICAgICAgICAgICAgICAgICAgICAgICAgICAgICAgICAgICAgICAgICAgICAgICAgICAgICAgICAgICAgICAgCiAgICAgICAgICAgICAgICAgICAgICAgICAgICAgICAgICAgICAgICAgICAgICAgICAgICAgICAgICAgICAgICAgICAgICAgICAgICAgICAgICAgICAgICAgICAgICAgICAgICAKICAgICAgICAgICAgICAgICAgICAgICAgICAgICAgICAgICAgICAgICAgICAgICAgICAgICAgICAgICAgICAgICAgICAgICAgICAgICAgICAgICAgICAgICAgICAgICAgICAgIAogICAgICAgICAgICAgICAgICAgICAgICAgICAgICAgICAgICAgICAgICAgICAgICAgICAgICAgICAgICAgICAgICAgICAgICAgICAgICAgICAgICAgICAgICAgICAgICAgICAgCiAgICAgICAgICAgICAgICAgICAgICAgICAgICAgICAgICAgICAgICAgICAgICAgICAgICAgICAgICAgICAgICAgICAgICAgICAgICAgICAgICAgICAgICAgICAgICAgICAgICAKICAgICAgICAgICAgICAgICAgICAgICAgICAgICAgICAgICAgICAgICAgICAgICAgICAgICAgICAgICAgICAgICAgICAgICAgICAgICAgICAgICAgICAgICAgICAgICAgICAgIAogICAgICAgICAgICAgICAgICAgICAgICAgICAgICAgICAgICAgICAgICAgICAgICAgICAgICAgICAgICAgICAgICAgICAgICAgICAgICAgICAgICAgICAgICAgICAgICAgICAgCiAgICAgICAgICAgICAgICAgICAgICAgICAgICAgICAgICAgICAgICAgICAgICAgICAgICAgICAgICAgICAgICAgICAgICAgICAgICAgICAgICAgICAgICAgICAgICAgICAgICAKICAgICAgICAgICAgICAgICAgICAgICAgICAgICAgICAgICAgICAgICAgICAgICAgICAgICAgICAgICAgICAgICAgICAgICAgICAgICAgICAgICAgICAgICAgICAgICAgICAgIAogICAgICAgICAgICAgICAgICAgICAgICAgICAgICAgICAgICAgICAgICAgICAgICAgICAgICAgICAgICAgICAgICAgICAgICAgICAgICAgICAgICAgICAgICAgICAgICAgICAgCiAgICAgICAgICAgICAgICAgICAgICAgICAgICAgICAgICAgICAgICAgICAgICAgICAgICAgICAgICAgICAgICAgICAgICAgICAgICAgICAgICAgICAgICAgICAgICAgICAgICAKICAgICAgICAgICAgICAgICAgICAgICAgICAgICAgICAgICAgICAgICAgICAgICAgICAgICAgICAgICAgICAgICAgICAgICAgICAgICAgICAgICAgICAgICAgICAgICAgICAgIAogICAgICAgICAgICAgICAgICAgICAgICAgICAgICAgICAgICAgICAgICAgICAgICAgICAgICAgICAgICAgICAgICAgICAgICAgICAgICAgICAgICAgICAgICAgICAgICAgICAgCiAgICAgICAgICAgICAgICAgICAgICAgICAgICAgICAgICAgICAgICAgICAgICAgICAgICAgICAgICAgICAgICAgICAgICAgICAgICAgICAgICAgICAgICAgICAgICAgICAgICAKICAgICAgICAgICAgICAgICAgICAgICAgICAgICAgICAgICAgICAgICAgICAgICAgICAgICAgICAgICAgICAgICAgICAgICAgICAgICAgICAgICAgICAgICAgICAgICAgICAgIAogICAgICAgICAgICAgICAgICAgICAgICAgICAgICAgICAgICAgICAgICAgICAgICAgICAgICAgICAgICAgICAgICAgICAgICAgICAgICAgICAgICAgICAgICAgICAgICAgICAgCiAgICAgICAgICAgICAgICAgICAgICAgICAgICAgICAgICAgICAgICAgICAgICAgICAgICAgICAgICAgICAgICAgICAgICAgICAgICAgICAgICAgICAgICAgICAgICAgICAgICAKICAgICAgICAgICAgICAgICAgICAgICAgICAgICAgICAgICAgICAgICAgICAgICAgICAgICAgICAgICAgICAgICAgICAgICAgICAgICAgICAgICAgICAgICAgICAgICAgICAgIAogICAgICAgICAgICAgICAgICAgICAgICAgICAgICAgICAgICAgICAgICAgICAgICAgICAgICAgICAgICAgICAgICAgICAgICAgICAgICAgICAgICAgICAgICAgICAgICAgICAgCiAgICAgICAgICAgICAgICAgICAgICAgICAgICAgICAgICAgICAgICAgICAgICAgICAgICAgICAgICAgICAgICAgICAgICAgICAgICAgICAgICAgICAgICAgICAgICAgICAgICAKICAgICAgICAgICAgICAgICAgICAgICAgICAgICAgICAgICAgICAgICAgICAgICAgICAgICAgICAgICAgICAgICAgICAgICAgICAgICAgICAgICAgICAgICAgICAgICAgICAgIAogICAgICAgICAgICAgICAgICAgICAgICAgICAgICAgICAgICAgICAgICAgICAgICAgICAgICAgICAgICAgICAgICAgICAgICAgICAgICAgICAgICAgICAgICAgICAgICAgICAgCiAgICAgICAgICAgICAgICAgICAgICAgICAgICAgICAgICAgICAgICAgICAgICAgICAgICAgICAgICAgICAgICAgICAgICAgICAgICAgICAgICAgICAgICAgICAgICAgICAgICAKICAgICAgICAgICAgICAgICAgICAgICAgICAgICAgICAgICAgICAgICAgICAgICAgICAgICAgICAgICAgICAgICAgICAgICAgICAgICAgICAgICAgICAgICAgICAgICAgICAgIAogICAgICAgICAgICAgICAgICAgICAgICAgICAgICAgICAgICAgICAgICAgICAgICAgICAgICAgICAgICAgICAgICAgICAgICAgICAgICAgICAgICAgICAgICAgICAgICAgICAgCiAgICAgICAgICAgICAgICAgICAgICAgICAgICAgICAgICAgICAgICAgICAgICAgICAgICAgICAgICAgICAgICAgICAgICAgICAgICAgICAgICAgICAgICAgICAgICAgICAgICAKICAgICAgICAgICAgICAgICAgICAgICAgICAgICAgICAgICAgICAgICAgICAgICAgICAgICAgICAgICAgICAgICAgICAgICAgICAgICAgICAgICAgICAgICAgICAgICAgICAgIAogICAgICAgICAgICAgICAgICAgICAgICAgICAgICAgICAgICAgICAgICAgICAgICAgICAgICAgICAgICAgICAgICAgICAgICAgICAgICAgICAgICAgICAgICAgICAgICAgICAgCiAgICAgICAgICAgICAgICAgICAgICAgICAgICAgICAgICAgICAgICAgICAgICAgICAgICAgICAgICAgICAgICAgICAgICAgICAgICAgICAgICAgICAgICAgICAgICAgICAgICAKICAgICAgICAgICAgICAgICAgICAgICAgICAgICAgICAgICAgICAgICAgICAgICAgICAgICAgICAgICAgICAgICAgICAgICAgICAgICAgICAgICAgICAgICAgICAgICAgICAgIAogICAgICAgICAgICAgICAgICAgICAgICAgICAgICAgICAgICAgICAgICAgICAgICAgICAgICAgICAgICAgICAgICAgICAgICAgICAgICAgICAgICAgICAgICAgICAgICAgICAgCiAgICAgICAgICAgICAgICAgICAgICAgICAgICAgICAgICAgICAgICAgICAgICAgICAgICAgICAgICAgICAgICAgICAgICAgICAgICAgICAgICAgICAgICAgICAgICAgICAgICAKICAgICAgICAgICAgICAgICAgICAgICAgICAgICAgICAgICAgICAgICAgICAgICAgICAgICAgICAgICAgICAgICAgICAgICAgICAgICAgICAgICAgICAgICAgICAgICAgICAgIAogICAgICAgICAgICAgICAgICAgICAgICAgICAgICAgICAgICAgICAgICAgICAgICAgICAgICAgICAgICAgICAgICAgICAgICAgICAgICAgICAgICAgICAgICAgICAgICAgICAgCiAgICAgICAgICAgICAgICAgICAgICAgICAgICAgICAgICAgICAgICAgICAgICAgICAgICAgICAgICAgICAgICAgICAgICAgICAgICAgICAgICAgICAgICAgICAgICAgICAgICAKICAgICAgICAgICAgICAgICAgICAgICAgICAgICAgICAgICAgICAgICAgICAgICAgICAgICAgICAgICAgICAgICAgICAgICAgICAgICAgICAgICAgICAgICAgICAgICAgICAgIAogICAgICAgICAgICAgICAgICAgICAgICAgICAgICAgICAgICAgICAgICAgICAgICAgICAgICAgICAgICAgICAgICAgICAgICAgICAgICAgICAgICAgICAgICAgICAgICAgICAgCiAgICAgICAgICAgICAgICAgICAgICAgICAgICAgICAgICAgICAgICAgICAgICAgICAgICAgICAgICAgICAgICAgICAgICAgICAgICAgICAgICAgICAgICAgICAgICAgICAgICAKICAgICAgICAgICAgICAgICAgICAgICAgICAgICAgICAgICAgICAgICAgICAgICAgICAgICAgICAgICAgICAgICAgICAgICAgICAgICAgICAgICAgICAgICAgICAgICAgICAgIAogICAgICAgICAgICAgICAgICAgICAgICAgICAgICAgICAgICAgICAgICAgICAgICAgICAgICAgICAgICAgICAgICAgICAgICAgICAgICAgICAgICAgICAgICAgICAgICAgICAgCiAgICAgICAgICAgICAgICAgICAgICAgICAgICAgICAgICAgICAgICAgICAgICAgICAgICAgICAgICAgICAgICAgICAgICAgICAgICAgICAgICAgICAgICAgICAgICAgICAgICAKICAgICAgICAgICAgICAgICAgICAgICAgICAgICAgICAgICAgICAgICAgICAgICAgICAgICAgICAgICAgICAgICAgICAgICAgICAgICAgICAgICAgICAgICAgICAgICAgICAgIAogICAgICAgICAgICAgICAgICAgICAgICAgICAgICAgICAgICAgICAgICAgICAgICAgICAgICAgICAgICAgICAgICAgICAgICAgICAgICAgICAgICAgICAgICAgICAgICAgICAgCiAgICAgICAgICAgICAgICAgICAgICAgICAgICAgICAgICAgICAgICAgICAgICAgICAgICAgICAgICAgICAgICAgICAgICAgICAgICAgICAgICAgICAgICAgICAgICAgICAgICAKICAgICAgICAgICAgICAgICAgICAgICAgICAgICAgICAgICAgICAgICAgICAgICAgICAgICAgICAgICAgICAgICAgICAgICAgICAgICAgICAgICAgICAgICAgICAgICAgICAgIAogICAgICAgICAgICAgICAgICAgICAgICAgICAgICAgICAgICAgICAgICAgICAgICAgICAgICAgICAgICAgICAgICAgICAgICAgICAgICAgICAgICAgICAgICAgICAgICAgICAgCiAgICAgICAgICAgICAgICAgICAgICAgICAgICAgICAgICAgICAgICAgICAgICAgICAgICAgICAgICAgICAgICAgICAgICAgICAgICAgICAgICAgICAgICAgICAgICAgICAgICAKICAgICAgICAgICAgICAgICAgICAgICAgICAgICAgICAgICAgICAgICAgICAgICAgICAgICAgICAgICAgICAgICAgICAgICAgICAgICAgICAgICAgICAgICAgICAgICAgICAgIAogICAgICAgICAgICAgICAgICAgICAgICAgICAgICAgICAgICAgICAgICAgICAgICAgICAgICAgICAgICAgICAgICAgICAgICAgICAgICAgICAgICAgICAgICAgICAgICAgICAgCiAgICAgICAgICAgICAgICAgICAgICAgICAgICAgICAgICAgICAgICAgICAgICAgICAgICAgICAgICAgICAgICAgICAgICAgICAgICAgICAgICAgICAgICAgICAgICAgICAgICAKICAgICAgICAgICAgICAgICAgICAgICAgICAgICAgICAgICAgICAgICAgICAgICAgICAgICAgICAgICAgICAgICAgICAgICAgICAgICAgICAgICAgICAgICAgICAgICAgICAgIAogICAgICAgICAgICAgICAgICAgICAgICAgICAgICAgICAgICAgICAgICAgICAgICAgICAgICAgICAgICAgICAgICAgICAgICAgICAgICAgICAgICAgICAgICAgICAgICAgICAgCiAgICAgICAgICAgICAgICAgICAgICAgICAgICAgICAgICAgICAgICAgICAgICAgICAgICAgICAgICAgICAgICAgICAgICAgICAgICAgICAgICAgICAgICAgICAgICAgICAgICAKICAgICAgICAgICAgICAgICAgICAgICAgICAgICAgICAgICAgICAgICAgICAgICAgICAgICAgICAgICAgICAgICAgICAgICAgICAgICAgICAgICAgICAgICAgICAgICAgICAgIAogICAgICAgICAgICAgICAgICAgICAgICAgICAgICAgICAgICAgICAgICAgICAgICAgICAgICAgICAgICAgICAgICAgICAgICAgICAgICAgICAgICAgICAgICAgICAgICAgICAgCiAgICAgICAgICAgICAgICAgICAgICAgICAgICAgICAgICAgICAgICAgICAgICAgICAgICAgICAgICAgICAgICAgICAgICAgICAgICAgICAgICAgICAgICAgICAgICAgICAgICAKICAgICAgICAgICAgICAgICAgICAgICAgICAgICAgICAgICAgICAgICAgICAgICAgICAgICAgICAgICAgICAgICAgICAgICAgICAgICAgICAgICAgICAgICAgICAgICAgICAgIAogICAgICAgICAgICAgICAgICAgICAgICAgICAgICAgICAgICAgICAgICAgICAgICAgICAgICAgICAgICAgICAgICAgICAgICAgICAgICAgICAgICAgICAgICAgICAgICAgICAgCiAgICAgICAgICAgICAgICAgICAgICAgICAgICAgICAgICAgICAgICAgICAgICAgICAgICAgICAgICAgICAgICAgICAgICAgICAgICAgICAgICAgICAgICAgICAgICAgICAgICAKICAgICAgICAgICAgICAgICAgICAgICAgICAgICAgICAgICAgICAgICAgICAgICAgICAgICAgICAgICAgICAgICAgICAgICAgICAgICAgICAgICAgICAgICAgICAgICAgICAgIAogICAgICAgICAgICAgICAgICAgICAgICAgICAgICAgICAgICAgICAgICAgICAgICAgICAgICAgICAgICAgICAgICAgICAgICAgICAgICAgICAgICAgICAgICAgICAgICAgICAgCiAgICAgICAgICAgICAgICAgICAgICAgICAgICAgICAgICAgICAgICAgICAgICAgICAgICAgICAgICAgICAgICAgICAgICAgICAgICAgICAgICAgICAgICAgICAgICAgICAgICAKICAgICAgICAgICAgICAgICAgICAgICAgICAgICAgICAgICAgICAgICAgICAgICAgICAgICAgICAgICAgICAgICAgICAgICAgICAgICAgICAgICAgICAgICAgICAgICAgICAgIAogICAgICAgICAgICAgICAgICAgICAgICAgICAgICAgICAgICAgICAgICAgICAgICAgICAgICAgICAgICAgICAgICAgICAgICAgICAgICAgICAgICAgICAgICAgICAgICAgICAgCiAgICAgICAgICAgICAgICAgICAgICAgICAgICAgICAgICAgICAgICAgICAgICAgICAgICAgICAgICAgICAgICAgICAgICAgICAgICAgICAgICAgICAgICAgICAgICAgICAgICAKICAgICAgICAgICAgICAgICAgICAgICAgICAgICAgICAgICAgICAgICAgICAgICAgICAgICAgICAgICAgICAgICAgICAgICAgICAgICAgICAgICAgICAgICAgICAgICAgICAgIAogICAgICAgICAgICAgICAgICAgICAgICAgICAgICAgICAgICAgICAgICAgICAgICAgICAgICAgICAgICAgICAgICAgICAgICAgICAgICAgICAgICAgICAgICAgICAgICAgICAgCiAgICAgICAgICAgICAgICAgICAgICAgICAgICAgICAgICAgICAgICAgICAgICAgICAgICAgICAgICAgICAgICAgICAgICAgICAgICAgICAgICAgICAgICAgICAgICAgICAgICAKICAgICAgICAgICAgICAgICAgICAgICAgICAgICAgICAgICAgICAgICAgICAgICAgICAgICAgICAgICAgICAgICAgICAgICAgICAgICAgICAgICAgICAgICAgICAgICAgICAgIAogICAgICAgICAgICAgICAgICAgICAgICAgICAgICAgICAgICAgICAgICAgICAgICAgICAgICAgICAgICAgICAgICAgICAgICAgICAgICAgICAgICAgICAgICAgICAgICAgICAgCiAgICAgICAgICAgICAgICAgICAgICAgICAgICAgICAgICAgICAgICAgICAgICAgICAgICAgICAgICAgICAgICAgICAgICAgICAgICAgICAgICAgICAgICAgICAgICAgICAgICAKICAgICAgICAgICAgICAgICAgICAgICAgICAgICAgICAgICAgICAgICAgICAgICAgICAgICAgICAgICAgICAgICAgICAgICAgICAgICAgICAgICAgICAgICAgICAgICAgICAgIAogICAgICAgICAgICAgICAgICAgICAgICAgICAgICAgICAgICAgICAgICAgICAgICAgICAgICAgICAgICAgICAgICAgICAgICAgICAgICAgICAgICAgICAgICAgICAgICAgICAgCiAgICAgICAgICAgICAgICAgICAgICAgICAgICAgICAgICAgICAgICAgICAgICAgICAgICAgICAgICAgICAgICAgICAgICAgICAgICAgICAgICAgICAgICAgICAgICAgICAgICAKICAgICAgICAgICAgICAgICAgICAgICAgICAgICAgICAgICAgICAgICAgICAgICAgICAgICAgICAgICAgICAgICAgICAgICAgICAgICAgICAgICAgICAgICAgICAgICAgICAgIAogICAgICAgICAgICAgICAgICAgICAgICAgICAgICAgICAgICAgICAgICAgICAgICAgICAgICAgICAgICAgICAgICAgICAgICAgICAgICAgICAgICAgICAgICAgICAgICAgICAgCiAgICAgICAgICAgICAgICAgICAgICAgICAgICAgICAgICAgICAgICAgICAgICAgICAgICAgICAgICAgICAgICAgICAgICAgICAgICAgICAgICAgICAgICAgICAgICAgICAgICAKICAgICAgICAgICAgICAgICAgICAgICAgICAgICAgICAgICAgICAgICAgICAgICAgICAgICAgICAgICAgICAgICAgICAgICAgICAgICAgICAgICAgICAgICAgICAgICAgICAgIAogICAgICAgICAgICAgICAgICAgICAgICAgICAgICAgICAgICAgICAgICAgICAgICAgICAgICAgICAgICAgICAgICAgICAgICAgICAgICAgICAgICAgICAgICAgICAgICAgICAgCiAgICAgICAgICAgICAgICAgICAgICAgICAgICAgICAgICAgICAgICAgICAgICAgICAgICAgICAgICAgICAgICAgICAgICAgICAgICAgICAgICAgICAgICAgICAgICAgICAgICAKICAgICAgICAgICAgICAgICAgICAgICAgICAgICAgICAgICAgICAgICAgICAgICAgICAgICAgICAgICAgICAgICAgICAgICAgICAgICAgICAgICAgICAgICAgICAgICAgICAgIAogICAgICAgICAgICAgICAgICAgICAgICAgICAgICAgICAgICAgICAgICAgICAgICAgICAgICAgICAgICAgICAgICAgICAgICAgICAgICAgICAgICAgICAgICAgICAgICAgICAgCiAgICAgICAgICAgICAgICAgICAgICAgICAgICAgICAgICAgICAgICAgICAgICAgICAgICAgICAgICAgICAgICAgICAgICAgICAgICAgICAgICAgICAgICAgICAgICAgICAgICAKICAgICAgICAgICAgICAgICAgICAgICAgICAgICAgICAgICAgICAgICAgICAgICAgICAgICAgICAgICAgICAgICAgICAgICAgICAgICAgICAgICAgICAgICAgICAgICAgICAgIAogICAgICAgICAgICAgICAgICAgICAgICAgICAgICAgICAgICAgICAgICAgICAgICAgICAgICAgICAgICAgICAgICAgICAgICAgICAgICAgICAgICAgICAgICAgICAgICAgICAgCiAgICAgICAgICAgICAgICAgICAgICAgICAgICAgICAgICAgICAgICAgICAgICAgICAgICAgICAgICAgICAgICAgICAgICAgICAgICAgICAgICAgICAgICAgICAgICAgICAgICAKICAgICAgICAgICAgICAgICAgICAgICAgICAgICAgICAgICAgICAgICAgICAgICAgICAgICAgICAgICAgICAgICAgICAgICAgICAgICAgICAgICAgICAgICAgICAgICAgICAgIAogICAgICAgICAgICAgICAgICAgICAgICAgICAgICAgICAgICAgICAgICAgICAgICAgICAgICAgICAgICAgICAgICAgICAgICAgICAgICAgICAgICAgICAgICAgICAgICAgICAgCiAgICAgICAgICAgICAgICAgICAgICAgICAgICAgICAgICAgICAgICAgICAgICAgICAgICAgICAgICAgICAgICAgICAgICAgICAgICAgICAgICAgICAgICAgICAgICAgICAgICAKICAgICAgICAgICAgICAgICAgICAgICAgICAgICAgICAgICAgICAgICAgICAgICAgICAgICAgICAgICAgICAgICAgICAgICAgICAgICAgICAgICAgICAgICAgICAgICAgICAgIAogICAgICAgICAgICAgICAgICAgICAgICAgICAgICAgICAgICAgICAgICAgICAgICAgICAgICAgICAgICAgICAgICAgICAgICAgICAgICAgICAgICAgICAgICAgICAgICAgICAgCiAgICAgICAgICAgICAgICAgICAgICAgICAgICAgICAgICAgICAgICAgICAgICAgICAgICAgICAgICAgICAgICAgICAgICAgICAgICAgICAgICAgICAgICAgICAgICAgICAgICAKICAgICAgICAgICAgICAgICAgICAgICAgICAgICAgICAgICAgICAgICAgICAgICAgICAgICAgICAgICAgICAgICAgICAgICAgICAgICAgICAgICAgICAgICAgICAgICAgICAgIAogICAgICAgICAgICAgICAgICAgICAgICAgICAgICAgICAgICAgICAgICAgICAgICAgICAgICAgICAgICAgICAgICAgICAgICAgICAgICAgICAgICAgICAgICAgICAgICAgICAgCiAgICAgICAgICAgICAgICAgICAgICAgICAgICAgICAgICAgICAgICAgICAgICAgICAgICAgICAgICAgICAgICAgICAgICAgICAgICAgICAgICAgICAgICAgICAgICAgICAgICAKICAgICAgICAgICAgICAgICAgICAgICAgICAgICAgICAgICAgICAgICAgICAgICAgICAgICAgICAgICAgICAgICAgICAgICAgICAgICAgICAgICAgICAgICAgICAgICAgICAgIAogICAgICAgICAgICAgICAgICAgICAgICAgICAgICAgICAgICAgICAgICAgICAgICAgICAgICAgICAgICAgICAgICAgICAgICAgICAgICAgICAgICAgICAgICAgICAgICAgICAgCiAgICAgICAgICAgICAgICAgICAgICAgICAgICAgICAgICAgICAgICAgICAgICAgICAgICAgICAgICAgICAgICAgICAgICAgICAgICAgICAgICAgICAgICAgICAgICAgICAgICAKICAgICAgICAgICAgICAgICAgICAgICAgICAgICAgICAgICAgICAgICAgICAgICAgICAgICAgICAgICAgICAgICAgICAgICAgICAgICAgICAgICAgICAgICAgICAgICAgICAgIAogICAgICAgICAgICAgICAgICAgICAgICAgICAgICAgICAgICAgICAgICAgICAgICAgICAgICAgICAgICAgICAgICAgICAgICAgICAgICAgICAgICAgICAgICAgICAgICAgICAgCiAgICAgICAgICAgICAgICAgICAgICAgICAgICAgICAgICAgICAgICAgICAgICAgICAgICAgICAgICAgICAgICAgICAgICAgICAgICAgICAgICAgICAgICAgICAgICAgICAgICAKICAgICAgICAgICAgICAgICAgICAgICAgICAgICAgICAgICAgICAgICAgICAgICAgICAgICAgICAgICAgICAgICAgICAgICAgICAgICAgICAgICAgICAgICAgICAgICAgICAgIAogICAgICAgICAgICAgICAgICAgICAgICAgICAgICAgICAgICAgICAgICAgICAgICAgICAgICAgICAgICAgICAgICAgICAgICAgICAgICAgICAgICAgICAgICAgICAgICAgICAgCiAgICAgICAgICAgICAgICAgICAgICAgICAgICAgICAgICAgICAgICAgICAgICAgICAgICAgICAgICAgICAgICAgICAgICAgICAgICAgICAgICAgICAgICAgICAgICAgICAgICAKICAgICAgICAgICAgICAgICAgICAgICAgICAgICAgICAgICAgICAgICAgICAgICAgICAgICAgICAgICAgICAgICAgICAgICAgICAgICAgICAgICAgICAgICAgICAgICAgICAgIAogICAgICAgICAgICAgICAgICAgICAgICAgICAgICAgICAgICAgICAgICAgICAgICAgICAgICAgICAgICAgICAgICAgICAgICAgICAgICAgICAgICAgICAgICAgICAgICAgICAgCiAgICAgICAgICAgICAgICAgICAgICAgICAgICAgICAgICAgICAgICAgICAgICAgICAgICAgICAgICAgICAgICAgICAgICAgICAgICAgICAgICAgICAgICAgICAgICAgICAgICAKICAgICAgICAgICAgICAgICAgICAgICAgICAgICAgICAgICAgICAgICAgICAgICAgICAgICAgICAgICAgICAgICAgICAgICAgICAgICAgICAgICAgICAgICAgICAgICAgICAgIAogICAgICAgICAgICAgICAgICAgICAgICAgICAgICAgICAgICAgICAgICAgICAgICAgICAgICAgICAgICAgICAgICAgICAgICAgICAgICAgICAgICAgICAgICAgICAgICAgICAgCiAgICAgICAgICAgICAgICAgICAgICAgICAgICAgICAgICAgICAgICAgICAgICAgICAgICAgICAgICAgICAgICAgICAgICAgICAgICAgICAgICAgICAgICAgICAgICAgICAgICAKICAgICAgICAgICAgICAgICAgICAgICAgICAgICAgICAgICAgICAgICAgICAgICAgICAgICAgICAgICAgICAgICAgICAgICAgICAgICAgICAgICAgICAgICAgICAgICAgICAgIAogICAgICAgICAgICAgICAgICAgICAgICAgICAgICAgICAgICAgICAgICAgICAgICAgICAgICAgICAgICAgICAgICAgICAgICAgICAgICAgICAgICAgICAgICAgICAgICAgICAgCiAgICAgICAgICAgICAgICAgICAgICAgICAgICAgICAgICAgICAgICAgICAgICAgICAgICAgICAgICAgICAgICAgICAgICAgICAgICAgICAgICAgICAgICAgICAgICAgICAgICAKICAgICAgICAgICAgICAgICAgICAgICAgICAgICAgICAgICAgICAgICAgICAgICAgICAgICAgICAgICAgICAgICAgICAgICAgICAgICAgICAgICAgICAgICAgICAgICAgICAgIAogICAgICAgICAgICAgICAgICAgICAgICAgICAgICAgICAgICAgICAgICAgICAgICAgICAgICAgICAgICAgICAgICAgICAgICAgICAgICAgICAgICAgICAgICAgICAgICAgICAgCiAgICAgICAgICAgICAgICAgICAgICAgICAgICAKPD94cGFja2V0IGVuZD0idyI/Psrc9HAAAAAgY0hSTQAAeiUAAICDAAD5/wAAgOkAAHUwAADqYAAAOpgAABdvkl/FRgAAX5ZJREFUeNrsnXecXUX5h58559xz+/aWbHpvhAAhlNBCM3SkK4qIoCACoqgo+hMLiorYFcQGokgR6b3XUBIgENJ72V5vP21+f8zdNBLYJJuQMs/ncynJ7t2755z5zsw77/t9hZQSjUazZ2LoS6DRaAHQaDRaADQajRYAjUajBUCj0WgB0Gg0WgA0Go0WAI1GowVAo9FoAdBoNFoANBqNFgCNRqMFQKPRaAHQaDRaADQajRYAjUajBUCj0WgB0Gg0WgA0Go0WAI1GowVAo9FoAdBoNFoANBqNFgCNRqMFQKPRaAHQaDRaADQajRYAjUajBUCj0WgB0Gg0WgA0Go0WAI1GowVAo9FoAdBoNFoANBqNFgCNRqMFQKPRAqDRaLQAaDQaLQAajUYLgEaj0QKg0Wi0AGg0Gi0AGo1GC4BGo9ECoNFotABoNBotABqNRguARqPRAqDRaLQAaDQaLQAajUYLgEaj0QKg0Wi0AGg0Gi0AGo1GC4BGo9ECoNFotABoNBotABqNRguARqPZXli9+SIhhL5SuzYCiAIlQBywgQpAFl8AJtAB5IAs0Ank9aXbtZFSbrsAaHYpbGAQMBooBWqAfsBAYGzx78JAbBMikS0O+hXAbGABsApoLP5/g768u9nM8FEKoVcAOz0VwAhg/+IArwHGAeN7vqAqalAWMamImJTagpAhSNoGpiEIivffMgTdhYCcF9BZCGjNBTRkPPLe2ufjFeBdYAbwHLBMX/pdfwWgBWDXZDRwAjCpOOj7AfVCCGpiBntVhRleFmJEeYi6hMnAhEl11KI0bhGPGJhCEhECIdZtAISAQgCOhHTOpz3tsSLlsaLb490WhxkNOd5vc3F8KYG5wGvA74FZ+nZoAdBsXyLFJfxJwGeKA77GMjAGJi3GVIaZXGdzSP8oI8pClEYMkraBHTaKu3y5drfvA0Zx4G/qtkpAyOKGwFBf4LgBnTmf+R0eDyzK8PjSDO+1OkhoAR4Hfggs1LdJC4Cm70gCI4GDgfOBiQJCVVGTIaUWxw6NMaVflEnVIfqXhzCFADfAC9QgDgJJAARSjWPLFNimuo8FT5L2Ago+BMUfZgBRS5CwBCFT4AcSx1fvYxpgCEHIABky6Mr43LcozT/fTfHymjyOL13gB8DNQKu+dVoANFvP3sBk4GRgOmDXxkwmVNtMGxjluOFxRpSHKIlZIMAvBOTdgKA4aW948yFiG4TCAteVzGsu8MrqAm82Fpjf4bAm7VHwJAiImAaDSkwmVIWZNijKYYOjVCQt3FxAzg16FgNICWFbYEdM3FzA3+d089s3OpnT5gC8DlxW/LdGC4BmC5gOHAecAfQvtQ2m1IU5bnicKf0j7F8bxrZV2obvBxQcSXHsbnopLyEaMggEPLAww93zUrzWkGd5t9erD3PUoCifn1DC2ROSEEDW2VAEBBAOG4RCBks7HK5/pZ2/vNNNAG1FEbhD31ItAJqP5hzg88ABQOnEapuThic4dliMvfqFKQ8bEIDrBLiBxA967smH3XQ1S6ccyVeeaOb+RVlyXrDFH8wy4KwxCX51VDUVYZOcE2zwc2VxexEPG/im4J/vdHP1c600Zf0c8BPgx/r2agHQfJAwcC5wMTDeFMQOGRDhggmlHDU4Sv8KGxFIXF/iuAFBcX3fm7sgAVNALG7xy1fauerZbd+Sf+fAcq6bVkU+7+MGm95qhEMCO27y5Lw0FzzawqqUGwDfKwqBZicVAJ0ItGOpAI4AfgSMTYYMcdjAKBfsXcL0IVFiYQPpQy7nqUHPR8/2m7yppgA/YF6r86FfFzIEUUuAhJwvcYNNPyyvrs7jOQGWKXB9+QEFEEIFFr1uj2NGJbgzYnDO/xqNlSnve6ikotv1rd850QKwY6gt7vEvBA6pjpkcNiDKeXslOX5YDMsyyOV8UrmAbV1rCcD1JHbY4MghUW6d0427nphURAxGltkcXB9mVGWYQeUhAFa0uzy/IsvLa/KsTG0YJ9i3XxgrZFAoBJtdhgjAl5BJeRw8KMafptfw2QcaIx2F4FeobMLn9GOw86G3ANuf84EvAIckbIMzRif4/MQSDhsYAdOgkPcpOBKjD8uypISQqY7zfvF6B7fNSeEHkoPrI3xmfJIp/aMkw4bawJvFb/KBIGBWk8sf3+jk/sVpsm7AJ4bG+c3RVdQlLfKFjxYoKdWRYrzU4taZXVz4WBNewELgKGClfhx0DGBP4QTgSuAo2xScOCzGVyaXccSgGEKo5JqCK5Gszbfp4xsPtiWwDcGSbg8fybCEiRU28T2J50t8X+IXb79pFHMFijP9nE4XJwgYW2pTEjJIe71fnfQIUMQ2+OqTzfxmVhfAn4rXo6AfDS0AW7OylbvINR8JfB84SQhKpg+N8/X9yzhgcJSEMHC8ABOJaYq1I993A7KupK8vswRCBoQttbxwfBVYlMVMv00F8wQQsgRhS32B60mVK7AVPzsZNmjMB5xxTwMvr8m5wInAE3pYagHYHBFUmms50L8YNBsG1BVnDguVctqEqkxrRaWjNu8EAlFV3ON/B0juXWNz1ZRyTh+VIBoxwQvAEEgDWro95rU6tGR9QqZgSr8wdXGL9IfssXfJ/aWAeMLi7ve6+fQDTXiBfAOYBmT00NQC0EMlsF9x5jwAle9eBuui1BFLrJ21sm5A1ivOYop3gEeB94A3gfkfw3U+DpUKu//gEosv7l3KF/YuoTZhIb0AYQpyPsxck+eRRRleWZPntcb82kq7E4bFuWV6NTUxi5wb7EYPH0RsgWMIzr23gfsXZQDOA/6ph6YWgH2K++RpwJEANTGTMRU2w0othpSGqE9a1ERNymMmQaBmlKaMS2MmYGWxUm1+u8P7bQUcH4qrgxdQEec7iqGt7b3c/yZwYdgSXDC+hC/tX8bedWG8nA+GwDLg8cVZbnq7i2dX5ugqbHqA/3JaJV87sIJszieQ7FYikEyaPLIgwxn/ayDnybnABNaVIWg+RgH4OI4BRwDXAocAgyujBofWRzluWIzJtRHqS0xqkyEVSt7kZ4+qPzfAcyWrOl0Wd7k8tzLH40uzI99oKoxE8nngIuAWtt8Z9MXAV4HRk2vDXHNwBaeMTiAMyKY9ohGD1mzANc+3cde81GYHfg+t2WBtsGO3QkAhF3DMkChHDY7x0OLMKOAU4H96eO4Et2cHrgCs4sC/AOg3tjLMp8bGOXVknCFVNkmhElICKXGDYgWrVBVt639EQ/TkvwsMoYJcwhBIoM2RvLI8wz/fT/PgogwFX+ZQBhZX0Xd163XAz4FzoiER+vr+ZVyxXzlVMZOCG+B6kkTM5N3GAhc+3sTrDR8d9K6Omtx+Yh3HDouSzu/6E6Moni76cl01cjJu8tD8DGfc30DBl8+jEqI0e8gWYCCqVPS4iojBN6aUc8HepVSXWQSFAMeRBGywr99ilBgIQhGDwJc8vzzPjW908MTSLE4gC8B1wG+A7m34PY4H/gAMOXRAhB8eWsXhQ6PgSNJugJCQSFq8tjzLZx9uZmHH5jPxbENQGTUZkDT5zoEVnDIqQd4N8AK5y68C4rYgQGAKSBcCVZhkG2RcybQ7VvFWc6GhGDd5Rw/R3V8AxgF/AQ46dnCM7x9awcGDYvhuQK4QIEXfLnsDIGIK7LCB6wb8fU6KG17tYGGnC/AI8G2Uv92WEAMuAW6IWYILJpbwg0MqqUhYZLIqbVcCJVGDJe0un7yvkdktm575KyIG0wZG+cTwONMGRBlcEiJkQc6RavDv4qM/HjJ4clmWR5dmOWN0nAPqo+QdtapJJC1++Fwr33+pHeCnqBMTzW4sAGOAe4DxX963lOunVZEMG2Sy/tqg3nb5pVGuNuGQIBSzWNBc4AfPt/LveWlQ2WhfK36u3gb6rgdOG1Nh88NDKzhzXAmeF5AvHtupYhiDnAw4/Z4Gnl6R2+QbnTgsxlcPquCoARFVaucEuL6k4O8eUT/bVLP+qf9r4KElWY4bHuO+T9YhAkHOk5TETV5ZnuWYu9eQdeUC4AbARRVHpVB1Az0vzS4eBIwDNwHjL9mnlF99ooZQAKmUDwbbdaYTxX/kXUm+y2VUeYi/nVrHpBkd/PDljoFpN7gddfx480e81TRUBtvoTwyN8bujaxhZa5PN+HieSt+VgGGAHTH4zUsdmxz8ArjmoAquOriM0ohFLufj5by1f7k7BP4kyli0I+/TlleHL0lLYARCmZUIyOd99uofYe/qMK+uyY8C/rzeW3goL4EWVH7HXOBZlOVYtx7K24ftKQDXAYefOCzGjdOqsH1Jdz7o05z33gSjJJDK+sTCBt+YWkn/hMVXn24Nt+b83xaf2z9v5ttPA/4ioPwr+5Ry7RFVVEQMMmm15F/7e0iIRUwWtTv8/d3UJt/op4dX8o2DKzH8gHTKUyuU3S3cL8EwBY2FgOaMEoAxlWGsiEk64yFQuVBhS/CdA8uZ1VygLmaBhLTr01kIrAWdbu3yLq92WZdLc9Y/IpCcVxSE14BfAG+z/Y92tQD0AQcBZ/VPmFw/rZpIyCCV87dLzntvVwM5J8BwA86dWEpd3OSzDzXbDRnvJpQX/vpHhSHgUuAXZWHDuv6IKr64bym+E5DO+muFZe0FNEAY8NC8DHPbPxj0u3zfUq6aWoHv+GRdudvM+JsSWwxY0uGwpigA4yptMIopxsVf2ikEHDcsxgkj4uvMRwEpwDcFbiFgabvL7LYCzy7PxR9blos3pb0hBV+ejsrx+CXwkl4V7LwCYABnA/2u2r+c8f3CZFLeTjHjBRKyWZ+jRif4iwen398g8p78J+vKVW1URt/V/eMmfzq2lpPHJ8hnfVxv0wE60xQ4AcxY88Gl/5jyEF87oBzDlyrXfwcvyde3/N7ehEyBFPDk4iw5T9I/bjKlX5hg4/wHATl3/YZEG28jYGx1mHH1Ec4Zm2RVyuOppTnumpuyXlydPzLtBkcCDxWF4Dk9hHc+ARgMHDesNMRp45L4hYBAsl0KXTZ4hno5s/qBJJ/yOX5cgp90VPK1Z1pB+dt/EvgUcPW4Cpubp9dwyNAY2bSH/xEBS0PApuJ4nxyVYHBFiGzG36GDP5AQsZRDD4VAbb228wcI24KFbQ4PLlZp/lMHRBlYYZPP+b2+9wLwA0jnfWReiUp90uL8fUr47Lgkjy7P8vd3uvjfosyJUnIk8HdUbsnO5kQcBqpZ14UpAQwH2ouTTQFYU3wVdjcBmASMOmFYjIFxi4Lj9/ngF0DYFJjrPdW+L3GKVtjiI5aqri8RaZ+vTilnWZfHb2d2jgUeBIbsWxvm1pPrmFATVvv9j5hBPV8SsyWnj07w2NIs6WIu//gqmy9MLEG6quR2RwpA1BK05Hz+NyfFftU2U/pHyBa2X4KRKdS5/99mdbOs28My4PPjk1iB3KrmgqIo5l4gSefUyitsCU4cFefIYTEenZfmey+3x+a2OZei6keuQHUu+rjoj+rMNLn4SqL6MFYVt5SRoggEqP6LbvHf7UAX67otvbKjYxzbQwCGAxw+MIYhJH15wmUagqgtwBSkMz7tGQ8QCCRlEYtk3AJfkisE+B9y/CEEFNyAcNzk0n1L+evsLiPjytETq23+cWItE2rtdcG6j1pRSMjlAs4cm6A0JLhvcZaamMGnxiYZXhEikw+22+A3xLpMu3WDEUJhg5tntPPjVzsYlAzx5Dn1jKiw6M70fRBWSkk0ZvLMkiy/e7sTgOOHxDh8SIyCK7dZ6HsuXt6T5D2fSEhw+sRS9q2P8NOX2/nru92TA8l/UV4D/9lB48ZAuTydikprHg+UCUgkbIOaqEl9icWQEosS26A8YlATs+gs+EZLzq/MuJLFnU7dyi6fxqxHxpXHF8VgJXA38Dd2UB9Gazu838CqmEl9idknBbprnWdtA0cI3mzI8eSyLM+vyLOgw127HRhdEWLaoCjTh8YYVxshKiU5VxlfbDyDBxISMZOWTpdvPtdKxpVMrA5z+ym17FUTJt3t93pL0RPdFk7AccPjHDs0hiEECEk6H/RKRLZm+2MbgnBIIAP1e/psaJpQn7QIJCzrdvnyE83cc0odJXGT1CYCmVt7X4SAZCLE8jaHrz/TQsaVJEOCK/YvJ1bM9+jTYC5QcCUFz2VI0uKm42qZWBPm6ufb6jJucFPx+due/oNVwMTiimM6ECq1DTGk1GLqgCgTqsPsXWUzttImEVIPkIFKWe+53n4AEpX5milI3m93eWF1jhdW5CpmNuYrWnLB3sD/oY6ofwks367B2z5OBIoD/xpbaZ9y7yl1jKm0STvBNj1kIVMQiRksanW58bV27p6fpjUXgGpOuQJ1fhxC+QbUV0RMzhod56JJpezbL0LgS7LrZRwGQCxs4AnBFx5s5N/vpxhSavG/M+uZVGuTSvsbPHBb+6Buz9Qe2xI0pD1ufS/FyLIQnxyVQErwpUqnjoTUKulLjzbz93dVsPyk4TH+elId1XGLbNrHl1ufdSgDsG1BOGqxuKXA5x5u4uVVKgj640MrueawCvJZlda83YKcUuUdROMG/3kvzZcfa6KjEOSAL9H35cajgWOAzwGT4yGDcZUhDh8Y5dgRcfarClORNAGBdAPyrlzbdHV90RbrPyRSrdbCIQMRNnDzATOb8zwwP8N/F6R7JrcmVN3Jragcia1aoe1IAUgCd02qCU//76l1DCu1SDtb9xAEEqKWQShicMe73fzo5faeY7Y3gHtZ5wHgF5V/P+ATKD+BybVxk0smlXHlAeWUhNWWQaKy1cIxkx8828q1r7TTL2Fyx4l1HD4iTrp75z+jF0A8ZvL71zu57OkWhpWGePzM/oyoCJEqevZJCdGIQcoLOPveRp5clgXg6EFRfnlMNRP7R/GyPlknQBi9F7ug+NDGYyYYggfnpbn62Rbeb1crsc+OL+HmE2sxfUlhox4C208EIJoMcc+73Vz8WDNteb8LOBN4so8G/udROSEjq6Mm04fFOGNUgsMHRymNWmCC76isUP9DGrV82DUFJdp2RO3PFrS63P5OFze9001Lzgd4BmWx/srOLgA28KdBJdYF93+yH5Nqw8rlZiuWuGFTYIdNfvpyOz9+pY2sJwNU/vhNxUjq5hiI8hn4NRCePjTGr4+pZnSVyuCLRU3+9W43Fz7eDAhuO76GM/dKkkn7HxlA3GkEIGJw/YwOvv18G8NKQ9z3yX7sVW2TctbFG6SERMSgMetz2RMt/HdBGoAhJRZfP6CcL04qxQ4JnJyPK9lsIVbPA22iOgFhCd5rdvjrrE7+OrubVHGff8k+pVx3eBUlIUG2EOwwEZUUV4kJi1tndXLZEy2knGA5cPg2LJ9Lga8UZ/yRg0sszhiV4Ny9kuxVFcYyBYEvcT2JUwxy9cWWCiBkQsQ2wYBZa/L89NV27lmQoRgT+D6qxL3PBKCvYwAOsHBVymNFl8ekushWzvyCkG3wk5fa+L+X2vAlzcDlwJ29eIuVRZF4CfjhY0uznzzl7jX86RM1TBuXZPbSDF9/tpW8J7nxiErO3KuEXNbbJQb/+kSKJyCGoQw9NxXoTOcD+sVN/nZyLUOeD/HbmZ0s6/a44qkW/js/zWfGJTlpaIzKuKlOVAyxrpNwz8j3VZFSd8Hn2VU57l2Y5YGFaZqK+/uysMHVB5Zz5QEV2FKqVYjYsYLoeBKZ8vjcxFIWtjpcN6NjMKoA7dgt3I2ZwGeLe/Ch1TGTL+xVwoUTSxhSZWMGkoIjyTvBOl/FPvpde97H9cHNKau4fQdG+NfAeo56vYMfvtLeryHt/x5lk/fzvtplbo9TgCWBhKeWZzl5TAJTiA+NyG+8t4yEDQxb8IMX2vnhS20EsATVRWfGFn6O91Btt74/v8O9+guPNht/8CV/fquLpqzPp8cmuWRKGZ7jq3N+di389adAufmHKpULSIQNfnFkFQf1j/DDl9uY3erw3Iocz63IMbjE4oiBUfatizAwaVJmG0RDBiknIOUELO50eaelwBsNBRZ1uuuWrKbg8EFRrp1awYGDoriFgJT78VQzGsWjXdsJuPqgCl5cleeFVbmjUYYtv+rl20xEFScdXRo2xOmjEnxzShmjasKIQJLLB/jrxTTEdnJytixB1DLAgnQ2oDnlMak6zNT+Ee5ZkLFRhWlJVMKau7MFAUEdAz5Vn7CGPHFOPeNqVGDto96ixz/OCptc90Ir177Uji/pQGUVbut+7gfAt0OGCLmBZHylzf1n9mdoaYhM3t+lBr8pBJGQ4OvPtPKrmZ3sWxvm4dP6URu3lCfB5pbJhiASMVjT5XH7+938a06Kee3u2iXs+oOpxDbpLGw6gj84abFPbZizx6vVQzxsks37a08hPk6khETU5I3VOT5xzxo688F8VD+C1R/ybRXFwOE1QPzowVG+eVAFxwyKIiXknWC7H8yrYHdx6Q+82+by7JI0Ty/L8OrKHC2bHua/QJVTeztTDKCHa4AfHz8kxu1n9KMsZJBJ+yoSLz74cPYU1JgmXPdSG9e+1I4naS3emHv76DrfDFwYNoRx72l1HD+mhHTKZVdCotp4B0gOv2MVrzUUmD40xkOn9ycIJHn/w9ONZaCCg1ZYsKbb5/klGZ5enmNBh8uKbo/Ogr+BdVmJbVAeNRmStBhUYrFvbZgjhsXZqzKEaRsUMj4FX34sNR6buz4GEE9afPupFq6f0UFx3/zDzXzLUSh/iKOGlFp8fXI5n9+3lLhtkM36eNv5d1vbRCWmymNnrM5z+7vd3L8gxaqMug8DBg1k8qQJ1A/oT11tDXnH4/Z/3sHyFasAvosqutvpBKAK5f++z9ljEvz6E9XUJUMqp369h1TKYlQ+bpLJ+vz45TZueL0TT5JBucfe24fX+6fAty6YUCL+emodhayP4+1aBhxSQiJsMLs5z6F3rCblSL65fxk/O6pKJT8FvXzoDNXRF1NAAE0pj4aUR7cb0JEL8KQkZAhKwwZlYYP+CYvqhKmCDYHE8VSUf2csbJJSBUkXd7oc9q9VNGb8hSj3ocUbfen/FeNKlaePTPCDwysZX6dqFzKF7f+7yWL1ZDxmsKzV5VdvdnDX3DSNWR8zHOW0k6dz1uknMX6vfRkyeDDReNna733p+Sf41Lnns2p1g4PqOnX7ziYAoGoCngRG7l1t892plUwfEiMaMTCKy87AFGRyPs+tyvOr19t5fmUeCUuLEdhH+vB6HwHcOaQ0VPPiuQOoS5jk8gFC+uAHyJ5NtFT+ghgGGOZOKQDJpMX1L7XxnefbSNoG/z21jqOHx0hngy1/AA11lh4yKCYvFcNqYr2l2Xo+jUEg8XrRnvzj3yZBNGzw7efauP61DlBHef8o/nU/4EbgnP5Jk6unVPD5vUtIhARZR3VL2hG/WyxkIC3Bf+Z0c+3zrSzq9sEM8eUvns/nzv88E8ZPIBaPF6M9HgR+8ahAglnC44/ezxlnnUs6ncmijr9f2tkEAKAG5aH3CUuQHFNpM7kuzJASC9M0WNblMrOxwJxWBzeQOeBlVHONvsx+CqESKT71+6OqufSAclIpBzwXEYli1dQjKmsRkQjS85CdbfhrliPTKbDtneZJ75nZOvIBR9+xirdbHCbVhHnu3HqSIUOlHIvt97MNoQJUpiE2WMH5gcq23B4FX9tCImLyVkOe6fc00Jz1Hkel7U4A/gWMAvjBIZX83zHVuN0ueW/7V2vK4gSTiBi0ZwK+91Irf3yrC4Djjz+W733nWxw49fDiF6fB8zfa4PRkEFlglPK73/yCK7/2LfxAvo7yq2zbUgHY3rbgzaikjBM9yQXvtTqj32t1qlFuPKAKIppRWX23A//eDp/hCOCT+9SEOXdcEjfnIZ08VnV/7H0OxqiqQyIQQiClKvszO1tx33iBoK0J7DDb5FbaV7OaITCiJv95p4s5bcp34JOj4pTGLLJpb7usV3vSfRMRA2EJfF/S6bE2i9AWgtKQQTgC0lMZlzuLEHhewLham6n9w/xvkXcM8BNUtWddz9d05DyCtKfSxbch7rDhf/TMmhveErXiEsQTFvMbClzyRBPPrsxRVVXBlVdeydevuoKwnYCgGzxvExdRrPu350Eoy4UXfZmZb87k1tvvnFLc0lyxpZ9/R/UFeKj4GlLcGgwq/vlq1JJ/6Xb6uWHgLCGIXLFfKWUJk0xXFquqH+GpxyJKypGFHARy3TZACIzKOkKTD6XwwmNQyIBlf+wiEIsaLGrI85vXO3EDGFoa4vN7leA6AZ7s+wajUkI0JLBsg6UdLs8sz/LiihzLuzzc4nFYwhYMLwtxyKAYB9VHGFIaUmavruxzs9ctxQkgFjE4ZECEB5ZkDT+QV278Ncu7PfJOgGmKLRKBnkfBMFRNhik2XCVLJH6gjiaD4sRtGhCLmTyzIMWXn2xlfofDPpP24sYbf8kR044BmQe3jV755QkBXpZorJIfXfdT3nhzFu/PW3h5MWb2/M4oAD0sK752FKOBTx/cL8IJYxJ4ro80Q9h7H4gorUBmUh/c0EoJ+SxmZR1mv0F4C95BmKGP7UEOpLLZzjgB33q2jYXFAqhrDixnYFmI7rS/HSr81ODxfcnvXu/kj291Mq99cycmOW56p5vR5TZnj01wxeQySqMG2XzwsSZX+b6EAI4YFqffzC5WpT54WtaY8cn6klKrd59SojKFIhEDwxLgg+dJcm6Au16jIwtBPGRgxwykrxKHolGTJxamOffBRlrzAaedehI3/vo3DB48FLwOtccXW3IjDfC6GDhoKNdc8y2+cOGXyRec64GD2YIkIYvdm9OB2Cmj41TFLTJtacxBIzDrBoCT/0ilNWJxJfNy0+va7d2yOJAQDwmwDa59soV7F6p03rNGJ/j0hCSFvL9lz0wvn/Jk1GBFyuPrT7X0pKEytT7KiSNiHF4fpTJqEEhY0unxWmOeJ5ZlmbEmz7Uvt/PUsix/Ob6W0VX2Wgu1j008fcmQEov+MXOTAtBeCHCUR+2HPwdCBUvtsEEArGl3mN3m8XZTnvdaHRZ0uLRk171/mW2wd22Yg/pHOG5YnCH1EWYtynD+w0205gPOPO1kbv7L3ygvrwS3vSf6vBX3yoMgw9mfOo9//us/PPbYU5NRSXO3awFQ+dznDy2xOH5kAly1Pw0NGAZmCFn4CAHoSYndaA7rCcUkbAMM8D1JzpN9WvYrpdrzJ2KCVEHyvcdb+M3MTgCm9Ivw86OqiFqCdL5vA1eq0MhiaZfDp+5r4LWGAgMSFjccVcnpY0owDYF01p2ajKkIcdzoON87uJy75qf52SsdvLQ6z9n3N3DHiXWMrQqTKnxMiVbF1uYVYYO9asO83vRB4x1zM9uUnnsZMott0oHGXMAri1M8uCjDC6vVVqh4mNWK8pV0UcWmYgXYs1udstvnpEqGl3dy5tgSnlySoTEPZ55+Mn+66S+Ul5eA01Z8Brf2Chng5TDtGN+66qs89dSzluf5F6JS5t09XQD2BQYdVB9hXFmIXDqPKK3AqKoDN9+7J0gGH9j7C6HSYF9vzDOv1eGEEXEqExaZjP+R7kG9WWIKqcqVzYjJ3DU5rn6+jQdUV13GVoT46/E1DC6zSaX71mdRonID2rIen32gidcaCkztH+Hm42sZXxcmX1wubxxrCByfsCn49D6lHDwgyiWPNvPYsiyffbiJx86upyxiqCNXscPHP44vCcdNxlTZvV6tSQkhSxCJmBAEvNtY4IFFWf49N8X8dqdn0M8GFqG6UT9V3Na2rvcjqoADJZy1qMM9+qevtPUDOPG4o/nHrf8mFo+A27GFs77c9H8LAX47hx95BIcdOpVnnn1hEqoY7r49XQA+bZuCowbHESGB4/nYZVUYiZKPnv1RI1Hm02pvVtwGSFTnm9aczyVPtDCrqcBxw2L8YXotQ6tsMilPnSNvgRCs720YDQmsmEk6F3DbjHZ+9UYni1RHIw7qH+Hm6TVMqLbJpL0+v1ihorvQd19o5eXVOfavDXP7qf0YUhYi062KpTYVaDQEOIHE7fQYUmnz1+NrmX7XamY2Fbju5XZ+dWwNITNYmz+wQ5FqTh5YYhG1DLIf8iF6dD4ZMSBk8OqqHLe/083DSzIs7/ZA+fc9ijpvf6L4/5ujdb3A90GojL3ju9MZurvbicX79WLWX8/RVQgwbZSzmLnR90rAR2Bx8UWf45lnXyhFddveowXAAo6pjpkcNTiCLAQYholRWt67eUAYSNchyGU3UGllWimJmYJR5Tazmgo8uiTLyXet5psHlvOZsUlE2MD3JIUeUwjx4bNU2BKEDGXg0Z72uOf9FHfNSW3QYOQLe5Vw7aGVDCixSGf9vvcskBCJmvx3boq/zk4xKGnxx+NqGFJpk+l2PzKiL1C23pluj/4VIa4/oopzHmjgpre7OGtMgoMGREjlgo/neNALGBC3CFuCrPfBGEvP54/aBiFT8F6rw59mdvC/hRkalL35IpRp7HNsXS/DV1HHjz974cVXL/7alVdw8y3/IJkIg+ds+mYYFpjR4mBXHzKXbmXp0nnkcgWamltIpdPEYzFqa2uIxyOMGDmK6ccdx94Tx/PO7DlTUWXxK/dUARgGJMdX2QwuCeE4PlgWIlGK9HsRmBJCBQkdh41D7HlXErcFfzy2GtuE2+akeK/V4aJHm7lrbpqLJpZwyIAI5XELYQnlF1ZM4hLFbRvFAS8DSSrj806HctN9YGGGd1sLa30UR5XbfO/gcs6cUEIYqey8+vh4TTkIGXQVAn4yowM3kFw+uYzJA6NkU26vg5wCCAQUsh7Hj4pzysgEt89Jccs73Rw0IIplwA7vgCZA+lAXNSkLG3TkN7z3NVGTmC0wYiYdnS5/mtXNn97pYo1aYbWhcgfuYNv9+bqBbwKD/3Pn/4478sgjufCLXwHRvm4+EgZYYSAKFGhpXMmsWe/w8kuv8fqst2lcuYampiZc36XgOPi+j2mY2GGbkGlR368f9UMGksvmAfZBJT3tsQIwTUDisPoomEJZUxkCYvFePjgC6blIz2Vt/6/1tCHjSEojglum17B3TYRfv9nBypTHQ4szPLQ4w6SaMMcMiTG20mZAwqBfPER5REXOm7M+LTmP1emAxR0Oz6/M8lpjYYM8/sElFp/bK8nFE0vpV2rjOD6p7ZSiKgSEbMH976SY1VRg7xqbz04oQeaDTdqhS8ASqoZDAgVvnROzqs2HsBCcO66Ef81J8fTyLAvaHEat51i0I/GlJB4SxDZx1FefNIlELR56P801L7Qyu8UBZcN1C/A7VJJaX5ECbpRw+O//cFPs1FNPpaqmEnwHzBggaG5u4YXn7uGF51/irrvuo6m1+ONNIARWwkIkBLGqKJFYDC/vkm7N4HcHNC9qZda8d3tqAwXqCPzRPVUAjjQNYe9dGwYDgiBAmCGMcBSCLRwdm/njTF5iGvC1g8o4fniM377ZwRPLcizudHm7ucDbzSrqbBlQGzcpCZkEEtoLPu15/wOFO3Vxk2GlIU4fneCM0UkGVVoUcgGprLfWJnt7BcuCQGIagglVNl/Zp5SahCrO+sDgL64WQiY0pT0ilkFp1KTgBDjrCZSX9zmof4RxlTYLOx3ebCkwqjYM+R1vvNDjA7mpxUfWlVz2SCO3zUlR8GUeZQ1/LfD+dvo4TwF3vTN7zvnPP/s0p5/9OTCjzH3/Pe6++9/cd+/DvDVbNa6OVEeo3LuCygkVVIwvI1obI1IWxrBNrLiJaRkEvsTLeng5D6fbodDp0PR6M0vuXUbgBAegrMjTe6IA9I9agvqECVLNVEYoRF8emguh9pDpjM+Yaps/HlfL3OYCjyzKMKOxwNtNBValPPK+ZHXKZ/VGVeXxkKA2bjGuwuaA/mGOHBRl3/4RImED6aEsynZAWq0EcvmAT46IcdjACP2iJrncB5N4egxaJZKfz+jkgcUZEiGDz+9VwtljkwTSV554xaaspSUWxw6NMedNh1lr8nx6bPLj2QZ8CA8tyfaYfMxA1dffuwN+7H3AaU8983zJ3vvsz51338lf/vx3lq1Qq/Xq/aqonVJDzf7VlIxIYtomZshESomf95G+JPAC/IIPQmAlQthlNslBCexSm+r9qmiZ2UrXwu4xqH4FC/Y0AQgDdn3SojpqEviBOs4LR4veWUGfD6BUxidkCcZW2YytCVPIByzLeLRmfRq6PZZ2uTjF8R8PC4YmQtSUWpRHDQZETBJRE6RKH81m/LVL7x0VNAukMgwZmLTIuxJPyg/EmQ2h3JqufbGVH7zcsfbvXlqdxzLg9PFJ0sWegFKtvdmnxgZgTqtDzgkImQaet+O3AZv7ecXBfw2qUnDNDvo4jwJL7rzr3knPPfcC8xYsBgEDjx3AoOkDqBhfgV1iIaUkcCVu2sVxHVXUI1QXjA3ujBvgFas2nbSLEIJobYyuhd3DUf0K9jgBqAFKBsQtKiImvrcNKTq9qZQs/sP11/UgsA3B6NIQo8tDUL+ZE+hiZafrS7J5Ndv3JBzu8DNzobrwpAqSTaalSIjFTea2FvjT210I4HcDa2nxfH7Q0Mr3X27jkEFRqmyDrKceVOkGjChTArAm7dHsSgbFDJWesoN/v83cxReBq9nxHYUcoKGjs2tSR2cX/Y6oY/TZI6nYuwJDqO2T0+1uaPUmPrwiV/REhn2JETaI18VA2YaN3hNjAFHAituCmCnI95z1bFExj1R+AJa1LnwvezfLSAkFX1LocYvdRChhbZJh70IOH/tMKQBhCV5vKNCWkxwYj3JpvwraPZ/Hu9PMaM3zwvIcZ45LIlx1UlHwYXh5iLKwSc4NKARyxxcGFDMqW3Iq7rJeRP6PKJeg3Md0qd8QQkwfe8FoMfYLoxGmwE25uG6w4Y3YwuslAzBsg2jNWjPekR/1PcZuKAD1QGll1CSwhQq2CSCfBb+XznVSIqIxjEgUfG9bn0ECueFL7kIXUwIhC3AD3mss4AeSw5IxCAIqDMG0ZBwBvNaQR3rrMgUlkpABFRFBlyPpLjZI3eEiFxKsyfhklH35ClSu/Lc/xsEPsBQDN1wWRhiCQnuBwAu2atBvKAASYRqEkmuL18btiQJQBSRKIwYiJAikVLX+vsdaL+eP3BQHiFAIIxL/UNfdPQXTMAh8WNilshLHRUNrHXL3iYUJC4O57Q5uIDHWKQCWIeiXCJF2A7I5f1uf763DEizpdsmqGubrUNl5HzcNSNzA8dcN/OIqS25r2bkfYIZNlYPyEYahu6sAeIDvr7/OFirPVeazvZ+CAokoqwA7pNKB91Tkuova0+Wp3DTWXtqEUPvIvL9ul7Vh1rrEFOs6Ocsd+LFDpgBXMrfFwVftE1/eSa5qMyp/FwIwoybhijChRIhIeVjt97fyQgUSwiU2VqR3lna7YwwgB7hB8fBX9Oic7yOzaXp1baVaqxtV/RBWCOk4iHBkp3AG+jjjAz2T+/ot/9yewbYZXfUCFW3vWTGIHSUCEuyQoDPnM7Ox0DPolu8kl7MOsKSUWHGT1LIc8/+9iGxDltop1dQf1h+/4CO3sreiLPaI3FMFYCXQ2ZTxyylILFMoJ2LfR3Z3FM0+e1EpKX1EshSjrJKgcdUePfg3syhQ2wOhDqb8TSiGH0BHPqAqalBVFtqhKwABGJZgfpPHMrV1eRFVtrtzxKkkIStm4RcCZl7/Ns1vtACw6snVBAXJkBMGUuh0tmrPJITo9UJ3d9wC5AAn6wT4fqB+QSGQgY/MdPf+IfeVS6sxYJhKIJLBHj/oe5J4LCHWZtfV2iHChmB12sML1uUPBFIdh/7wkHK+P7WSIXGTXCHYYQJgFovmnlqcplHlJ/ybvk4C2YY4lWELM94/zoqHV9D8Rgv77j2RL134Ofy8z/JHVuCkXYyIsRWDH9yMh9/Lnpy7owC0ANmmrE9nwVcPAgIhDPxUJ0EujTB7sT+SEoHEGjAcUV61zacBu/LaX0qV/18WVo9LxleVfVIIbCEwgJSzrjvuul2U5JzxSS6YVIrsyZPYQR87bBp0pHweWZIF5T05cye6qpOMkGkgJMufVn1ur/vptdz059/Sr7KO1Oo0ueYcVtjc4iWTMA3crEugjhRDO4MAFEsZ2FHGemkgvTLl0ZqXGD2WXlaIoLuDoLOt106/0nMRyVKsYWPVfmwP3QZIKTGEYEBS7RiXOZ4ayHLdlLo5d51UNiC1PUqYP0K0DBOeXpZlpnIC+hPbXtHXlwwIxSzybQ6tb7UxedJE9p9yMBKb2poqfH8r9/8CpK9Shoss+jgEoArVqODPqKKK+cC84msh8CxwEcodeHs8EhLIdRYCmvMeokd2DAMKDkFbC71+GmWA8FxCw8dh1tQrI5Fdro3odtj9b8El+DgyG0NC0O0F/GV2NwVfdqEMPHaW5X8MSEbroqRXpQkKAYcdPpXKihqy3V3kCwUMw9iqXhzCEEg/wOl0ei0AfRUEjAMHoEw4LwTMeEiYSdugxDYJW6r2PeNJugvBiLa8fzhQAO4CfgPM6uOLPNML5DGL21xx2KB1D6AIhQjWLEWOmoCwbKRb+IinUyBdBxGJEtrnYILnH0I6BYQV2iOHf08MwNyELKx/SvBxE46ZPPhuiseXZUHV87+xE13GiUBNclCSzmXdGEKw376TQAg838H3g82nivZCAAJXkm/Lg4p0L9neAmAA04ELgNMFsFeVzcEDohw1OMrE2jBltoFAIITElbCs0+ORxWnx6NJsZGZj4TyUW8rPUTXYfXVM86gv+fKbDfnSz+9VgmX0eAKYBJ0d+G3NWPWDwevFEysEspDHrKolNGZvnLdeBS0AxYEvSRgqDpByAzrzAXUJ82Oba4Ni96T2tMePXm0H1XjmrzvZZZwK1MXro7S+2EptdTWjxk4AoLmpmdaWNkLVNmbURG5h6aSwBJ7jkWnMgSpuWrw9BWAf4OvAuZYhOHZwlE+NSzJtUIz6UmvtIxIE68+ngn4Ji4MGRbhyis9/3k/xuze7QvM6nGtQrY1+AtzTBxd5NpB9tbFQmvcCQobADUAYBrgO/rKFWLX1CMNE9jLJR3ou5oDhmEvmEWRSYIbYE1IERXFgYUBdzAQB7X5Q/HNJTKjGGFlH0poLqE9aH8t1kRJsA0zL4MfPtDK7pRAAv0UZd+5MjDEjJlbUIrMiy6gRw6jvXw/AkiXL6Mx2UVlRgZ20CbwtqJ+QYFgGbtql0J4HWNWbCXVrYwBfAv4HnDu1PsK9p9TxnzP685lJJfRPmOTyPumcTyobkMmve6XzPqmcTzbrU2obfHlKGQ+c1Z8vTypBCPZB+Zn/HtWzfVvoAjLLu1xmNTuYlrGB9ZK/ZglBSyOE7C2Y/nyMRAlG3UDlFLQHhQKCYpliddREAI2Oh8E6s42evb7xMZ0p9WxBIjHVOq3Yb+81VI3/zkQVMLZkWBIzYiHTkv51dVRXq055c+cvQiKJ948RSqouS1ui1D11BU6XQzH21ro9BOCXwG+jlhh83aEVPHBmf04alyQaQDrtky4eB60fANrgVZxRsoWAdNpnZHmIX0+v5Y6T6hhVboeBS1Elmids5eeLoPzX+nfkA15Zk1ch6rVrHhOZy+Auek/1ArS2YBFkWhCNs8GyZg/cAux0nYElJEosZjYW+M6LbT3uPpcAmZ3sk+4L7FM2snRtb4URI4Zh2XFA8vastwEoHV6KMMUWuacIodJVupakeoKAc4F8XwqAibJL+trQUsu+85R+fPuQSsosg3TGI18sahBb8IEBUjmfwAk4e1yCR87ox2fGlxAPGaOB+4tBwkNRzUQ/7K3DqL6DZ6POe3+WDImYBJ5bnqVQCIiERPGSG2BH8Fctxl+xCELhLV8T76Gs7Ym30ezbI4cfVxAwGbdY3ely+WPNLO32vOLgf2cnvITjgVjlXhV4OZVXUl5WAghaG1fw7LMvYMQNKiaUE7hbWH9iCIQp6F7cTaCEY2Vvvm1LYgCnAN8blLS449R+HDAgSroP/OkFyhTDzUmGloe47eRa/jc3zm/e7DBfayicXvDl6Shr5ReK+5pWlKkCqNOHAah2zycBlXVxk5NHxDl+ZIKLHmni9YYCb7UVOLBfhILrg5Aqiu/kcd+ZgVFagSivhFz+wwe3LI6AgkPf9+PaReIBxToKY71LYgqICkFH0RRF7kgRkJCImXTkfC59tFmt9uAG4J874eWLAAdZMZPq/apY+exqAOxIAoAHH3mMNQ3NlIwuoXRYcsuW/6jlv5cPyKzJgMqFWdaXAlAF/DhuCePnR1VxwJAYmS63z69QOh8QsuC08QmOHRrjwUVpHlmU4ZWG/EGrU/5BhU0siUwB1VGTkRU2B9eHOXlkgoMHRCFmcsd73dw5L81TCzMcWB/FNFV+uooYRZCpLgpvPk946icwInFkIbvpVk1SImybINONv2aZEpA9KCcoCNSor0yY2Iag2Q2KBjSSEtNgQCjEioLH6ozPJGO9Tfl23PMTQDJu0lnwuejhJu5fnAG4DfgRmyhN2AkYCxxXMaGCxMD42mSdeKIE3ytwy5//gic9hp40CLvEJt9e2KJraFgG2YYs3ctSFLfQ8/tSAI4Exp49JsEZY5M4aY/tYfBiFFufZ9I+MdvgUxNKOHNUgkVpj8Zun1WdLqvSHl6xRj8eFowus6kvD9EvalATV1Fqxwmw/YBzxya4c16ahxZnuGjfUqojJlknWC9sHCZoXInz6tOEDzoKEU+qkmG54RpF2CpY6L33BrKrHewIe5IC9LRIjIcNTAFtnr+2rE8UHdclqkPQDlmJAIm4ycq0x6WPNvOgGvz/Bi5j5yn42ZjJQKJm32rshL3WN2Hu+3P4ztXf4rXXZlI2spSBR9fj5Xy1r9qChaYRMkgtT5FangaVdNfZlwJwVnnY5JwJSXXk48rtFgjqWWZmCgGGo2q6R5eEGFNmw6DoJgaesuf1A0muoAKQagISTB0Q5aD+EV5ryPPs0hzn7FWCcIN1Gb1CICIx/IblFJ5/hNDeB2LU9N+w17uU+F1teO/NxFu1pJgEtGemBK/1P5QSLwBDCDyp+gIgd0xeuWVAJGoxuyHHBY8096T6/hW4fCce/AngK9GaKDX7V+NmPaomVIIBf/vbbRQ8Bytustdl47FLw+Tb84gtCagIkJ6kc0En0pP0dvbfEgGYPrDEZEK5jXR3jLdbjxA4vsTp8dfbRL75ppKmBOAGkoqExZmj4ry6Js/t73dz8ug4lhC4G+T0C0Q4QtDeROHFx7D6D0JU1qhkct/Db29BtqwhyGUQIXuP3f/jSfpFTSKWYIXj0eB6DIyE6PYDGlwPCZRvRfFKr1cgQMw2MMMmj8zt5rKnW1nS6brAzcCV9ML95mNkIjCxdEQJZWPKcFMupWPKGPXpESx9aDmldSWMv2As1ftWUegqbNngLz7DvuvT8lYbqOSf5/paAKyBSYuahIXjfXyz35ZkSAZSNbw4dUyS2+dmeHhJlueX5ThuZAwnu/EKRqhlfRDgrVoMK9clUEkBQpgIO8KejO9JhhWt1pfkXGblCgwsSzCnq4MG16MqYTCmIoTn9e3+X7VKh1jEpMsJuOmFVn72WgcdhaATZen9x13g8l0hDEH9Yf2wIga5VgdhCMZ9YQyDpw8kXB4mXBbGTbtbJaBmSJBemaFzXheo5J9eNzbp7XQmQqZQtvrb0KVGys28ttO+teBIhlbbHDUoCsB1r3WQ9ooNLjb1Qw0DLFslCBVfwrKLxeV7LkJArhBQWRLi6MExPODf7SnmdGf5TXMH3UHAmSPj1CRMHL9vfP97uibHIgaxhMUba/J8+n+NXP1CGx2FYD5wzi4y+PsB0xP1cWqn1q5t7iF9iV8ISAxOYEZMCl2FrfIDlIHELrVpeq0FN+0GwOtbtKXq5dc5K7s9uy3jUxExVRuoLbyZomcJZxvFyhF6OhvjFHwKfVwrLoCwLVjT5fHSKmUA+/KqHP+dm+Jz+5bidXloek8AeG7ApfuUcPe8NPe0d/NmOscSx2V4WYjL9invuZ3bfB97GpHEkxaZjMcvX+ngz293sVodO/8NuB5VWborcAWQqDu4lkS/GLmW3HpLfIlXPEoXW5NEIcEImbgZj6bXm0HVPvx3ewjAq0s63WPeanU4elhMncKL3g1CyxTYlsAXsKTN4d02B8eXdBQkUVOll06pC1ORNDE8yHtBn7SPskyBMOB3r3XwakMeVHFE9Y2vd4SmD41REzNJ54OdL6ttJ8UQkHcCxlXZ/PUTNXz7pVbmtLpM7hfmN0dWM7IqRDq37bO/aQiilsA34MF5KW58rYPnVuZBRbUvRyWHFXaRy5YETohURYzhZw1DGAIraqmUkkCCLwm2wSdeBpJImU3H3A46F3SCSv6ZtT0E4M6OQnDMv97r5uihMSK2Qd7Z/OCREixLELUNuvM+D87LcNv7KV5vyNOS9Xv26FKgMh6Hl9tMGxTl/AlJ9q+PYCDI5LeuN56UELIEkbjJLa918rPXOkAdi5wKXDi7xbnqhtc6+cUx1YTMAC/Qg3tLyBQkJ41JcED/MEu6PUaX25THDNL5rbuQPX1X7JDAtk38QPLSyhy/ebOTexemCSSp4qD/HjuXqUdvuAyYkO/K8/pP3yRWE6N8eBmlw0uI948RrY4SjlsEBR8/H+C7wRbFmEVIgAGNLzfjpjxQ2bNbdCNEb/YdQogBwMsRUwz60/Qazp9Sjp/2yG7GdywZMcEWPLMow42vdfDw0iwor763UEcUDUVFT6ISJEYCeydtwcV7l3LxvmUMq7ZxcwF5N/jIuINc+w9IRgwIGdw5u4srnm6jKesVgM+gqgzrgNk1MbP67lP7cdjQGKmUp1cBW7H0jNoGpiVwXUnB3fKuvz2PXdgS2BEDL4B3GvL8890Uf3m3q6eRxwuo2pMHdsGrlCwOyGnl5eW4hQLp7LpTSrsuRP2U/lROLKd2Sg2x/nECJ8DpdlSDj4/aEkiw4haBG/DSlTNom90WFMfRkg2vs+wTAQA4BrinLGyUfP+QCr44qZRY2AQ3wC823DANASFY0+3xuzc6+fPb3T0tme4G/gM8wqYLFPqhPAXOAiaOr7T55kHlnDM6iR0SuMX205vKMxFCNaCwLYFhGzSnPG58vYPfvNFJXu0lLgD+vt63XAD89eD+Ee47qz8VtkH2Y+hbv8trwPp967YkllD0FwyHBGbIwHMDnl2d59a3u3h8WY5W1UDkOVTDzjvpRUHLTspngb+defrJ1kVf+gquk2fZorm8+/5cFi5czKyZ79LR3QlA2ehS+h9Sx4BjBlAyNElQCHAz7rp99GYIl4dpeKGR177/Jl7WewLlzSG3lwAAnAHcBFQePTjKmWOSHFofZUDCBCFZ3u3zxPIst7+X4q3mQs+e5HsoVxanFxdtKPBl4MqQIcxjh8T42pQyptVHEGGVoiv94lNU3OMD4EmaMz73Lc7w99ldzFhTAGhHFYXctfE2E5Ur/qmv7lfGL4+txisEa3MNNNtPMCxDEIkaCCSpTMB/F6W5a16aGavzdKjV5AyUMcyDKHPXXZVa4IFEIj7l2WceZ/L+UzcIp7a3tbFo4Xu88sqrPPDAozz7/EsAxOqiDDh6AENPHkzJ0AROt0vgbHp1ZVgCwzZ562fvsOzhFQDHAk9+8Lr3rQAA7I9qrHh0yBBWRdQgagmEhIwnac35BBK3OOt/n174km38u6EqAH8J7FMWNozJdRFOGxVnbJVNZcSkxBZ0FAK6CwErUh4vr8rx1LIcK7o9nEC6qPZP16BKIjdFKfDfkCGO+t0x1Vy4Twm5XF/ErzUbB4ENQxAywAqb+F7Auy0FHlqU4a55GRa0OxR86QHPFwf+U0DbbvCrXwjcct5nzuKvf7sNy3LBK4ARUglmwkIVsEJnRwuvvvICt/z5Vh544CF8JLH6KGPOG83QkwZDAE7a2bC+QkIoaZFakeGlK14h15KfBxy2KdHcHgLQEzzcB2Xnddx6wUSvuF+7rTj4tiXEFkFV+F0HlAqoMQSURQwqIxYNGY+sG1Cs7UkVZ/w5wHeAdz/iZ9egTEtPMQXcdUo/PjkmTjqrTwW2ZYYXqJQJ0xDYRZvgnA8tGZ+nl2Z4aHGWR5ZmyKtkslWoopVfoTz7dpf+a/2A9+uqq8oeevg+9tv/IHA7N4pYFQvOhCj6UUQIAskTTzzKDT/7Jc8+9yIBkgFH1TPuojGUDErgZjzVR7Bo/BEus5nzl3m8/+d5oJy5btz0fdk+ArCjmVQUm1Go9t9RlNlDthhQfBLV+aWjF+91Bsp6bOSIshCfGVfCOWMTDC2zKGzHGofdNBaoWnALCIdVUBAp8IOAxW0uM1bneXpFludX5lje7YEqU32nuMe/qSgCuxu/AS6/6sqv8IsbfwcyBd5HnJtLCZYJRhn5fIqb/ngTv7zxRlatbiQxMMFel41j4NEDcDodvJyPnQzhZh2eu/glUsvSXcA0VIB9txUANrGP39IZwyiuJq62DLh47xIu3b+cMVVhpBOQdvTsvyXBPyEgbApCUROkpDsfsLDD5bmlWWY2Fni7pcDctrVhnxeLs/3LKIvuwm56efYD3hw1cihPP/0MAwYOBLeDXiXcSlRpZSgBhHnzjVe55ppv88STz2PFLcZdOIbR5w7HSXuE4iEW37uUt372DqjEqIvZTL+7jxrfu2pvQH8rBOMPwJdGlYW4bloVZ4xNgC/JZD2CAD34e8Ha0xYAQ9CR9XhxRZbXVhV4YWWW5V0eK9eZxMxCZaXNKQb3mvaAS/Qz0zS4/LKvMGDgEPA7eh9XWltqmQKRY/L+B3HHHXfxox9cy69/9ydm/+Y93JTLxMvGk23KsejOJT3bqFvoVbPL3UsAtnTm/x3wpSl1EW45roaJAyI4WZ9CsbJRD/7NXDihmn+GQwJsAycXsLrb5a1mh/8tzPBmY55lXR5pN5CoU563gPuAp1FFKS170OU6D5h20IEH8MUvfRm8btVWfourRw2QPrhtVFRW8osbf019fT3f/s7/Mfdv87FLbYyQIKWMP2YWxXWr2VW3AFsy+L8HXDulX4R/nVTHiAqLdD5YG7TS+3j1DyHWDfiQKTAMgTSgy5Msay7wSkOe19bkeWxphtZcQCDJoCL27xRn+peKg35PLLKIAQ9Zljntvnv/zQknnQVuK9vukCAhFAHi3HbrLVx66ZWksxnMsImf91PAaaiTkw/Zsu2eW4DeciBwbb+YyS3TaxhRFSKtOsXqBl9FAQyZELIMlcQlAD9gWdpjfpvDc8tyzGouMKu5QKtK4c4Bb6PqKv6DCua1ojkfmHb2mZ9k+nEnguymb+xRBLh5MH3O+9xFRKNhvvjFy+js6gYV+H5qm7d1u/OWFfhGyBB855BKJg6KkN3DKwB7JoOQKYiEhbLX8SVZRzKvKc8bDXleb8wzs9FhTluhp06iCVViOhvVZOMJdl7nnY+DOuCL8XiMSy+9GNOKgdvWh1OMUKcIdsARhx9Nv/61PQLwvb4aJLsrw4FTptSFOX98Aj8X4H2IbZVZbIO9O9YGqaW9Sr8lZCILAQvbXN5rc5mxMsurDQWWdbmsSnk9eaQLinv5ecUZfwE7n8f+zsIRwN5nfPJEJh8wFWSmj9eXEqwwYHDzzX9k8eJloDoevb8rC4AAxhX3MFPpSYuCFcXZ5klUBuG2jMfJgJg+LEYiapJO+5v2rZcQCQk8X22EDTZdc7ArIOjZywsiplBnH1LZdXcXAl5cneflhjwzGwq83VSgI++TVv5obnGw/w3VUWcFKr9C50d/OHHg/Hg8yrnnnU/IioDb3vd31Ujy1qwZ/O73N+E4bicqS5ZdVQDGA1cDZwshQlWV5UQiETzfJ5PJ0N2dPg9VAPIwKkvsla18EPdO2AYTqsIQbNqpWkpIxkwWtzl86YkWDu4f4ZqDyjGlxN1JlwIbX4iQobwPLLN4nGFC3oOVnQ4LOlzeb3N4cVWeWU15Vqd88r70UZWY7ago8sOoqH0r23CctIcyDPjE1IOmcMCUA4shkr70RFdBQNfJcsPPf05zSxvFsbNiVxWAc4C/APGDD5jMqaefxqGHHExlRTlOwWHFqjW89fZbPP3UU5EXX3z1dNfzTy/udX5ZvLpbQsISkAgJNuX/JYszf9YLuPLZVp5enqV/0VZ8ref1Vu6xt8U2beNAHaxrq2YIsIpRegyUWZ4X0OYEtKZ9FrcUeLvJYWGnyzsted5qWpuI0wQsLc7qzxdn+bfYfRNydtjy3zAMjj3mKEpKy8HrgD73tYpz73//zn/uvp/iZPi/vg6U7Si+BPy2JBm3v3nVFXzp4kupqulf/CsPMBg/cTLHHX8yV1x+Gffccxc/+9kvmTtv0Y+KW4Tvb+GWYHHaDVjY6XK0aWzwraoyDUK2yQ+fbeHBRRmGloa45uBybEsoZxuxZQPfEhCNGcXmQVJ1yWGdnvTWz6DntodNgWkJzGJO/dq/9yVLO12Wp1TSzTtNBd5qcljR5bIm45FVefZ+cXZ/szj4ny0O+LQes306Os/vV1fDkUcdrW6QDPpQAAIIlbN86Ty+8c3vEgRBB6o1X/OuKAAXAr8cPKje/v1vb+DEU85Rg97rUEkPPRdNSjBM4ok4nzv/Yvbbbwpnn/Up3p+34BuogpEtMYZ4wwvghZU5vrhPKbYp1pX8CogmLO59N8Uv3ugkbApuPKqK0fURMp1bbhBiGYKCL5nfVKA2ZtIvYRGxLWV75AT4vsQJPhhb6GmtFS6euwtTKCUBKAR0OQFthYA1KY95LQ5z2hzeb3NY2e3RkvN7aucpDuw3iwG7t4uz/WJgtR6n240EMLa+vo7x48f37e5JBmBFQPp85zvXsHLVGlDVtU/29S+xIwTgNOC3A/rXRf/+t78w7ajpEKTB71l9rheXF8XlupsGkWfCXvvy4x//H6ed8ZkwyizkCXpvEDEbWPXsityA1xsLHDQwgptWAyYRN5nTVODbL7RS8CXfOaicU8cmyXX7rK/hEtVz3rINZKA88Tbe4UkJkZjB4naX8x9qIudJjhgYZUy1zbBSmyFJi/qESWnUUMuO9URACvDdgJZcQHveZ03aZ1XGZVXaZ0mby4J2h6XdLnlPknElBbV/91FFT88Vl/NLUS4wLUA3u09V3c5OGeAPGTQIOxIF2UcCICUYFhgJfn3j9dxx570URf0b2+OX2N4CMBa4NRIJR3/921+pwe93QfBR5vECpAdkOeTQoznwgP2Y8drM/YH+bGR59CF0Atc3Zf3f//yVdv51Wj8iYQOkJJMP+NZTLSzocDlxeJz/O7iCQtbHC9Y5EwcSEmGDzkLAFQ824Qfwx2OriFsG+fUcjI1iW+blrQUWdrhkPcmCDnft31VGTKpjJqVhQ+3d5YZ6l/cknUVvg7a837N18IFU8VVAZdj1FNS8V/zzLLvnqeWuQj/AHDZsKGCCzPfN4DctMEt58P7/8sMfX4+UdKBcrLp3NQFIoFo2Jb7x9cs5/fRzIEhB4NK7LCkBMqC0NMm4saOZ8drMGpSRx5ZwB3DufYsyB/3i5Q6+P60SBPz46VYeXpplcInFDUdVEbIEmfX2/RJUPbsl+Nnz7dz+fooxFSHVgrlnlVL8WsNUtd0vrcj37L/X7eIkqZac/0ZLzreKn33jvmKiOMAzqFz6nmBdE+qcd3Zf7/k0fUYGCDo6Otep+baGfQ0BZimvz3iRr1/1DTo6ugLgW2ym1HdnF4CvAlM+ceyRfPvb34UgW1z2G1t0UUIhKEkme8bllobm24vBx0d+OqN9wIgyk5Koxc9f7yBpG/zh2BpG14TJbGQMagiIxEz++143v5/VRYltcOO0Kspsk3TB3+BrwyY0dDg8vnyTyXF/Ab6mpgiqUSYnGwtArvg59RHcrsVqQLz73hwCv4Bh2mz9oUqgZn6jjNdffZ7PnHc+CxctA/gBqtqPXU0ADgK+UVdbY/72VzcQjZeA21IcB1sSZxU4TkBXd9e2fJZ3gfMKvrzjkidba6MmeBKun1rBCaPi5DL+BiNSAvGIyZzGPJc/3ULWk/zokAqOG50gl/1gDMAwDR5ZlOKdlg/c/EXAT4v/7QONeszsVnQBixYuXjJxxozXOXjq4dsw+GNgxHjk4Qe55JKLWbFyDahsvx9v71/C2E7v+QWg5FvfvJxR4/Ypno9uTXstQTaTZ9Wqhp49/damoz4LnJtygpbmXMCQpMXxY5JgGaoxAxsu/R034Jrn21iT9jl+SIwrp5TiOxJPbti9KGIJOrI+f3qna+MIv49KYmrR42S3RQK/aGlp509//AOB70AotmWLVAGESpHY/PmmP/CZz57HipVrApRj1Td3RIxnewjAYcAFU/afxLmfvUgti+TWZpSGaGtvZ/6CRaBaQW1L5dnTwNHAksVdLufcu4bn5qeJRE0StliXLx8x+MmrHdy/KMOIshDXH1NNPGKSc9dZh0upymatqMmNb3T2tKheP9X4LZTllWb35mHgvdv/fTc/+sEP8D0LQqVFD4BgIzGQ616GpZx/rAoWLVrM+Z/7LJd8+St0dHQ2AxehDG13SJJWXwtACLgoHLbF5ZddSnV1DbhbWzgmAZs5s19nxcrVoI5COrbx880GJgeSf8xsKsiT7l3D1U+3sjLtE4ubxCptHluc4Revd2AK+OEhFexVFyGdCdZqmJRqlRAts7j7vW5+MqOdqqjJGaMTJMNrL+cV6Aj9nkAHqhS45dof/YRvX30VrS1tYJVBqATMsHIBNkwwbTXoQ5VgltDY2Mqfb/o1xx77CW67/T8EklkoE9y/7dh1jJQf+doCJgHyqGlTZXdXl5QyL6XTKqXTtuUvv1P6XkFedOF5PT0nP9XHv/r5xZla7lsTlv84sVa+edFguV9tWALyq5NLpbx6pMx+dbjsvnyYTF0xTKYuHyaDb42U8ruj5T2n9pP94qYE5A3TquRPDq2Qtikkql+9Zs/iiOIKVU474hB5539uk02Nq+XGdHe1yZlvvi5//MPvyqkHT+lZEqRRNvtVH8f47mtHoH+Ebftzf/jdDXzhi5eB3wnB1kyEEkJlLF30PpMPOJz29o7XgRO3w576F8BVoJb//eMWK9Mek6ptXv70AGJJCwr+uiMeQ7Ckw+W3M7v42ztdpNyA7x9cwVGDYnzy/gbacv77wCfYPd1uNR/OaNTJ18WRiM2EcWPZd79JVFVUIIQgnU4x+733Wbx4Wc+KFuDnqOzWl7fnBL+jVgC1QHr8uJGycc0yKaUrpdOydbO/1y6llPJXv/xJj0r+bjtcmy8BHcNLLfmHo6vlgf0jazdppWFTHjskJq/cr0zecESlvHFalfzJYRXyrNFJOSgZkqgkPvm9Qypl61Uj5LSB0Z7vvViPgz2aUHE1cCfrjna94sstzvYzikIxgR1gTPWRY7sPBeBKQF751UvVesfr2srlf6uUQUZmU41yrwljJKqCbWIfX5cjgVVRS8i7Tq6T8rujZPcVw+Q/T6yRp49OyNqYJW1DyA0jN+qVDBny+GEx+fSn6qX8wRj5vakVPX93R/EB0GgMVPOZ/YATiqvCA4HBO/oZ+aixbfXhL3xaSTLBSSecoMZD4GxljFGCiPGfu/7J3HkLKSrm7D68JvsCt4YMUf/zaVWcuVcJubRHSMBnJpbx6fElvNfiML/D5d2GPJ2FgJApcAPJ8HKb/fqFOaAuTKgsxKNvd3ODaj/eWtxO6GQeDagAcDO7QBZnXwnAUGD4iJEjOHjqwRBktn7wm1EK+Qx///s/8DzfYzMtj7aS4ago64BvTSnj0v3LcPIBXrEvQHfKw7YEE+vCTOwf4cwxCVUU0FOPa6laAiQ0rMnz9WdbyHnSLwZxZunnXrOr0VcCMB2oOvzQqYSjpdtmiWzEeerJ/zJz5lugrKZf6qPPOAG4Fdj7qv3L+O7hlfhOsEE7MMMAN5C4aR9BsVuTECpaKsDNe1iGwLQF17zYztw2F+Dx7RSj0Gh2GQGYBoSOPWZaMd4hNj/Dr+3E0WNhZaCyBA1UqrzL7bf/i2yuAMoJqC986cajWoJP+vr+5Vx3VBVm0Q134wOOtYZAULQFW/fjTQPCcZM/v9HJre91gyra+Yp+jDR7sgBEgOqSkiT7TNqLdX0hNqp5CdnFH2et92N9CgUH13Fw3BSeJ3hr5kxeePEVgPnAC33w+cYBfxMw6Wv7l3HDkZV4XkDGkZs2Cd1YDNb7bWKxEO805PnJq+09LdC/hKre02j2WAEYAdQffOD+lFeWA07RwC4Ehk2P4a8McjS3dNDe3sHKpfNYsngJKxsaaFjdSHtrOy2tHXR2dtKV7mJNQxOoM9JtrYGehuoJOPaq/cu4floVnifJuR89+DdYt0iI2oL2jMtVT7X0dLr9I/CofoQ0e7oATAYGjR8/Djtcppbzltr/t7asZPa781kwfy4z33iNeQsWs3rFGlauXIO3UQcpUSqwEzaFNQVQR3+vbOPnOhf4NVD1zQPK+elRVQSOJOtt+eAPmQIrZPCdJxp5SpX9zkJ1Gnb0I6TZ0wVgMBA6dOqBIEKsWrmEl19+mSefeJK33n6HZctW0N5jmgCIckHZ3qWUDi4hMTBOvF+CUNwiWh2hc1GKN384ExnI+1CplVvLV4HrLYPwjw6t5KqDKghcSc4JtnjwCwMiSYtbXuvgz++mQFkyX4Cu9NNoAQCKLj0vvzKDZ59/mXvuvo/29nZyjipmigwMM/DAAZQOLaFiXBnJIUnMiIVhCoRVdNgRYEVMVr/QgFR1tTPZOm87G1WG+6WysDB/fmQ1F04qxXcDcpsI+H0UhoB4wuKpRWm+80IbUpIDvotqiKnR7PECIFDmiPzixt+rPwlD6bAShh42lMq9KigZlCBWH8cusfEdn8DxcTpdAscHp3jEZiivvM75XaCMM97bis8yCnVqcOKocps/fKKKo4cnyGc83GDLHZukhETCZH6Tw2WPNfc48N6IOk3QaLQAoFojlQtTkByWpP/UOmr2q6Z8bBlWzEQYBoEXIAPJ0vuW0Tmvi1j/KAOO7g9CIH25zvNeSArthR4BaNqK/f5PgEHHDYnx8yOrmVBrk0l7BHIrBj+odmL5gK8+1cy8dheUn8AP9COj0QKw4fdHE/VxDrpuf8rHlOGkXPyCj5NyIQC7zGbVU2t440dv4udUZaAZMhg4faAa8BIM28AvBHh5D7YshXIEynPvkrAp+Mq+ZfzfoRWU2AbpbLEN+FbM/OGwICfhiidaeGxpFlRA8gx0qq9mN2NbDUESQJkVNVUEv8PB7XYJCkExq9eka0E3s65/m7gR59CpB5KIxll8/1KctItRNNAIlYZomdlKelUGoLJnW/ERwvMN4CHgkn1rwvzn5DpuOLqKuClIbeTztyWDP2QIbNPgpy+28TeV7DMPFfTr1I+LRgvAhpQB9YEv8XLeuqiAQHkdhk0W37cEp9vhtNNO5J+33Uy/frV0LOvES7kIQ2CX2bS/28FbP38HX+2z9wbO28RnM1GmCV8sDsqflYbF6KumlPHwGf05dUwSpxCQKQQIY8vrLKVUmX6RuMmvXuvgZ+uKfK5CJSVpNHoLsBE9w/0DaXNmzCS9OsOKp1dSXlLC+Z//AoOHjcE0BX53gJfzKBmSoHtZmlk/e5tcS559Jk2gpaXNWrW64Seo8smHUacBpcChwLFArCJiiOnD4nxjShl714XxPMjkPNVUZSsqrCVgWYJozOSfb3Xxfy+14wbSBb5d/AwajRaATRCwieM6GUjsEpsVj67E7w6YfPS+HHrYVFoaG3EcDyyw4iGMiMn7f51Hx9xOxo4axeOPPcK8efP59neuEfPmLTilrb3zFNM08X31I8ZU2Bw/NM7po+McPCiKFJDN+lsV6Ft/8JtCEI2b3PtuN5c/1UJaFQF8F+Xrr9FoAdgMrcAyYNAG+4qQQeAGtM1tRyA47LDDMMwIK1auIJvNEqkKE6uNsuKJ1ax8cjXJRIKbbv411bUDqa4dwBOPT+TVGW+xpqGZV158hptu+QejykPcc0Z/xtfY4EkKxUo+w9i2piwGEIubPL8kw6VPttBZCEBF+3+uHw+NFoAPpwBk19sIIAOJFbcotBdoe6+dWDjC1IMOAGDRooV0dXdTcWgFhbYcc256Hz/v860fXM5hRxwHfgcEklgiwVFHfwLwueeeOwH42uQyxtfYFLK+6vIrVfnutgZAYnGLF5Zm+cwDTTRmfFANGa7Vj4ZmT2Bbg4AuUHBTLk6Xq9pbA4Zl4KRdCu0FEvEEI0YOA+DNN2aSKxSoGF3O6hcb6Xi/k0OnTuFLl1ym3qqnu4abBSTPPPEgDzzwMOMrbY4fnkAWAgqeas6xLbO+LMYsYnGTZ5dlOeu+NaxKewB/Br6uHwuNFoDekQFa3ZSLm3LWNcy0BH7eJ/AlZeVJBg4eRldXGzNefQMERMojLH1wBaZpcsmXv0RVdR146zX9MSzA4dZ/3Q3AqaPiDCy31ODfRhvFnj1/ImHxzNIcn3uwkaZsAKqRx8WwUZWSRqMF4EPpcDMeTpdT7JS7wTyLMEzA5pVXXuHt2e+RGJ0gszpNx3sdHHfsNE444ZMgCyD9dd9nRmlctZT7HnqMchtOGZVUCwNfbpONak9Tj1jC5JH5aT7/UCMrU17P4L+EvjEf0Wj2KAFIAxS6XLDWH56qjbYdCuPku/jXbbeRzmYZMLkfa15vwA6FOPuccygpLQcvvS6IgATCPPDwU3R3dLJXdZiJ1SF8b9vGZiAhbArCMZN/vd3NuQ80skIN/j8VB79GowVgK1gCuOlVafycjzAEvhNgl4QIJ8OsWbmGT3/6XO757/2Ujy4jUhula06KiXuN5+RTTgDyG068hglInn3uBZAB00ckCEdN8k6w1cv/QELYEtgRg9/O6OCSJ5p7ov3fAy7Vj4FGC8DWMwtYmVmZwct6GJaBm3aJ1UUZMK0/ral2/vu/h/FjMO6LY2ibq9r7nXbaqZSU1oGfXe9jSDDjdLU38d7c+Qhgv9owBOBv5QJASkhEBJYp+NEL7Vz1TCspJ8gDl6HaL+tlv2aPpS/8ABYCKzoWdA1z0h7RijDSkXhZn5GfGgEIOhd3M+YzI0kOS/Dm9bMoTSQ57bST1dhba7vdg83CRUtoamikzoYJFTZ+Idjy1N7iuyYTJt15n6ufaeFPb6818rwMuFvffo0WgG3HAdpyzTnSy1PEqsMIoU4BrKjFhC+PBSGwEyEW/GcxhTaHw6ZNZdSoUSBzm3zDVatWk06nmFxl0a80RCa/Zct/KZWldzRmsqjV5atPNPOwquqbX9zvP6tvvUbTd+3BXwLctrfaMMOmaicmIPAC3LSHV3y1vtUGAZxw/HSEGQc/v+Hsbyg9amxaTT6XZ3h5GGEKgl62J5M9+/2Qyut/ZEGGU+9Z0zP4nwRO0YNfo+l7AbgPaG6e1YqX9jEsY93OWoIRNsi25Oha3IWFweT99l43Va8/fIUJwMoVK5FSMqQ0BF7vlv+y+I941MCyDH79agfnPtDInDYH4BbgbHRVn0azXQRgGbC8a0k3bXPaCVeEe7z91D4jYpJrzZNuyDByxHDGTdgLyG32zQqu8t1IWL3/eJYhSMZMVqd8znuwkW8810ZnIegCvoxq3tGhb7dGs30EAOCvfs5n1dNrEEJghs11kThDkGnK4qd9xowfTSJZ8cHlP4BhIKVLo+oLQF3CWvcem9nrC5R9lx0xuG9eiqP+vYp/vZ/CC+R84CjUOb+279ZotrMA/A/obnixgfb3O7DLbGX4aQoIJJ0LuwAYNXI4lmVt5vDNwHddOjrUZF0eMTe73JcS7JBBPGmxtNvl64+38OmHmlnU6RZQZbwHodyFNRrNDhCADuBX+fYC829bSOAEWFELIQTSh9wateQfOXI44kPK+IQQGMW/DzYz61sCkjETy4R/vd3FqXet4TezOsl5wbsog9CL9JJfo+nF1rmP3+9G4ITVz66ZvHBcGaM/OxI/5+O7PvmuPAKDsWNHAd5GAcCNBnkgNznrm6ijPSHg+WVZbny9k8eWZXBUGcH1qGo+3atPo/mYBKAb+H7gBQ/NuXmuCJeFGXH2MJwuBzfjYiKoqKzZzNwOyADTsqmprQGgJaMK8wwhiNkCTMH7TQX+MrubW9/tpqMQSOBl4Puo4z2d1afRfIwCAPAIcJ6f92+eed1bMTftMuCY/jgZh/p+/Ygnk6jW4HzwGFAGYFhUV1cCkHEDiJogfV5vyPPvOSn++X6ajrwP6kjvBuBWtF23RrPTCADA7YAXeMHP3v7l7EHLHlxOdk2OmvFVxOMlQBis8EYrgZ5FPpSVlQCwMuVx/+xubn+/m8eWZkm7ElRbrgdRzTnz+hZqNFuPkL3IshNb78KxL8q//xyAstISzjrrdI45+ggGDBxGeXk5QVD0ARAG6VQ3TY1N3HLLzTzw0OMkQqJn0AM8XnzdgeoepNFoPoKPGt/bWwAAQqjz+ONR0flI2LaprCwnnoitC/gJQT6Xo7Ozi3RmbZLQ68D9qIrDGejmHBrNLicA6283hqLaiR9QfFWzzlZcAGtQZ/fvo7IL16CchzUazcclABqNZvfE0JdAo9ECoNFotABoNBotABqNRguARqPRAqDRaLQAaDQaLQAajUYLgEaj0QKg0Wi0AGg0Gi0AGo1GC4BGo9ECoNFotABoNBotABqNRguARqPRAqDRaLQAaDQaLQAajUYLgEaj0QKg0Wi0AGg0Gi0AGo1GC4BGo9ECoNFotABoNBotABqNRguARqPRAqDRaLQAaDQaLQAajUYLgEaj0QKg0Wi0AGg0Gi0AGo1GC4BGowVAo9FoAdBoNFoANBqNFgCNRqMFQKPRaAHQaDS7J/8/APsJ0z67WEncAAAAAElFTkSuQmCC;verticalAlign=bottom;" vertex="1" parent="1">
          <mxGeometry x="160" y="770" width="106" height="106" as="geometry" />
        </mxCell>
        <mxCell id="epSYKEgupzC-YlLHhk_k-23" style="edgeStyle=orthogonalEdgeStyle;shape=connector;rounded=1;orthogonalLoop=1;jettySize=auto;html=1;exitX=0;exitY=0.75;exitDx=0;exitDy=0;strokeColor=#00CC00;strokeWidth=3;align=center;verticalAlign=middle;fontFamily=Helvetica;fontSize=11;fontColor=default;labelBackgroundColor=default;endArrow=classic;curved=0;" edge="1" parent="1" source="epSYKEgupzC-YlLHhk_k-5" target="epSYKEgupzC-YlLHhk_k-8">
          <mxGeometry relative="1" as="geometry">
            <Array as="points">
              <mxPoint x="435" y="560" />
              <mxPoint x="435" y="550" />
            </Array>
          </mxGeometry>
        </mxCell>
        <mxCell id="epSYKEgupzC-YlLHhk_k-26" style="edgeStyle=orthogonalEdgeStyle;shape=connector;rounded=0;orthogonalLoop=1;jettySize=auto;html=1;exitX=0.75;exitY=1;exitDx=0;exitDy=0;entryX=0.75;entryY=0;entryDx=0;entryDy=0;strokeColor=#FF33FF;strokeWidth=3;align=center;verticalAlign=middle;fontFamily=Helvetica;fontSize=11;fontColor=#FF88FB;labelBackgroundColor=default;endArrow=classic;" edge="1" parent="1" source="epSYKEgupzC-YlLHhk_k-25" target="epSYKEgupzC-YlLHhk_k-5">
          <mxGeometry relative="1" as="geometry" />
        </mxCell>
        <mxCell id="epSYKEgupzC-YlLHhk_k-25" value="REGIE LUMIERE" style="rounded=1;whiteSpace=wrap;html=1;fontFamily=Helvetica;fontSize=11;fontColor=default;labelBackgroundColor=default;labelPosition=center;verticalLabelPosition=top;align=center;verticalAlign=bottom;sketch=1;curveFitting=1;jiggle=2;" vertex="1" parent="1">
          <mxGeometry x="600" y="60" width="180" height="150" as="geometry" />
        </mxCell>
        <mxCell id="epSYKEgupzC-YlLHhk_k-29" value="pure data" style="shape=image;aspect=fixed;image=data:image/png,iVBORw0KGgoAAAANSUhEUgAABAAAAAQACAYAAAB/HSuDAAAABHNCSVQICAgIfAhkiAAAAAlwSFlzAAEGeAABBngB+blEhQAAABl0RVh0U29mdHdhcmUAd3d3Lmlua3NjYXBlLm9yZ5vuPBoAACAASURBVHic7N17uG3XfDfw71xrn5xcTnJyFUGuSCKRWxG5qGuKEJQmraKvS4W0KsqL4tW0RVOPEpf0FUEppZREvRIVSi9IEBSJBIlIIoTcaELue635/jE3CSLZZ58x11xrzc/nefazjyPPb45kzbWeNb7jN8ZMAAAAAAAAAAAAAAAAAAAAAAAAAAAAAAAAAAAAAAAAAAAAAAAAAAAAAAAAAAAAAAAAAAAAAAAAAAAAAAAAAAAAAAAAAAAAAAAAAAAAAAAAAAAAAAAAAAAAAAAAAAAAAAAAAAAAAAAAAAAAAAAAAAAAAAAAAAAAAAAAAAAAAAAAAAAAAAAAAAAAAAAAAAAAAAAAAAAAAAAAAAAAAAAAAAAAAAAAAAAAAAAAAAAAAAAAAAAAAAAAAAAAAAAAAAAAAAAAAAAAAAAAAAAAAAAAAAAAAAAAAAAAAAAAAAAAAAAAAAAAAAAAAAAAAAAAAAAAAAAAAAAAAAAAAAAAAAAAAAAAAAAAAAAAAAAAAAAAAAAAAAAAAAAAAAAAAAAAAAAAAAAAAAAAAAAAAAAAoNeqrgcwp7ZLsmnXgwBYR9cl+V7XgwAAoB0CgHZ8IMkRXQ8CYB39e5KHdT0IAADaMeh6AAAAAED7BAAAAADQAwIAAAAA6AEBAAAAAPSAAAAAAAB6QAAAAAAAPSAAAAAAgB4QAAAAAEAPCAAAAACgBwQAAAAA0AMCAAAAAOgBAQAAAAD0gAAAAAAAekAAAAAAAD0gAAAAAIAeEAAAAABADwgAAAAAoAcWuh4Ad2DnKtm060HQidHS7zrJeOnPP/s9uNXvaunPwwmNi+lyfZLz665HAQDADBAATLs3DJJHV3f8zzH9FpNcUicXJ7lo6fdVSa6qkyvT/Pyobv7uuhVeY6MkWyXZsmp+b5Nkq6U/75BkpyrZKcn2VbJq/f51mBKfr5MHjO74nwMAoPcEAFDaj5OcXS/9pFmdvbhOvpcmBGjT9Wmu871brwjfxurwMMld0wQC96ySPZPsVSV7L4UFAADA3BEAwPq4Isnn6uQLdXJWnXy9Ti7pelDLMEry3STfrZNP/1JAcJck966Sfapk/yo5sEru3MEYAQCAogQAsC6+UyenJzmjTk6vk2/Ut7nAPtMuTXJpnXziVv9i2yU5uEoOqpIHVMm+lSNEAQBgxggA4Pb8NMl/1slH6+Rj46a9vo9+kOSkuvlJmm0CD6mSh1XJowdN1wAAADDVBADwy75SJ/9aJ6fVyZn1Lafxc4urcksgMBgnv1Elhy793K+65ckEAADA1BAAQJKcuzSZfX+dnDdvPf0tGyf5Ut38vDLJ9kl+e5AcvrRlQBgAAABTQQBAf51TJx+okw+a9Bd1SZLjx8nxSXaukiOq5HeXzg0AAAA64xgv+uX6NCv9jxgl+4ySvx6b/Lfpwjp5zTi57yjZe9T8+aquBwUAAP0kAKAfvlQnR42TuywmTxwlnzLpn7hz6+Rl42TnxeQZo+ZJCgAAwMQIAJhfNyX5x7pZfT5glLx9nPyk60GR65K8u04euNQV8PZxckPXgwIAgPknAGD+XJPkTeNkt8Xk6aPkq1aap9a5S50ZOy823QE/6HpAAAAwvwQAzI8L6+T542SHxeQF4+YwOmbDFWnOB9h1MXnOODlfaAMAAKUJAJh9l6SZ+N971Jw+/9OuB8SKXZ/kxHGy56g5q0EQAAAAxQgAmF2Xp2kbv9diM/G/sesBUcw4zdMa9h4lTxslFwgCAABgfQkAmD1XJHnhOLn7YtM27gC5+XVzkvfUyV6j5OhxcmnXAwIAgNklAGB23JzmcL/dF5M3jJt2cfrhpiRvXnrtX+G1BwCAlRAAMBs+VSf3GTWH+13d9WDozHVpAoB7LTaPeLQzAAAAlm2h6wHA7Tqnbib9n+rZTG91ko2TbF4lVZp36ppf+meuTdMVkSQ/rptV8b5sh/hemkc8vqNKXj9I9q26HhEAAEw9AQDT6fo0K72vHyeLXQ+moNVJdqiSHZPsvPR7hyrZKsnWSbZe+vMvT/aX69okVyW5qm7OSrgqySV1cnGSi+rkoiQX1/MTFHymTvYfJc8ZJK8crPy/GwAA9IAAgOnzn3Vy1Dj59gyv+i8k2bVK9kqyV5XsXSV7VskOaVb027LJ0s8Ot77IbVzwkiTn1snX6uTrdXJWkm/Vt3QUzJJxmqdAfGScvHmYPEI3AAAA3BYBANPjf5L82Th5x3j29nZvm+TAKjm4an7vVzWr/dNq+yTbV784Wb4pyVl1csatfmbp1P2Lkzx6lDy5Sl43bDoqAACAnxMAMB1OrZM/GiU/6Hogy7RlkkOWJtAHV8k95mDVeYMk962an6OX/u6iOvlskk+Mk39b2lYw7d5bJ59YTN44TH53Dl4XAAAoRABAt65L8qJxcuK465HcvirJb1TJI5d+9q+SYdeDmoCdqmSnJE8ZNq32X66Tj9XJaXXypbr5u2l0RZInjZKPVU0QsFnXAwIAgO4JAOjOOXXy5HGzB31a7VElh1fJk+ZklX99DJLcr2p+jkny/SQnj5OT6uRzU/pIvn+sk08vJu8aJg/o+esHAEDvDboeAD00TvK34+R+o+mc/O9RJX89SM4bJmcNk2MGJv+35a5Jjh4knx4mFywkrxkk+0zhf6eLkxwyap4qMU9PlAAAgHUkAGCyrkxy6Ch56bg5dG5abJLkaYPkM0uT/j8bJLtM4WR2Wu2Q5AWD5MvD5AvD5MhBsmnXg7qVxTQBwCEzdM4EAAAUJgBgcr5cJ/svJp+aolX/vark7wbJdxeStw+aE/xZP/epkhMGySULyVsHzf+eFp9dugfPmKJ7EAAAJkQAwGS8p04ePEq+2/VAlhxUJR8eJv89TI4aJGu7HtAcWpPkGYOmI+C/hs1ZCtNwcOIPkjx0lLxmWk8wBACAdggAaNeNSZ4/Tp42Sq7veCwbJHlKlXx12OxbP6xqTvenfQdXyfuHybnD5LmDZOOOx7OY5GXj5Cmj5NqOxwIAABMiAKA9V6bZc318xyutq5I8a5B8ayH5h2Fyb7P+zty9Sl4/SM5baIKA1R2P5/1LnSmXdjwOAACYAAEA7bigTh40ah4P15VBmrbzs4fJmwfJ9t0NhV9y5zRBwLemIAj4Sp0csJh81bkAAADMNwEA5Z1eJweNkm91OKE6vEq+Pmzazj3Cb3rdLU0Q8PVh8uQOt2RcmuZcgE8KAQAAmF8CAMo6uU4eOUqu6uj6+1bJfyxN/Hc18Z8ZO1fJu4bJ54fNAY1duCbJYaPkRIcDAgAwnwQAlPP6cfLEjg772zbNI+fOHCa/aeI/s+5TNU8MeNew6Q6YtMUkzxknrxACAAAwfwQAlPHKcfKicTLpDupBkj8ZJN9YaB45546efVWa7QDnLCQvHCQLHYzhFePkxR3czwAA0CLTJdbfX46Tv+pgxfSeVfJvw+QNg2SzyV+elm2S5NVLXR337aCr47hx8sfjRDMAAABzQgDAytVJXjBOXjXhGdKqJC8eJF8dJg/S7j/39q6Szw6T4wZNKDBJbxsnTx01WwMAAGDGCQBYmXGSI8fJmyY8+d+rSr40TI6dgmfIMzkLSY4eJF8cJvebcOjzvjp58ii5ebKXBQCA0gQArLs6yXPHyT9McPJfJTlykJw+TPa06t9bu1bJZ4bJMYNkOMHrnrwUAugEAABghgkAWHcvHU/2UWnbJvnIMDlhkGw8ucsypRbSBACfHia7TDAM+lCdPGvkTAAAAGaWAIB1c8w4ee0EZ0CPrJKvLSSHWvXnl9y/ag4I/O0J3hvvrptzLwAAYAYJAFi+N4yTYyc0+anSHPT3kWGy9WQuyQzaPMkHlw4InNTjAv9unLxQCAAAwOwRALA8J05w0rM2yb8sHfTnDuWOVGkOCPzoBMOiN0y4EwYAAAowveKOfaxOnjehyc4eVfL5YXKYln/W0cOq5MyF5DcmdO+8bJx8sJ7MtQAAoAABALfvnDp5yoROP3/o0gnv9zT5Z4V2SHM44BETuIfGSZ4+Ss4QAgAAMBsEAPx6lyY5bJRcPYFrPW2phXvtBK7FfNswyT8tPSqwbTckefwoOU8IAADA9BMAcNt+kmbyf0nL16nSTNTePkhWtXwt+uNn99UJEzgc8KokjxknV7R8HQAAWE8CAH7VOE3b/1ktr2ouJHnnhFZq6acjB8n7hsnqlq9zQZ08cUJbZQAAYIXMvPhVrxonH2158r9Bmjbtp9jvT8seXzXbS9a0fJ3/qpuDAQEAYEoJAPhFn6yTv255ErM6yT8PkyeY/DMhD66SU4fJZi1f57hx8gHnAQAAMJ0EANziojp58igZtXiNTZJ8ZJg8xuSfCXtAlXxymGzd8nWOHDVPzwAAgCkjAKBxXZInjJsDzdqycZpW7IeZ/NOR36iS04bJ5i1e49okR4wn8/QMAABYBwIAGs8bt3vo34ZJPjRsVmGhS/subQdo80yA8+rk2W220gAAwLoTAJB8uE7e2eK+/1VpTmI/xOSfKXFAlfzLsAmm2nJSnbzLoYAAAEwPAUDffT/trlQO0zzqz55/ps1DlkKANh8RePS46QYAAIApIADos3GSp4/a3ff/xkHyRJN/ptRvVclbh0lbt+i1SZ42ThZbqg8AAOtAANBnrx8n/97i6uQLB8lRbjGm3JOr5JgW79MzJ/BoTQAAWAazs746p06OaXFS8jtVcqzbixnx54PkqS3er8eOmyAAAAA6ZIbWR+MkR42TG1uqf9+q2ffv7mKWvGXQ3kGVoyRHjpOb2ikPAADLYYrWR383Tj7X0mrk9kk+Mkw2bqc8tGZVkvcPk3u2FAKcUyevsRUAAIDuCAD65uK01/q/OskHhsmd2ikPrds8yb8Mkk1bqv834+RcWwEAAOiGAKBvjh4lP22p9hsHyf2c+M+M271K3jJsp/aNabYCaAQAAKADAoA+eW+dfLSl1cdnDJJnup2YE79XJc9r6X7+Qp28VQIAAMDkmbH1xU+SvGTUTu19q+RNbiXmzKsHyUEtdbQcM06uaqc0AAD8OmZtffHqcfKDFupunOQ9g2TDFmpDl1Ylee8w2aKF2j9K8le6AAAAmCwBQB9cWCdvbGmy8beDZs80zKPtk5zQ0nkAJ46TrzsQEACAyREA9MGLx8kNLdR9ZJU8yy3EnDu8Sp7UQsg1SvJ8XQAAAEyO2du8+686+ZcWVhnvnOSdw8TiP31w/DDZuYWb/T/q5BRdAAAATIYAYJ7VSV7Y0grj/x0m27RTGqbO2iRvHbQTeP3ZOFlsoS4AAPwSAcA8+5c6+UoLq4u/UyWPs/RPzzykSp7WwkfmeXXyXlsBAABonwBgXo2TvLKFScXaJMe1dCgaTLvXDpK7tFD3FePkphbqAgDArQgA5tUH6uTsFlb/XztI7lq+LMyEtUle10IAdnGSd+kCAACgXQKAeTRKO6v/D26pBRpmyRFVclgLW2COHSc3li8LAAA/YzY3j94zTr5VePV/mOT1LR2CBrPmuEGyunDNS5K8TRcAAADtEQDMmzrJa1to/T9ykOxl9g9Jkl2q5OgWPj7/1lkAAAC0RwAwb06pk28UDgA2T/KXbhX4BS8bJNsVrvn9NOd3AABAC8zq5s1xLbQQ//kg2bp8WZhpmyb5qxY+Ql87bjp5AACgMAHAPPlynXy28Mzh7lXyR24TuE1Pa2FrzNfr5N8lAAAAlGdmN09e18Lq/8sHyQbly8JcGKSd7TFtdPIAANB7AoB5cXGSDxVeNdy9Sp7k4D+4XY+tkvsUfp98om46AQAAoCABwLx42zhZLFzzmEHz+D/g16tSvgugTvIWAQAAAGUJAObBYpJ3F24Z3rNKDrf6D8tyaJU8oPD75X3j5NqyJQEA6DcBwDz4aJ1cWrjmywfuDlgXLyv8hrk6yUnOAgAAoBxTvHnw9sKThJ2SPN7qP6yTh1fJ3oXfN39vGwAAAOUIAGbd99IcGFbS8wbJQtmS0AvPKxwAnFEn5woBAAAoQwAw694xTkYF622e5OluC1iR3x8kdylc8x0CAAAAyjDTm3XvKzw5ePYgWVO2JPTGBkmeU/hj9X2FQz4AAHpLADDLvlIn5xcMAIZJjnJLwHp51iDZqGC9y5J8RhcAAADrz2xvln2g8KTgkVWyfdmS0DtbJHlC4bMAPigAAABg/QkAZtmHCk8Knul2gCL+sPB76eRxsli2JAAA/WPGN6u+WCcXFAwAtktyqEf/QREPrJJ7FXw/XZnkP3UBAACwfgQAs6p0S/AzPPoPinqqbQAAAEwXAcCs+n8FJwNVyk9WoO/+V+FQ7ZRxMi5YDwCA3hEAzKLzCrf/718luwgAoKg7JXlwwffV5Wme/AEAACskAJhFHy88CTjc5B9a8buF31unCQAAAFg5AcAsKjkJqJI8wW0ArXj8INmgYD0BAAAA68HMb9Zcn+QzBScBB1TJjuXKAbeyRZKHFuwCOLNOripXDgCAfhEAzJpP18l1Betp/4d2HVHwPTZK8ildAAAArIwAYNb8W+Ev/48WAECrDh2U/aQt/RkAAEBvCABmTcn2/12q5B4CAGjVnZLsV/B9droAAACAlREAzJLrkpxV8Mv/o0z+YSIOLfheO79uHgkIAADrSAAwS86sk5sL1nukAAAm4hEF32t1ks/pAgAAYN0JAGZJydbfjZI8UAAAE7F/lWxVsN4ZAgAAANadAGCWfL7gl/4Dq2TjcuWA2zFM2cDNOQAAAKyAAGBW1CkbABxk9R8mquR77it1ckO5cgAA9IMAYFZcUCc/LljvYAEATFTJ99yNSc7RBQAAwLoRAMyKrxesNUizJxmYnP0Kb7s5WwAAAMC6EQDMipKP/7t3lawtVw5YhlVJ7lMweCsZCgIA0AsCgFlRst33AKv/0ImS5wCUDAUBAOgFAcCsOKtgrX0L1gKWb5+CAYAtAAAArCMBwCy4Ns0hgKXsrQMAOrFXwVpXJPlhwXoAAMw9AcAsOK9OxoVqVUn2FABAJ+5ZJRsWrPcNXQAAACyfAGAWfKdgrZ2rZNOC9YDlW0hyr4IB3IUCAAAAlk8AMAtKfskv2YIMrLuS78GLC9YCAGDuCQBmwXcL1iq5+gisu5Lvwe/oAAAAYPkEALOgZAfAjuVKASuwU8EA4KJypQAAmH8CgFlwUcFaO+sAgE7tVLDWxToAAABYPgHAtKtT9ku+DgDoVskOgB8kualcOQAA5psAYNpdm+S6QrWqJNvrAIBObZNkTaFadZKrCtUCAGDuCQCm3U8L1rpLyj6DHFiZHQsGcVfbBgAAwPIIAKZdyS/3d7b6D1PhzgVrXV2wFgAAc00AMO1+UrDW1gVrAStX8r0oAAAAYJkEANNOAADzZ6uSWwDKlQIAYL4JAKbdNQVrlZx0ACtXtAPAGQAAACyPAGDa/aTgl/stypUC1sOWBWvpAAAAYJkEANOu5DO+typYC1i5kt04N5YrBQDAfBMATLubC9bauGAtYOU2Klir5GcEAABzTQAw7RYL1trAGQAwFVYXrFXyMwIAgLkmAJh2RQOAgrWAlSv5Xiy5TQgAgLkmAJh2Jdt7S646AiunAwAAgA4IAKadDgCYPyUDAB0AAAAskwBg2pUMAFYVrAWsXMkwTgcAAADLJACYdsOCtUwUYDqU3NpT8jMCAIC5JgCYdiVX7T0vHKZDyfeirT0AACyTAGDaLRSsZa8wTIeSAYCtPQAALJMAYNoJAGD+lHwvCgAAAFgmAcC0K7oFoC5YDFgxHQAAAHRAADDtSnYA3FCwFrByJd+LAgAAAJZJADDtSj4v/KqCtYCVu6pgN07JzwgAAOaaAGDaranK1fpRuVLAeriyYK21BWsBADDXBADTbrOCta50BgBMhZLdOGsLhoQAAMw1AcC027RgLVsAYDqU3AJQMiQEAGCuCQCmXdEOgIK1gJUr+V7cvGAtAADmmgBg2m1asL33clsAYCpcVrBWyS4hAADmmgBg2pXsAPh+kpsL1gNW5rsFw7jNnQEAAMDyCACm3SZJNixUa5SyEw9g3f0oydWFalVJtixUCwCAuScAmHZVkh0KrvBdXK4UsAIXFQzhtkm5gBAAgLknAJgFOxWsVXLyAay7iwrW2kn7PwAAyycAmAU7F/ySf1G5UsAKlAzhdipXCgCA+ScAmAU7FKz1TR0A0KlvFqy1iw4AAACWTwAwC0p2AHy9XClgBc4qGMLtWK4UAADzTwAwC3YuWOvbdXJdwXrA8o2TfKNgAFAyHAQAYO4JAGbB7lXzNIASxknOsQ0AOvHtOrm2YL17CQAAAFg+AcAs2DRlV/rOFgBAJ84uWGvLJHctWA8AgLknAJgV9y5Y66yCtYDlKxm+3dvqPwAA60YAMCv2Lvhl/wwdANCJku+9fQQAAACsGwHArCi52ndWnfy0XDlgGRaTfLFkB0C5UgAA9IMAYFbsVbBW6YkIcMfOqpOfFKy3lw4AAADWjQBgVtyjag4DLMU2AJisku+5hSR7CgAAAFg3AoBZMUyyv3MAYGadXnj//yblygEA0A8CgFlycMEA4LN1cmO5csDtqJN8umAAUPKzAACA3hAAzJKDCn7pvzbJ53QBwER8pU4uK1iv5GcBAAC9IQCYJfevmq0ApZwmAICJ+Fjh99qBAgAAANadAGCWbJqyjwMsPSkBbtvHC77Xdq6Su5YrBwBAfwgAZk3Jvb/n1Mkl5coBt+HHSc4sGAAcVK4UAAD9IgCYNYcUbv3913HZesAv+kSdLBasd4iPbQAAVsY3yVnzsCpZXbDeSbYBQKs+UDBkq5I83P5/AABWRgAwazZJ2RPA/6tOLi1XDriVn6TpAChlvyrZtlw5AAD6RQAwix5RMAAYJ/mwbQDQio/UyfUF6x1q9R8AgJUTAMyi0pOAD9oGAK0o2f6flA3/AADoHQHALNqzSrYvWO/0Ovl+wXpAc/r/JwuGa1sk2V8AAADAygkAZtVjC7504yTvtg0AivqncXJjwXqPrpKFgvUAAOgdAcCsOqLwSuA76iYIAMp4Z+GtNUf4uAYAYP34RjmrDqqSuxasd2Gd/IezAKCIL9XJVwu+nzZPcoj2fwAA1o8AYFYNkhxe+OV7uxYAKOLvC4dpvz1IVpctCQBA/wgAZtnhhVcE/1+dXFG2JPTOT5P8c+EwrfR7HQCAXhIAzLIDqmTHgvVuSnKiLgBYL+8cJ9cUrLdFkocKAAAAWH8CgFlWJfm9wi/hCePkhrIloTdGSY4v3P7/u4Nkg7IlAQDoJwHArHtm1QQBpVyW5L26AGBFPlQn3ykcADzT6j8AAGUIAGbdLlXyoMIThOM8EhBW5A2F3zh7Vcl+AgAAAMoQAMyDZxZ+Gb9VJ6d5JCCsk8/WyRcKv2+ebfIPAEA5AoB58IQq2aZwzVeMExkALN+rCq/+b5TkiT6iAQAox7fLebBBkicVfim/VCcfkwDAspxeJ59s4fC/zcuWBACg3wQA8+LIqvyr+Re6AGBZ/ryFQzO0/wMAUJgAYF7sXiWPKjxh+EqdfFgCALfrU3Xy6cLvk9+skv0FAAAAlCUAmCcvaOHl/Mtx82xz4Lb9RQur/8/30QwAQHm+Zc6TB7awanhOnfyDZwLCbfpAnXy+8Or/rlVymNV/AADKEwDMm+e18JL++Ti5unxZmGnXJ3lZC+0xz2/hPA8AAIivmfPn8CrZpfDq4eVJjtUFAL/gtePkosI175TkKT6WAQBoh2+a82aY5E9baB8+fpx824GAkCT5XpoAoLSjB8lG5csCAEAiAJhPfzhIdixc86YkL9QFAEmSl46SawvXvFOSP/GRDABAe3zbnEerk7y0hZf21Do5WRcAPfeJOnlfC++DFw2SNeXLAgDAzwgA5tVTB8ndW9gK8LxR8uPyZWEmXJfkT1rohNkuybN9HAMA0C7fOOfVqiQvb+Hl/WGSP7MVgJ46Zpx8p4XV/5cMko3LlwUAgFsTAMyzJ1XJ7i10AbxznPyHrQD0zJfq5jDM0rZP8kwfxQAAtM+3znk2TPLqFl7iOsmzxsk15UvDVLo+yTPGyaiF2q8aNud2AABAywQA8+6wKnl4C10AF9bNeQDQBy8ZJ+e20PVy/6rp1AEAgAkQAPTB6wbNmQCl/WOdvN9WAObcx+vkzS20/ldJ3jBofgMAwAQIAPrgXlXyrJZe6ueMkovbKQ2duzzJH46abS+l/UGV3M/sHwCAyREA9MUxg2TLFupeneRpo2SxhdrQpXGSZ4yaJ1+UtibN3n8AAJggAUBfbJXkr1p6uT9TJ//HowGZM8eOk9Na2uLyskFyl3ZKAwDAryMA6JNnD5KDW2o5Pm6cfNB5AMyJT9bJK1sKtfaqkuf76AUAYPJ8C+2TQZK3DpINW6hdJzly1M5J6TBJFyd5yqidR/4Nk7y9pUM5AQDgDggA+ma3KnlxSy/7T5P87ji5pp3y0Lrrk/zOKLmypfrPGyT3cfAfAADdEAD00UsGyR4tTUK+WSe/71BAZlCd5Fmj5KstdbHslOYwTgAA6Ihvo320QZqtAG0dQv7xOjnaoYDMmJeOk/e1NPmvkrxl2Jz+DwAAHREA9NUBLW4FSJK3jpO/FQIwI/5+nLy2xfv1OYPkEK3/AAB0SwDQZ38xSPZvcVLysnHyTw4FZMqdVifPaXHyv0eV/I2PWgAAuudbaZ8tJHnXoL225J/tqf6UEIAp9fk6eWKLZ1asTvLeQbJRS/UBAGAdCAD67p5V8roWb4Mbkjx+lHxGCMCUObtOHjtqnl7RlmMHyV5a/wEAmA4CAJI/HCRHtDhJuS7J40bJl4UATInz6uSRo+RHLV7jkCo52kcsAADTw7dTGicMk3u0GAJck+TRo+QcIQAdu6BODhkll7V4je2SvHPYnP4PAABTQgBAY/MkJw2STVq8xpVJfmuUfE0IQEfOW5r8X9riNVYl+edhEwIAAMAUEQBwi3tXyYnDdq9xeZKHjZrD12CSzl2a/F/S8nXeOEgOsvQPAMD0EQDwi55YiYIrTgAAIABJREFUJc9t+bb4nySPGCX/LgRgQv67Th7a8sp/kjy5Sp7lYxUAgOnkmyq/6jWD5OCWVzCvTfLbo+YZ7NCmTy+t/F/Z8nX2q5K3tNxBAwAA60EAwK9aleTklg8FTJqnA/z2KDlx3O516K+T6+bwyWtavs52ad4zG7V8HQAAWA8CAG7b1kk+PEi2bPk6i0meM06eP07kAJT0pnHy+6Pk+pavsybJKcNkh5avAwAA60kAwK+3e5V8aJisnsC1jp/QZI35t5jkT8bJCyYQKg2T/OMw2dehfwAATD8BALfvAVXy1gk9z/zkOnnkKPnhBK7FfLoqyWGj5C0Taid50yB5jMk/AACzQQDAHXtylfzFhG6V0+tk/8Xkcw4HZB19pU7uv5h8ckL3zgsHybN9hAIAMDt8e2V5Xj5I/veEbpdLkzxklLzGoQAs03vr5EGj5KIJXe9/VcmxPj4BAJgtvsGyfK8eJM+c0C2zmORl4+Rpo+aRgXBbbkjyx+PkqaPmqRKT8HtV8rahT08AAGaOr7AsX5XkzYPkSRPc8/yeOtl3lHzelgB+ybl1cvAoeesEO0UeXiXvGDaH/wEAwIwRALBuBkneOUwOn2AIcGGdPHiUvGKcjCZ3WaZUneRt4+SAUfK1CQZDD5ngUzEAAKAFAgDW3TDJu4bJoyYYAiymCQAeMUq+N7nLMmUuS/LYUfJH48m1/CfJA6vkw8NkwwleEwAAChMAsDKrk5w84U6AJPnPOtlnMXnTBJ7xznQ5aem1/9iEt4M8pEo+Mkw2mexlAQCgNAEAK7cqyXuHydMnfBtdneQF42ZbwDecDTD3LqyTQ0fJE0fJlRO+9mFVcsowWTPh6wIAQAsEAKyfYZITB8lRHdxKZ9TJ/UbJsePkpslfnpYtJjlunOwzSv6tg6DnyVVykrZ/AADmhwCA9TdIcvwgeWEHt9MNSY4ZN08K+KhugLnxqTq5zyh58YT3+v/MswfNYZcLHVwbAABaIgCgjCrJqwfJCYNuJk3n1cnjRsnDR8nXBQEz69t10+r/iFFyTgevY5XkmEHyfwc+HQEAmDu+4lLWkYPkA8Nk446u/+9L2wL+dJxc0dEYWHc/SvKScbL3qDnsrwurk7x72AQAAAAwh3zTpbzHVslnh8ndOrr+zUn+bpzcYzF5/ji5vKNxcMd+muQ142TXxeS1HZ7lsEWSjw2T35/wUy0AAGCCBAC0Y+8qOX2h+d2Va5McvzS5fNk4+Z/uhsIvuTbNoxyn4bXZpUo+M0weaPIPAMB8EwDQnrsm+c9h8riOJ1Y/W2W+52Ly8nHyg26H02tXJHnFUnfGC6agO+O3quRzw2R3k38AAOafAIB2bZbmUWrHDppHBnbpx0lePU7uvpg8raND5vrqgrrZjnH3xSYA6Pp8hirJiwfJqcNkq47HAgAAEyIAoH3TNtm6Kcl76ubRgY8eJafUzTPnKWuc5LQ6ecIoudeo2Y7RxSP9ftnaJCdPSSgFAAATJABgcn6rSr4wTPabknbrOsnH6+Txo2SXxeSYcXKhroD1dkluafM/bJR8pG7CgGmw51LL/2On5B4EAIAJEgAwWTstPSHgTwdNZ8C0uDTJseNkt1HyyFHyj3VyddeDmiE/TfK+OnnMqJn4v2KcfLfrQd1KleSoQTP533WabjwAAJicha4HQA+tTvLaQfKoKnn6KPl+1wO6lXGST9bJJ0fNOA+pksMHzUGGm3U9uClzQ5r/VieNkw/XTQgwjbZJ8tZh8hgTfwAA+k0AQHceWiVfXkietdQmPm1uTPLROvnoKNkoTRjwiCp5ZNV0MvTRJUk+Pm62Tnyibh7nN80eXiXvGCZ37nogAADQPQEA3do6yYeGydvGyYvHyU+6HtCvcX2awwJPWQoqdl8KAh5eJQdWyaadjq491yb5/NJk/7R6dp6csHGSVw2S507ZVhMAAOiQAIDpcOQgefQgOXrUtJNPu2/Wzc8b0pwkv1uVHFwlB1XJfZLsMaOzzh8m+VKdnFEnn62bP9/U9aDW0W9WyVsGzWsCAAD8nACA6XGXJCcNk1Pr5I9HzcF8s2CU5Ny6+Xnb0t9tkeReVXKfKtkjTSCwX9WsTE+Dm5OcXyfnphn3l+vkG2megjAD+ctt2jzJ3wySZ1r1BwCA2yIAYPocViUHLiQvGiXvntHZ6I/TrKKfcavxD5PcLcmOVbJzleyY5vcOabZCbFklWyXZYD2vfXOSq5L8qG5+X5zkojq5aOn3xUkuqZPF9bzONPm9KjlumGzb9UAAAGB6CQCYTlulObztqXXygnHytRkNAm5tlGbyfXGdfPp2/n02S7J11axoJ83vKk0wsMnS312X5pDCpAkbkuaxhVfUyTVlhz3V9qiS4wbNAY0AAMDtEgAw3R5UJV8cJu+tk5eMksu6HtAEXJPkmjkIPNq0RZIXDZI/Hax/xwQAAPTEoOsBwB0aJPmDKvnWQnLMIFnd9YDozEKaAyPPXUhebPIPAADrQgDA7FiTJgD46jB5YuXu7ZMqyeOr5L+HyQmDZJuuBwQAALPHFIrZc88qec+wCQKeIgiYew+rks8Pkw8OZ/fxigAAMAVMnZhde1TJPwyTrwyTwyuPfps3B1XJfwyTjw+bxykCAADrRQDA7NuzSt4/bFaJj6iax+0xmwZJHlclnxkmnx4mv2niDwAApQgAmB/3qZL3DZNvDZsD4tZ2PSCWbXWa7RxfGyYnD5MDTfwBAKA0AQDzZ6cqOXaQfHshedUguUvXA+LXulOagx0vWmi2c9zLxB8AANoiAGB+bZHkJYPkOwvJh4bJo2wPmAqDJIcsdWtctPRoR6f6AwBA6xa6HgC0biHJY6vkscPk0iTvGSdvr5Pv1F2PrF+2S/IHg+SZVbKLlX4AAJg0HQD0y13SnA/wzWFy2jB5xiDZsutBzbG1Sf6gSk5ZWu0/dmDyDwAAHdEBQD/9rA39kCo5YZB8vk5OqpP3j5Mruh7cjNsoyUOr5PBB8jtVsnHXAwIAABIBADTnAhxcNT+vHiSfqpN/rZOP18mFtgksy/ZJHjFIDq2Sh1dNCAAAAEwVAQDc2uo0hwU+aqlN/Tt1Ewh8qk5Oq5Ofdjq66bGQZP8qOWypi2K/KtHZDwAAU00AALdnl6UD645Mcl2SL9TJ6XXyuaWfa7oe4ISsSXL/pS6Jg6rkgKr5OwAAYGYIAGC5Nk7ykKr5SZJRknPr5LN1cmadnJXkG3VyU4djLGFVkt2qZO80q/wHV8lelU8LAACYcb7Sw0oN00yM96qSP1r6u5uTnF8nZyc5q07OrpMLklxUJzd2NtLbtkGSHavk7rnl32OvNJP/DToeGwAAUJwAAEpalWSPKtkjye/dalN8neQHaYKAC5d+fzfJFXVyVZIfJblq6c+j9RzDIMlWSbaqmkccbpVk6yrZIcnOVbJzmon/XeJBoAAA0CMCgGn3ynFyYteDoFVrl352XgoMbl76ya1+j/OrwcAwt0zgVy39Xsivrt6PklxWJ5cl+aKnGsyd/+l6AAAAzAoBwLT7kgkbAAAA608DMAAAAPSAAAAAAAB6QAAAAAAAPSAAAAAAgB4QAAAAAEAPCAAAAACgBwQAAAAA0AMCAAAAAOgBAQAAAAD0gAAAAAAAekAAAAAAAD0gAAAAAIAeEAAAAABADwgAAAAAoAcEAAAAANADAgAAAADoAQEAAAAA9EDV9QDm1J5Jtu16EC07PskehWo9K8kFhWoBK/ejJF/tehAAAMB0OSNJXehnnwmPHQAAoHdsAQAAAIAeEAAAAABADwgAAAAAoAcEAAAAANADAgAAAADoAQEAAAAA9IAAAAAAAHpAAAAAAAA9IAAAAACAHhAAAAAAQA8IAAAAAKAHBAAAAADQAwIAAAAA6AEBAAAAAPSAAAAAAAB6QAAAAAAAPSAAAAAAgB4QAAAAAEAPCAAAAACgBwQAAAAA0AMCAAAAAOgBAQAAAAD0gAAAAAAAekAAAAAAAD0gAAAAAIAeEAAAAABADwgAAAAAoAcEAAAAANADAgAAAADoAQEAAAAA9IAAAAAAAHpAAAAAAAA9IAAAAACAHhAAAAAAQA8IAAAAAKAHBAAAAADQAwIAAAAA6AEBAAAAAPSAAAAAAAB6QAAAAAAAPSAAAAAAgB4QAAAAAEAPCAAAAACgBwQAAAAA0AMCAAAAAOgBAQAAAAD0gAAAAAAAekAAAAAAAD0gAAAAAIAeEAAAAABADwgAAAAAoAcEAAAAANADAgAAAADoAQEAAAAA9IAAAAAAAHpAAAAAAAA9IAAAAACAHhAAAAAAQA8IAAAAAKAHBAAAAADQAwIAAAAA6AEBAAAAAPSAAAAAAAB6QAAAAAAAPSAAAAAAgB4QAAAAAEAPCAAAAACgBwQAAAAA0AMCAAAAAOgBAQAAAAD0gAAAAAAAekAAAAAAAD0gAAAAAIAeEAAAAABAD1RdD2BOvTnJY+7gn1lIss0ExtKWQcrdP+MkdaFaffDD+O8FAHSvSnLnrgfB3Ppmknt3PYh5s9D1AObU1knu1vUgZohOlHVz164HAAAALVvb9QDmkYkXAAAA9IAAAAAAAHpAAAAAAAA9IAAAAACAHhAAAAAAQA8IAAAAAKAHBAAAAADQAwKAdmzb9QAAAADg1gQA7dil6wEAAADArQkAAAAAoAcEAAAAANADAgAAAADoAQEAAAAA9IAAAAAAAHpAAAAAAAA9IAAAAACAHhAAAAAAQA8sdD0AYN1873vfy4Ybbtj1MACAnrvhhhtyt7vdrethAOtAAAAzZsstt8xGG23U9TAAgJ67/vrrux4CsI5sAQAAAIAeEAAAAABADwgAAAAAoAcEAAAAANADAgAAAADoAQEAAAAA9IAAAAAAAHpAAAAAAAA9IAAAAACAHhAAAAAAQA8IAAAAAKAHBAAAAADQAwIAAAAA6AEBAAAAAPSAAAAAAAB6QAAAAAAAPSAAAAAAgB4QAAAAAEAPCAAAAACgBwQAAAAA0AMCAAAAAOgBAQAAAAD0gAAAAAAAekAAAAAAAD0gAAAAAIAeEAAAAABADwgAAAAAoAcEAAAAANADAgAAAADoAQEAAAAA9IAAAAAAAHpAAAAAAAA9IAAAAACAHhAAAAAAQA8IAAAAAKAHBAAAAADQAwtdD2BOfS7JESUKnXLKKTnssMNKlAIAgGI22mij1HXd9TCYIqeeemoe85jHlCr3uVKFuIUOAAAAAOgBAQAAAAD0gAAAAAAAekAAAAAAAD0gAAAAAIAeEAAAAABADwgAAAAAoAcEAAAAANADAgAAAADoAQEAAAAA9IAAAAAAAHpAAAAAAAA9IAAAAACAHhAAAAAAQA8IAAAAAKAHBAAAAADQAwIAAAAA6AEBAAAAAPSAAAAAAAB6QAAAAAAAPSAAAAAAgB4QAAAAAEAPCAAAAACgBwQAAAAA0AMCAAAAAOgBAQAAAAD0gAAAAAAAekAAAAAAAD0gAAAAAIAeEAAAAABADwgAAAAAoAcEAAAAANADAgAAAADoAQEAAAAA9IAAAAAAAHpAAAAAAAA9IAAAAACAHhAAAAAAQA8IAAAAAKAHBAAAAADQAwIAAAAA6IGFrgcAAMyOyy67LNdee23Xwyhu6623zmabbdb1MACgVQIAAGDZnvvc5+aDH/xg18Mo7oQTTshRRx3V9TAAoFW2AAAAAEAPCAAAAACgBwQAAAAA0AMCAAAAAOgBAQAAAAD0gAAAAAAAekAAAAAAAD0gAAAAAIAeEAAAAABADwgAAAAAoAcWuh4AJMnFF1+c97///V0PY+asWrUqa9as+YW/23jjjbN69eqsWbMmq1atymabbZbhcJgtttgim2yySdauXZsNN9ywoxEDAABdEQAwFS644IK85CUv6XoYvbF69eqsXbv25z/bbLNNttlmm2y77ba5853vnDvd6U7Zdttts91222WHHXbIZptt1vWQAQCA9SQAgB668cYbc/nll+fyyy9f1j+/du3a7LDDDtlxxx1//nvXXXfN7rvvnrvf/e5ZtWpVyyMGAADWlwAAuENXX311zj777Jx99tm/8v8tLCxk5513zm677ZY999wz++yzT/bdd9/suuuuGQ6HHYwWAAC4LQIAYL0sLi7m/PPPz/nnn59TTz3153+/0UYbZa+99sp+++2XAw44IAceeGB22223DkcKAAD9JgAAWnH99dfnzDPPzJlnnpkTTzwxSbL11lvnwAMPzMEHH5wHP/jBue9976tLAAAAJkQAAEzMlVdemVNOOSWnnHJKkmTNmjU54IADcsghh/z/9u48zuq67v//a2aAAUGZ0QARBZFEFBCFFEQzUXFJw6UIMXct7SKXyu1KM8irAloMr3K7XNIWDbUylzRFCZfyYhFQDFMQURQUmAGBYYCZ+f3x6+pr5TLDzDnvc+Zzv99u8w/ePOfBuXFTPs/zWeLwww+PIUOGJC4EAIDWywAAJLNu3bp47LHH4rHHHouIiN122y2OPfbYGD16dBx44IFRUlKSuBAAAFqP0tQBAP9n8eLFce2118YnP/nJ2HXXXeOiiy6KmTNnps4CAIBWwQAAFKSlS5fGlClTYv/9948999wzxo8fH0uWLEmdBQAARcsAABS8hQsXxoQJE6JPnz5xzDHHxCOPPBINDQ2pswAAoKgYAICiUV9fHw899FAcddRR0bdv35g0aVJUV1enzgIAgKJgAACK0iuvvBKXX3559OnTJ8aPH28IAACAj2AAAIra6tWrY8KECdGzZ8+4/PLLo6qqKnUSAAAUJAMA0Cq8++67MWnSpOjTp09MmjQpNm3alDoJAAAKigEAaFWqqqri8ssvj7333jsefPDB1DkAAFAwDABAq/TSSy/FscceG5/73OdixYoVqXMAACA5AwDQqt17773Rr1+/uOmmm1KnAABAUgYAoNWrrq6Oc889N0aNGhUrV65MnQMAAEkYAIDMuP/++2PfffeNp59+OnUKAADknQEAyJQ33ngjRowYET/60Y+ioaEhdQ4AAOSNAQDInM2bN8fXv/71OOOMMzwuEACAzDAAAJl1xx13xNFHHx3V1dWpUwAAIOcMAECmPf7443HQQQfFsmXLUqcAAEBOGQCAzFuwYEEcdNBBsWTJktQpAACQMwYAgIhYsmRJjBgxwggAAECrZQAA+LslS5bEyJEjY8WKFalTAACgxRkAAN7jlVdeiWOOOSbWr1+fOgUAAFqUAQDgX8yePTvGjBkTdXV1qVMAAKDFGAAA3seDDz4Yl1xySeoMAABoMQYAgA9wzTXXxD333JM6AwAAWoQBAOBDnHnmmbFw4cLUGQAA0GwGAIAPsW7duhg7dmzU1tamTgEAgGYxAAB8hLlz58a3v/3t1BkAANAsBgCARpg8eXLMmjUrdQYAAGw1AwBAI2zZsiXOPvvs2LRpU+oUAADYKgYAgEaaP39+TJkyJXUGAABsFQMAQBNcffXVsXz58tQZAADQZAYAgCZ49913Y/z48akzAACgyQwAAE108803x/PPP586AwAAmsQAANBEdXV1HgsIAEDRMQAAbIV77703XnjhhdQZAADQaAYAgK3Q0NAQEydOTJ0BAACNZgAA2Ep33XVXvPLKK6kzAACgUQwAAFuprq4urr/++tQZAADQKAYAgGa49dZbY8OGDakzAADgI7VJHQCt3ec///kYPHhwzl5/w4YNUVtbGxERNTU1sXHjxti0aVOsXr363342bdqUs46sqq6ujrvuuivOOuus1CkAAPChDACQY5/+9Kfj9NNPT50RERFVVVXx6quv/tPPokWLYt68ebF8+fLUeUXrhhtuMAAAAFDwDACQIZWVlVFZWfm+ZyQsW7YsZs+eHbNmzYqZM2fGk08+GevXr09QWXxmzpwZCxcujH79+qVOAQCAD2QAACIiokePHtGjR48YNWpURERs2bIl/vKXv8QDDzwQjz32WMyePTtxYWG76667Yvz48akzAADgA7kJIPC+2rRpEwcddFBMnDgxZs2aFS+++GJcdtllscMOO6ROK0i//OUvUycAAMCHMgAAjbLnnnvGxIkT4/XXX4/bb789BgwYkDqpoLzyyisxZ86c1BkAAPCBDABAk3To0CFOO+20mDdvXkydOjX69OmTOqlg/P73v0+dAAAAH8gAAGyV0tLSGD16dCxYsCC+973vRbt27VInJffggw+mTgAAgA9kAACapby8PC6//PJ45plnom/fvqlzkpozZ06sWLEidQYAALwvAwDQIoYMGRKzZ8+O0aNHp05Jpr6+Ph5++OHUGQAA8L4MAECL6dSpU9x5551x5plnpk5J5pFHHkmdAAAA78sAALSosrKyuOWWW+L8889PnZLEjBkzUicAAMD7MgAALa6kpCSmTJkSJ554YuqUvFu2bFksXbo0dQYAAPwbAwCQEyUlJXHLLbdk8jGBTz31VOoEAAD4NwYAIGcqKipi6tSp0b59+9QpefX000+nTgAAgH9jAAByavDgwXHxxRenzsirmTNnpk4AAIB/YwAAcu6yyy6LnXbaKXVG3rzwwgtRV1eXOgMAAP6JAQDIuU6dOsV//dd/pc7Im5qamnj55ZdTZwAAwD9pkzoAyIbTTz89Jk6cGH/7299Sp+TF3Llzo1+/fqkzyLF169bFqlWrYuXKlVFVVRXr1q2LzZs3R0TE2rVro76+PioqKiIiorKyMtq3bx/du3ePnXbaKTp06JAyHQDIIAMAkBelpaVx3nnnxde+9rXUKXkxf/78OOmkk1Jn0EwNDQ2xePHimDt3brz00kuxZMmSePXVV2PJkiXx+uuvR21t7Va/dmVlZfTq1Sv69+8fAwcOjAEDBsTgwYOje/fuLfg7AAD4fwwAQN6cccYZccUVV0RNTU3qlJzLypkOrc2qVaviqaeeiunTp8fs2bNj3rx5sXbt2py8V1VVVVRVVcXcuXP/6df79esXI0aMiEMOOSRGjhwZlZWVOXl/ACB7DABA3lRWVsZJJ50Ut912W+qUnFu0aFHqBBqhrq4unnrqqfj9738fjz76aLzwwgvR0NCQtGnhwoWxcOHCuP7666Ndu3Zx+OGHx+jRo+O4444zBgAAzWIAAPIqKwPA4sWLUyfwAerq6uLRRx+NqVOnxv333x8rV65MnfSBNm3aFA899FA89NBDUV5eHmPGjIlx48bF/vvvnzoNAChCngIA5NXBBx8cHTt2TJ2Rc2vXro133nkndQbv8fLLL8cVV1wRu+66axx99NFx2223FfTB/7+qra2NO+64I4YOHRr7779//PrXv476+vrUWQBAETEAAHnVvn37GDFiROqMvHAZQGGYPn16HHPMMbHHHnvEd7/73XjjjTdSJzXbzJkz46STTopBgwbFb37zm+SXLQAAxcEAAOTdpz/96dQJebFs2bLUCZnV0NAQ9957b+y3334xYsSIeOihh1rlQfILL7wQn/3sZ2O//faLv/zlL6lzAIACZwAA8u7ggw9OnZAXy5cvT52QSdOmTYv9998/Pve5z8WsWbNS5+TF7Nmz48ADD4xzzz03Vq9enToHAChQBgAg7/bYY4/o0KFD6oycMwDk14IFC+KII46Iww8/PDMH/u9VX18fN910U/Tr1y+mTp2aOgcAKEAGACDv2rRpEwMGDEidkXMGgPyoqamJ8ePHx5AhQ+LRRx9NnZPcO++8E2PGjInPf/7zsWrVqtQ5AEABMQAASeyzzz6pE3LurbfeSp3Q6k2bNi0GDBgQEyZMiNra2tQ5BeXuu++OQYMGxeOPP546BQAoEAYAIIm99947dULO+fY1dzZt2hSXXHJJjBw5MhYvXpw6p2AtW7YsjjzyyPjhD3+YOgUAKAAGACCJXr16pU7IubVr16ZOaJUWLlwYw4YNix/84Aet8s7+LW3Lli1x8cUXx8knnxwbNmxInQMAJGQAAJLYaaedUifknAGg5f3+97+P/fffP5577rnUKUXnzjvvjE996lPxzjvvpE4BABIxAABJZGEAePfdd1MntCpTpkyJE044wefaDLNmzYphw4bFokWLUqcAAAkYAIAkunbtGm3atEmdkVPvvvuuU9RbwKZNm+KUU06Jiy66KOrr61PnFL3FixfHpz71qXjhhRdSpwAAeWYAAJIoKyuLrl27ps7Iqfr6+li/fn3qjKK2fv36OO644+KXv/xl6pRWZdmyZXHooYfGiy++mDoFAMgjAwCQTKdOnVIn5NyWLVtSJxSt6urqOPLII+Phhx9OndIqvfPOOzFixIhYuHBh6hQAIE8MAEAy7du3T52Qc5s2bUqdUJSqqqpixIgR8fTTT6dOadXefvvtOOKII2LJkiWpUwCAPDAAAMlkYQBwBkDTrV+/PkaNGhVz585NnZIJr7/+ehx++OGxcuXK1CkAQI4ZAIBkOnTokDoh5wwATVNTUxPHHntsPPXUU6lTMmXRokVx4oknRm1tbeoUACCHDABAMlk4A2Dz5s2pE4pGfX19jB07NqZPn546JZOefPLJOPfcc1NnAAA5ZAAAkikpKUmdkHMeA9h4l156adx3332pMzLt9ttvj8mTJ6fOAAByxAAAJFNTU5M6IefatWuXOqEo3HrrrfHDH/4wdQYR8Y1vfCOmTZuWOgMAyAEDAJDMxo0bUyfkXJs2bVInFLwnn3wyzjvvvNQZ/F1dXV2ceuqpsWLFitQpAEALMwAAyWThDIC2bdumTiho77zzTowdO9a9EgrMW2+9FSeddFLU1dWlTgEAWpABAEgmC2cAGAA+WH19fZx22mmxbNmy1Cm8j+nTp7sfAAC0MgYAIJn169enTsg5lwB8sEmTJsXDDz+cOoMPMWHChJg/f37qDACghRgAgCTq6+tb/TXGpaWlsc0226TOKEjz5s2L8ePHp87gI9TW1sZpp50WmzZtSp0CALQAAwCQxNtvvx1btmxJnZFTnTp1itJS/5n9V5s3b44zzzzTQWWRmDdvXlx99dWpMwCAFuBvpkDziooWAAAgAElEQVQSWbjuu3PnzqkTCtJ3vvOdeO6551Jn0AQTJ06MefPmpc4AAJrJAAAk8dZbb6VOyLltt902dULBWbBgQXzve99LnUETbdmyJc4///xoaGhInQIANIMBAEjitddeS52Qc9ttt13qhIJzwQUXOPW/SD355JPxs5/9LHUGANAMBgAgiSzcWXyHHXZInVBQ7rnnnnj88cdTZ9AMl156aaxatSp1BgCwlQwAQBJz585NnZBzO+64Y+qEgrFhw4b4+te/njqDZlq5cqURBwCKmAEAyLu6urp4/vnnU2fknAHg//nRj34US5cuTZ0BAJBpBgAg71566aWoqalJnZFzBoD/3+rVq+MHP/hB6gwAgMwzAAB5N2PGjNQJedG9e/fUCQVh0qRJsWbNmtQZAACZZwAA8u4Pf/hD6oS82GmnnVInJPfWW2/FT37yk9QZAACEAQDIs9ra2szcRKxPnz6pE5KbPHlybNiwIXUGAABhAADybMaMGbFu3brUGTnXqVOn6Nq1a+qMpFavXh0333xz6gwAAP7OAADk1dSpU1Mn5IVv/yOuu+66TIw9AADFwgAA5E11dXXceeedqTPyIusDwMaNG+OnP/1p6gwAAN7DAADkze233x7r169PnZEXu+++e+qEpH7+85/H8uXLU2cAAPAebVIHANlQX18fN9xwQ+qMvBk0aFDqhKSuv/761AlFqby8PDp37hwVFRXRqVOnqK6u/sdPfX196jwAoMgZAIC8+MUvfhELFy5MnZE3WR4Ann322XjuuedSZxS0du3axf777x+DBw+OwYMHx5AhQ6JPnz7RoUOHD/x31qxZEwsWLIg5c+bEnDlzYtasWfH888/nsRoAKHYGACDnampq4sorr0ydkTcdOnSIPfbYI3VGMlk606MpSktL44ADDojRo0fHySefHF26dGnSv9+5c+cYPnx4DB8+/B+/tnTp0vjtb38bP//5z2P27NktnQwAtDLuAQDk3KRJk+L1119PnZE3/fv3j7KystQZSVRVVcWvf/3r1BkFpby8PC644IJYunRpPPXUU3HhhRc2+eD/g/Ts2TMuvPDCmDVrVsyePTtGjRrVIq8LALROBgAgp+bNmxeTJ09OnZFX++23X+qEZO6+++6oqalJnVEQysrK4swzz4yXXnoppkyZEj169Mjp+w0ePDjuu++++POf/xyHHXZYTt8LAChOBgAgZ9asWROjR4/O3AHhgQcemDohmV/96lepEwpC375949lnn41bb701evXqldf3HjZsWDz22GMxderUqKyszOt7AwCFzQAA5ERDQ0OcffbZ8fLLL6dOybuDDjoodUISr7/+ejz55JOpM5I79dRTY/bs2TFkyJCkHaNHj4558+bFIYcckrQDACgcBgCgxTU0NMRFF10U9957b+qUvNt5553z/o1vobjzzjsz/ai68vLyuPPOO+OOO+6ITp06pc6JiIhddtklpk2bFldddVXqFACgABgAgBZVX18fX/7yl+Paa69NnZJEVr/9j4i46667Uick07Fjx7j//vvjpJNOSp3yb0pLS2PChAnxk5/8JEpL/W8fALLM3wSAFlNTUxNnnHFG3HjjjalTkjniiCNSJySxdOnSmDt3buqMJCoqKuKRRx6JkSNHpk75UOPGjYvbb7892rTxBGAAyCp/CwBaxPz582Ps2LHx4osvpk5JpqSkJI466qjUGUncd9990dDQkDoj7zp27BiPPvpofOITn0id0iinnHJKtG/fPsaMGZPpyzUAIKucAQA0y+bNm+NHP/pRDB06NNMH/xER++67b3Tv3j11RhL33Xdf6oS8KykpiTvuuKNoDv7/z+c+97n4zne+kzoDAEjAAABslYaGhrj77rujf//+8fWvfz02btyYOim5Y445JnVCEtXV1TFjxozUGXk3YcKEOPHEE1NnbJXLL788zjnnnNQZAECeGQCAJqmtrY1f//rX8YlPfCI+//nPZ/Ixfx9k1KhRqROS+OMf/xibN29OnZFXo0ePjiuvvDJ1RrP85Cc/ieHDh6fOAADyyD0AgEb529/+Frfeemvcdttt8fbbb6fOKTh9+vQpulPBW8q0adNSJ+RV9+7d48Ybb4ySkpLUKc1SXl4ev/rVr2LgwIHx7rvvps4BAPLAAAC8r7q6upg7d27cf//98cADD8ScOXMyeZO3xvrCF76QOiGZxx57LHVCXl133XVRWVmZOqNF9OrVKyZPnhxf/vKXU6cAAHlgAAAiImLlypUxe/bsmDNnTsycOTOeeOKJqK6uTp1VNMaMGZM6IYlXX301Fi9enDojb04++eQ4/vjjU2e0qHPPPTfuueeezJ3JAQBZZACADKmpqYnFixf/46Dt1VdfjUWLFsX8+fPjtddeS51XtPbdd9/Ya6+9UmckkaVv/7t06RJTpkxJndHiSkpK4uabb46BAwfGunXrUucAADlkAIAcmz59etTW1ubktdesWfOPZ3lXVVVFRER9fX2sWbMmqqurY9WqVbF69ep//LjONzeyfPr0n/70p9QJefPNb34zPvaxj6XOyIldd901LrnkkvjWt76VOgUAyCEDAOTYz372s/jZz36WOoMcqaioiJNPPjl1RjJPP/106oS86NWrV3zpS19KnZFTX/va1+K6666LFStWpE4BAHLEYwABmuGMM86Ijh07ps5IYvny5bFkyZLUGXkxYcKEKC8vT52RU506dYorrrgidQYAkEMGAICtVFZWFv/xH/+ROiOZZ555JnVCXuy1115xyimnpM7Ii3PPPTd69+6dOgMAyBEDAMBWGj16dOy+++6pM5LJyun/V155ZZSVlaXOyIt27drFlVdemToDAMgRAwDAVigpKYlvfOMbqTOS+t///d/UCTm34447xmc/+9nUGXk1duzYVnuzQwDIOgMAwFY4/vjjY+DAgakzkmloaIj58+enzsi5L33pS9GuXbvUGXnVoUOHOOecc1JnAAA5YAAAaKKysrLMPy5t0aJFsXbt2tQZOdWmTZtWf+f/D3Leeedl5rIHAMgSAwBAE5111lkxaNCg1BlJPffcc6kTcu7444+PHj16pM5IolevXjFq1KjUGQBACzMAADTBtttuG1dffXXqjOTmzZuXOiHnzjzzzNQJSbkMAABaHwMAQBN84xvfiG7duqXOSK61DwAVFRVx+OGHp85I6vDDD4/KysrUGQBACzIAADTSnnvuGV/96ldTZxSEv/71r6kTcuq4447L3M3//lW7du1cBgAArYwBAKARysrK4vbbb4/y8vLUKclt2rQpXnvttdQZOZW1R/99kNGjR6dOAABakAEAoBEuvvji2G+//VJnFISXX345tmzZkjojZ7bddtsYOXJk6oyCcMQRR7gMAABaEQMAwEcYMGBA5h/7914vvfRS6oScOuqoo6J9+/apMwpC27Zt49Of/nTqDACghRgAAD5Ep06dYurUqdGhQ4fUKQVj4cKFqRNy6tBDD02dUFB8HgDQehgAAD7EddddF3vuuWfqjIKyaNGi1Ak59alPfSp1QkEZMWJE6gQAoIUYAAA+wFe+8pU49dRTU2cUnKVLl6ZOyJmuXbtGv379UmcUlN69e0evXr1SZwAALcAAAPA+jj766LjmmmtSZxSkJUuWpE7ImYMPPjhKSkpSZxScQw45JHUCANACDAAA/2LfffeNqVOnRps2bVKnFJyGhoZ44403UmfkjNP/358BAABaBwMAwHvsuuuu8cADD0SnTp1SpxSk5cuXx8aNG1Nn5MywYcNSJxSk4cOHp04AAFqAAQDg73r37h3Tp0+PnXbaKXVKwXrttddSJ+RMWVlZ9O/fP3VGQfr4xz8eHTt2TJ0BADSTAQAgInr16hXTpk1zs7OP8Oabb6ZOyJm+fft63OMHKC0tjQEDBqTOAACayQAAZN4ee+wRM2bMiN69e6dOKXgrVqxInZAzAwcOTJ1Q0AYNGpQ6AQBoJgMAkGkHHHBAPPnkk9GzZ8/UKUVh+fLlqRNyZu+9906dUNAMAABQ/AwAQGZ99rOfjWnTpkWXLl1SpxQNA0B2+XwAoPgZAIDMKSsri+985ztx9913u+a7id5+++3UCTmz5557pk4oaHvttVfqBACgmTzkGsiU7t27x5133ul571uptd4DoLS0NHbZZZfUGQVt++23j2233Tbefffd1CkAwFZyBgCQGUceeWQ899xzDv6bYfXq1akTcqJbt25RXl6eOqPg7brrrqkTAIBmMAAArV7nzp3jxhtvjD/84Q/RrVu31DlFraqqKnVCTnj8Y+P4nACguLkEAGjVjj322LjhhhuiR48eqVNahTVr1qROyAkHto3jDAAAKG7OAABapd133z2mTp0a999/v4P/FrJhw4aora1NnZETBoDG8bhMAChuzgAAWpWKior45je/GV/5yleiXbt2qXNaldb67X9EuAFgIzkDAACKmwEAaBW22267OP/88+OrX/1q7LDDDqlzWqXq6urUCTnTpUuX1AlFwecEAMXNAAAUtU6dOsW4cePi0ksvje233z51Tqu2fv361Ak5489O41RWVqZOAACawQAAFKXddtstxo0bF2effXZ07tw5dU4m1NTUpE7ImYqKitQJRcFQAgDFzQAAFI2SkpI47LDD4oILLohjjjkmSkvdxzSfNmzYkDohZxzYNo7PCQCKmwEAKHg9e/aMsWPHxhe/+MXo06dP6pzMMgDQsWPHKC8vb7VPgwCA1s4AABSk7t27x/HHHx9f+MIXYvjw4VFSUpI6KfM2btyYOiEnSktLY7vttkudUTQqKytj+fLlqTMAgK1gAAAKRp8+feKEE06IE044IYYNG+YU/wLTWs8A2G677aKsrCx1RtEwAABA8TIAAMl06tQpDjnkkBg5cmSMHDky9txzz9RJfIhNmzalTsiJ8vLy1AlFxecFAMXLAADkzXbbbRcHHHBAHHDAAXHIIYfE8OHDo23btqmzaKS6urrUCTnhz2DTtGvXLnUCALCVDABATrRr1y769+8f++yzTwwdOjSGDx8e/fv3d1p/EWutA4AD2qbxeQFA8TIAAM1SWloaPXv2jL59+0b//v1j0KBBsc8++8Ree+3lm9VWprUOAP6cNo3PCwCKlwEA+EgdOnSIXr16Rc+ePaNnz57Ru3fv6Nu37z9+2rdvnzqRPDAAEOEMAAAoZgYAyKCSkpKoqKj4x09lZWXsuOOO0aVLl+jatWt07949unTpEt27d49ddtklunbtmjqZAmAAIMIAAADFzAAAOXbMMcfEgAEDWuz12rRpE9tuu+2//XqHDh3+8U38/z3WrKKiIkpLS6OioiLatm0bFRUV0blz5+jcuXOL9ZAd9fX1qRNywgFt0xhMAKB4GQAgx0aPHh2nn3566gxottZ6A8eGhobUCUXF5wUAxat1/m0OgBZXVlaWOiEnNm3alDqhqPi8AKB4GQAAaJTWOgBs3rw5dUJRMQAAQPEyAADQKAYAIgwAAFDMDAAANEprHQAc0DaNwQQAipcBAIBGaa0DgAPapjGYAEDxMgAA0Cjl5eWpE3LCANA0BgAAKF4GAAAaZZtttkmdkBMbNmxInVBUampqUicAAFvJAABAo3To0CF1Qk6sW7fOt9pNsGrVqtQJAMBWMgAA0CitdQCIiKiurk6dUBTq6+tjzZo1qTMAgK1kAACgUVrrJQAREatXr06dUBTWrFkTdXV1qTMAgK1kAACgUVrzGQBVVVWpE4qCoQQAipsBAIBG2XbbbVMn5IwD28ZxqQQAFDcDAACNUlFRkTohZ5wB0DhuAAgAxc0AAECjtOYBYMWKFakTioLPCQCKmwEAgEZp165dq70R4GuvvZY6oSgsWbIkdQIA0AwGAAAarbWeBbB06dLUCUXBUAIAxc0AAECjtdYBwIFt4zgDAACKmwEAgEbbYYcdUifkhAGgcXxOAFDcDAAANNqOO+6YOiEnqqqqYu3atakzClp9fX28/vrrqTMAgGYwAADQaN26dUudkDNOb/9wb775ZtTW1qbOAACawQAAQKO15gHghRdeSJ1Q0J5//vnUCQBAMxkAAGi01noJQIQD3I8yb9681AkAQDMZAABotNZ8BsD8+fNTJxQ0AwkAFD8DAACNtvPOO6dOyBkDwIebO3du6gQAoJkMAAA0Wq9evVIn5Mwbb7wRq1atSp1RkGpra+Nvf/tb6gwAoJkMAAA02vbbbx/bbrtt6oyccRbA+3vhhRdiy5YtqTMAgGYyAADQJLvsskvqhJx5+umnUycUpBkzZqROAABagAEAgCZpzZcB/OlPf0qdUJCmT5+eOgEAaAEGAACaZNddd02dkDPPPPNMbNq0KXVGQamrq4snn3wydQYA0AIMAAA0Sd++fVMn5MyGDRti1qxZqTMKyty5c6Oqqip1BgDQAgwAADTJHnvskTohp1wG8M+c/g8ArYcBAIAm6devX+qEnHr00UdTJxQUnwcAtB4GAACapFevXtGhQ4fUGTkzY8aMePvtt1NnFISqqqp44oknUmcAAC3EAABAk5SWlsbuu++eOiNn6urq4r777kudURB++9vfuikiALQiBgAAmqx///6pE3Lq3nvvTZ1QEO65557UCQBACzIAANBkgwYNSp2QU48//nisXr06dUZS1dXVMW3atNQZAEALMgAA0GT77LNP6oSc2rx5c+YvA/jNb37j9H8AaGUMAAA02b777ps6IeduvPHG1AlJ3XDDDakTAIAWZgAAoMm6du0a3bt3T52RU88++2zMmjUrdUYSf/7zn2PmzJmpMwCAFmYAAGCrDB48OHVCzl133XWpE5L46U9/mjoBAMgBAwAAW2XYsGGpE3LurrvuilWrVqXOyKvly5fH3XffnToDAMgBAwAAW2X48OGpE3KupqYm/ud//id1Rl5dd911bv4HAK2UAQCArTJ06NBo06ZN6oycmzx5clRVVaXOyIt33nknpkyZkjoDAMgRAwAAW6Vjx44xcODA1Bk5V1VVFddcc03qjLy4+uqrY+3atakzAIAcMQAAsNUOPPDA1Al5cc0118Tbb7+dOiOnlixZEjfddFPqDAAghwwAAGy1Qw89NHVCXqxbty6++93vps7Iqauuuipqa2tTZwAAOWQAAGCrjRgxIsrKylJn5MVPf/rTmDNnTuqMnHjiiSfiF7/4ReoMACDHDAAAbLWKiorYd999U2fkxZYtW+Kss86KzZs3p05pUevXr48vfvGL0dDQkDoFAMgxAwAAzXL44YenTsibefPmxQ9+8IPUGS3qkksuiUWLFqXOAADywAAAQLOMHDkydUJeffvb346//vWvqTNaxBNPPBE33HBD6gwAIE8MAAA0yyc/+cmorKxMnZE3GzdujBNPPDHWrFmTOqVZ3nzzzTj11FOd+g8AGWIAAKBZ2rZtG0cddVTqjLxauHBhnHTSSVFXV5c6ZavU1NTE8ccfH8uWLUudAgDkkQEAgGY77rjjUifk3cMPPxxXXHFF6owma2hoiDPOOCNmzpyZOgUAyDMDAADNdtRRR0W7du1SZ+TdpEmT4vrrr0+d0WgNDQ1x4YUXxtSpU1OnAAAJGAAAaLbOnTvHYYcdljojiXHjxhXFkwHq6uri7LPPjv/+7/9OnQIAJGIAAKBFjB07NnVCEg0NDXHJJZfE5ZdfnjrlA23atCnGjh0bt912W+oUACAhAwAALeKEE06IbbbZJnVGMpMmTYpzzjknNmzYkDrln7z55ptx5JFHxt133506BQBIzAAAQIvo1KlTjBo1KnVGUrfccksMGTIknnvuudQpERHxu9/9Lvbee++YPn166hQAoAAYAABoMSeffHLqhOQWLlwYBxxwQPzwhz+MzZs3J2moqqqK8847L0444YRYtWpVkgYAoPAYAABoMUcffXT06NEjdUZytbW1cfHFF8fuu+8eN910U9TV1eXlfdevXx+TJk2KPn36xI033piX9wQAiocBAIAW06ZNmzjrrLNSZxSM1157Lc4999wYNGhQ3HHHHfHuu+/m5H3eeOONmDhxYvTu3Tsuv/zyqKqqysn7AADFzQAAQIs655xzoqysLHVGQVmwYEGcfvrp0a1btxgzZkzcd999sX79+ma95ooVK+Kmm26KQw45JHr16hX/+Z//Ge+8804LFQMArVGb1AEAtC49e/aMo446Kh588MHUKQWnpqYmpk6dGlOnTo2ysrLYY489YsiQITF48OD4+Mc/HhUVFf/46dixY6xZsyaqq6ujuro6Vq1aFS+++GLMnj075syZE6+//nrq3w4AUGQMAAC0uHHjxhkAPkJdXV28+OKL8eKLL8bPf/7z1DkAQAa4BACAFnf00UfHoEGDUmcAAPAeBgAAcuKiiy5KnQAAwHsYAADIiS984Quxyy67pM4AAODvDAAA5ETbtm3jwgsvTJ0BAMDfGQAAyJlx48ZFjx49UmcAABAGAAByqH379nHZZZelzgAAIAwAAOTYueeeG717906dAQCQeQYAAHKqXbt2cdVVV6XOoIXstttuqRMAgK1kAAAg50477bTYf//9U2fQTKNGjYohQ4akzgAAtpIBAICcKy0tjR//+MdRUlKSOoWtVFJSEhMmTEidAQA0gwEAgLw44IAD4uSTT06dwVYaM2ZM7LPPPqkzAIBmMAAAkDeTJk2Kzp07p86gidq2bevbfwBoBQwAAORNjx494vvf/37qDJroggsuiL59+6bOAACayQAAQF6dc845MXLkyNQZNFK3bt3im9/8ZuoMAKAFGAAAyKuSkpK44YYbomPHjqlTaITvf//7LtsAgFbCAABA3u22227x4x//OHUGH+Gggw6KU045JXUGANBCDAAAJHHOOefE2LFjU2fwAbbZZpu45ZZbPLoRAFoRAwAAyVx33XXRu3fv1Bm8j4kTJ7rxHwC0MgYAAJKpqKiIO++8M8rLy1On8B4jRoyIcePGpc4AAFqYAQCApIYOHRo33HBD6gz+rrKyMm699dYoLfVXBABobfzfHYDkzjjjjPjqV7+aOiPzSkpK4tZbb41dd901dQoAkAMGAAAKwve///046qijUmdk2hVXXBHHH3986gwAIEcMAAAUhLKysrj33nvjwAMPTJ2SSYcddliMHz8+dQYAkEMGAAAKxjbbbBMPPPBADBo0KHVKpuy1114xderUKCsrS50CAOSQAQCAglJRUREPPPBA7LbbbqlTMmHnnXeORx55JLbffvvUKQBAjhkAACg4O++8czz99NPRv3//1CmtWufOnePBBx+MnXfeOXUKAJAHBgAACtKOO+4Y06ZNiwEDBqROaZU6d+4cf/jDH2LvvfdOnQIA5IkBAICC1a1bt3jiiSdi+PDhqVNale233z4effTROOCAA1KnAAB5ZAAAoKB97GMfi8cffzxOOeWU1CmtQpcuXeLxxx+P/fbbL3UKAJBnBgAACl55eXnccccd8a1vfStKSkpS5xStj3/84zFjxgxPWQCAjDIAAFAUSkpKYvz48XHffffFDjvskDqn6Bx00EHxzDPPRL9+/VKnAACJGAAAKCqf+cxn4rnnnosDDzwwdUrROO+88+Lxxx+PLl26pE4BABIyAABQdHbZZZeYPn16TJgwIdq1a5c6p2B17tw5fvWrX8X1118fbdu2TZ0DACRmAACgKLVp0yauuuqqmDNnTgwdOjR1TsEZNmxYzJ49O8aOHZs6BQAoEAYAAIpa//794+mnn45rr73WvQEiomPHjjF58uR46qmnok+fPqlzAIACYgAAoOiVlZXF+eefHy+//HJcdtllUV5enjopiWOPPTYWLFgQl1xySZSVlaXOAQAKjAEAgFajsrIyJk6cGAsWLIizzz47M/cHGDx4cDzyyCNx//33R69evVLnAAAFygAAQKvTp0+fuPnmm2PRokVx4YUXRseOHVMn5cQ+++wTv/vd72LWrFlxxBFHpM4BAApcm9QBEBFx6KGHRkNDQ+oMoJXZeeed48c//nFMmDAhfvGLX8RNN90U8+fPT53VLKWlpTFy5MgYN25cHHvssVFSUpLX9586dWpe3w8AaDnOAACg1evcuXOMGzcu5s2bF3/5y1/i/PPPj5133jl1VpN069YtLr300nj55Zfj4Ycfjs985jN5P/gHAIqbMwAAyJShQ4fG0KFDY8qUKfHss8/Gb37zm/jjH/8Y8+fPL7gzkXr27BknnHBCnHjiiXHggQe6sR8A0CwGAAAyqaSkJIYNGxbDhg2LyZMnx8qVK+OJJ56I6dOnx6xZs+L555+PmpqavDZ17949PvnJT8ZBBx0UBx98cOy9996+5QcAWowBAAAi4mMf+1iMHj06Ro8eHRERW7Zsib/+9a8xb968ePnll2PRokWxePHiePXVV2PFihVbfbZAWVlZdO3aNXr06BF77bVX7LXXXtG/f//o379/9O7duyV/SwAA/8QAAADvo02bNjFw4MAYOHDgv/2z+vr6WLVqVaxcuTJWrlwZGzdujOrq6oiI2LBhQ9TW1kZFRUWUlJRE586do7S0NLp06RLdunWLrl27RmmpW/AAAPlnAACAJvq/A/ouXbqkTgEAaDRfQQAAAEAGGAAAAAAgAwwAAAAAkAEGAAAAAMgAAwAAAABkgAEAAAAAMsAAAAAAABlgAAAAAIAMMAAAAABABhgAAAAAIAMMAAAAAJABBgAAAADIAAMAAAAAZIABAAAAADLAAAAAAAAZYAAAAACADDAAAAAAQAYYAAAAACADDAAAAACQAQYAAAAAyAADAAAAAGSAAQAAAAAywAAAAAAAGWAAAAAAgAwwAAAAAEAGGAAAAAAgAwwAAAAAkAEGAAAAAMgAAwAAAABkgAEAAAAAMsAAAAAAABlgAAAAAIAMMAAAAABABhgAAAAAIAMMAAAAAJABBgAAAADIAAMAAAAAZIABAAAAADLAAAAAAAAZ0CZ1QCvVtaVe6NFHH40VK1a01MtR5Pr06ROHHHJI6gwAAO8ncZ0AAAMUSURBVKAIGQByo09LvdC1117bUi9FKzBmzBgDAAAAsFVcAgAAAAAZYAAAAACADDAAAAAAQAYYAAAAACADDAAAAACQAQYAAAAAyAADAAAAAGSAAQAAAAAywAAAAAAAGWAAAAAAgAwwAAAAAEAGGAAAAAAgAwwAAAAAkAEGAAAAAMgAAwAAAABkgAEAAAAAMsAAAAAAABlgAAAAAIAMMAAAAABABhgAAAAAIAMMAAAAAJABBgAAAADIAAMAAAAAZIABAAAAADLAAAAAAAAZYAAAAACADDAAAAAAQAYYAAAAACADDAAAAACQAQYAAAAAyAADAAAAAGSAAQAAAAAywAAAAAAAGWAAAAAAgAwwAAAAAEAGGAAAAAAgAwwAAAAAkAEGAAAAAMiANqkDgMZ75JFHYp999kmdAQAA/2bt2rWpE/gIBgAoItXV1VFdXZ06AwAAKEIuAQAAAIAMMAAAAABABhgAAAAAIAMMAAAAAJABBgAAAADIAAMAAAAAZIABAAAAADLAAAAAAAAZYAAAAACADDAAAAAAQAYYAAAAACADDAAAAACQAQYAAAAAyAADAAAAAGSAAQAAAAAywACQG2+kDgAAAID3MgDkxuupAwAAAOC9SlIHtFLdI2Lb1BEAAABF6t2IeCt1BAAAAAAAAAAAAAAAAAAAAAAAAAAAAAAAAAAAAAAAAAAAAAAAAAAAAAAAAAAAAAAAAAAAAAAAAAAAAAAAAAAAAAAAAAAAAAAAAAAAAAAAAAAAAAAAAAAAAAAAAAAAAAAAAAAAAAAAAAAAAAAAAAAAAAAAAAAAAAAAAAAAAAAAAAAAAAAAAAAAAAAAAAAAAAAAAAAAAAAAAAAAAAAAAAAAAAAAAAAAAAAAAAAAAAAAAAAAAAAAAAAAAAAAAAAAAAAAAAAAAAAAAAAAAAAAAAAAAAAAAAAAAAAAAAAAAAAAAAAAAAAAAAAAAAAAAAAAAAAAAAAAAAAAAAAAAAAAAAAAAAAAAAAAAAAAAAAAAAAAAAAAAAAAAAAAAAAAAAAAAAAAAAAAAAAAAAAAANCq/H8KoGC31nqU5QAAAABJRU5ErkJggg==;verticalAlign=top;labelPosition=center;verticalLabelPosition=bottom;align=center;clipPath=inset(7.67% 8% 8% 7.67%);" vertex="1" parent="1">
          <mxGeometry x="290" y="760" width="114" height="114" as="geometry" />
        </mxCell>
        <mxCell id="epSYKEgupzC-YlLHhk_k-30" style="edgeStyle=orthogonalEdgeStyle;shape=connector;rounded=0;orthogonalLoop=1;jettySize=auto;html=1;exitX=1;exitY=0.5;exitDx=0;exitDy=0;entryX=0;entryY=0.25;entryDx=0;entryDy=0;strokeColor=#FF9933;strokeWidth=3;align=center;verticalAlign=middle;fontFamily=Helvetica;fontSize=11;fontColor=default;labelBackgroundColor=default;endArrow=classic;" edge="1" parent="1" source="epSYKEgupzC-YlLHhk_k-4" target="epSYKEgupzC-YlLHhk_k-5">
          <mxGeometry relative="1" as="geometry" />
        </mxCell>
        <mxCell id="epSYKEgupzC-YlLHhk_k-33" value="TEENSY" style="shape=process;whiteSpace=wrap;html=1;backgroundOutline=1;fontFamily=Helvetica;fontSize=11;labelBackgroundColor=default;direction=south;labelPosition=center;verticalLabelPosition=bottom;align=center;verticalAlign=top;fillStyle=solid;sketch=1;curveFitting=1;jiggle=2;fillColor=#d5e8d4;strokeColor=#82b366;" vertex="1" parent="1">
          <mxGeometry x="30" y="830" width="60" height="120" as="geometry" />
        </mxCell>
        <mxCell id="epSYKEgupzC-YlLHhk_k-35" value="HP" style="pointerEvents=1;verticalLabelPosition=bottom;shadow=0;dashed=0;align=center;html=1;verticalAlign=top;shape=mxgraph.electrical.electro-mechanical.loudspeaker;fontFamily=Helvetica;fontSize=11;fontColor=default;labelBackgroundColor=default;" vertex="1" parent="1">
          <mxGeometry x="460" y="876" width="25" height="50" as="geometry" />
        </mxCell>
        <mxCell id="epSYKEgupzC-YlLHhk_k-36" style="edgeStyle=orthogonalEdgeStyle;shape=connector;rounded=0;orthogonalLoop=1;jettySize=auto;html=1;exitX=0.75;exitY=1;exitDx=0;exitDy=0;entryX=0;entryY=0.4;entryDx=0;entryDy=0;entryPerimeter=0;strokeColor=#FFFF33;strokeWidth=3;align=center;verticalAlign=middle;fontFamily=Helvetica;fontSize=11;fontColor=default;labelBackgroundColor=default;endArrow=classic;" edge="1" parent="1" source="epSYKEgupzC-YlLHhk_k-29" target="epSYKEgupzC-YlLHhk_k-35">
          <mxGeometry relative="1" as="geometry" />
        </mxCell>
        <mxCell id="epSYKEgupzC-YlLHhk_k-40" style="edgeStyle=orthogonalEdgeStyle;shape=connector;rounded=0;orthogonalLoop=1;jettySize=auto;html=1;exitX=0.5;exitY=1;exitDx=0;exitDy=0;entryX=0.5;entryY=0;entryDx=0;entryDy=0;strokeColor=#CC0000;strokeWidth=3;align=center;verticalAlign=middle;fontFamily=Helvetica;fontSize=11;fontColor=default;labelBackgroundColor=default;endArrow=classic;" edge="1" parent="1" source="epSYKEgupzC-YlLHhk_k-37" target="epSYKEgupzC-YlLHhk_k-38">
          <mxGeometry relative="1" as="geometry" />
        </mxCell>
        <mxCell id="epSYKEgupzC-YlLHhk_k-37" value="ESP 01S" style="shape=process;whiteSpace=wrap;html=1;backgroundOutline=1;fontFamily=Helvetica;fontSize=11;labelBackgroundColor=default;direction=south;labelPosition=center;verticalLabelPosition=bottom;align=center;verticalAlign=top;fillColor=#bac8d3;strokeColor=#23445d;sketch=1;curveFitting=1;jiggle=2;" vertex="1" parent="1">
          <mxGeometry x="710" y="850" width="60" height="120" as="geometry" />
        </mxCell>
        <mxCell id="epSYKEgupzC-YlLHhk_k-38" value="TEENSY" style="shape=process;whiteSpace=wrap;html=1;backgroundOutline=1;fontFamily=Helvetica;fontSize=11;labelBackgroundColor=default;direction=south;labelPosition=center;verticalLabelPosition=bottom;align=center;verticalAlign=top;sketch=1;curveFitting=1;jiggle=2;fillStyle=solid;fillColor=#d5e8d4;strokeColor=#82b366;" vertex="1" parent="1">
          <mxGeometry x="610" y="850" width="60" height="120" as="geometry" />
        </mxCell>
        <mxCell id="epSYKEgupzC-YlLHhk_k-39" value="HP" style="pointerEvents=1;verticalLabelPosition=bottom;shadow=0;dashed=0;align=center;html=1;verticalAlign=top;shape=mxgraph.electrical.electro-mechanical.loudspeaker;fontFamily=Helvetica;fontSize=11;fontColor=default;labelBackgroundColor=default;direction=west;" vertex="1" parent="1">
          <mxGeometry x="550" y="926" width="25" height="50" as="geometry" />
        </mxCell>
        <mxCell id="epSYKEgupzC-YlLHhk_k-41" style="edgeStyle=orthogonalEdgeStyle;shape=connector;rounded=0;orthogonalLoop=1;jettySize=auto;html=1;exitX=0.5;exitY=1;exitDx=0;exitDy=0;entryX=0;entryY=0.6;entryDx=0;entryDy=0;entryPerimeter=0;strokeColor=#FFFF33;strokeWidth=3;align=center;verticalAlign=middle;fontFamily=Helvetica;fontSize=11;fontColor=default;labelBackgroundColor=default;endArrow=classic;" edge="1" parent="1" source="epSYKEgupzC-YlLHhk_k-38" target="epSYKEgupzC-YlLHhk_k-39">
          <mxGeometry relative="1" as="geometry" />
        </mxCell>
        <mxCell id="epSYKEgupzC-YlLHhk_k-43" style="edgeStyle=orthogonalEdgeStyle;shape=connector;rounded=0;orthogonalLoop=1;jettySize=auto;html=1;strokeColor=#13A8FF;strokeWidth=3;align=center;verticalAlign=middle;fontFamily=Helvetica;fontSize=11;fontColor=default;labelBackgroundColor=default;endArrow=classic;curved=0;" edge="1" parent="1">
          <mxGeometry relative="1" as="geometry">
            <mxPoint x="160" y="1060" as="sourcePoint" />
            <mxPoint x="30" y="1060" as="targetPoint" />
            <Array as="points">
              <mxPoint x="150" y="1060" />
              <mxPoint x="150" y="1060" />
            </Array>
          </mxGeometry>
        </mxCell>
        <mxCell id="epSYKEgupzC-YlLHhk_k-49" value="OSC" style="edgeLabel;html=1;align=center;verticalAlign=middle;resizable=0;points=[];fontFamily=Helvetica;fontSize=11;fontColor=default;labelBackgroundColor=default;fontStyle=1" vertex="1" connectable="0" parent="epSYKEgupzC-YlLHhk_k-43">
          <mxGeometry x="-0.2769" y="-2" relative="1" as="geometry">
            <mxPoint x="57" as="offset" />
          </mxGeometry>
        </mxCell>
        <mxCell id="epSYKEgupzC-YlLHhk_k-44" style="edgeStyle=orthogonalEdgeStyle;shape=connector;rounded=1;orthogonalLoop=1;jettySize=auto;html=1;strokeColor=#00CC00;strokeWidth=3;align=center;verticalAlign=middle;fontFamily=Helvetica;fontSize=11;fontColor=default;labelBackgroundColor=default;endArrow=classic;curved=0;" edge="1" parent="1">
          <mxGeometry relative="1" as="geometry">
            <mxPoint x="160" y="1090" as="sourcePoint" />
            <mxPoint x="30" y="1090" as="targetPoint" />
            <Array as="points">
              <mxPoint x="150" y="1090" />
              <mxPoint x="150" y="1090" />
            </Array>
          </mxGeometry>
        </mxCell>
        <mxCell id="epSYKEgupzC-YlLHhk_k-50" value="copie ecran" style="edgeLabel;html=1;align=center;verticalAlign=middle;resizable=0;points=[];fontFamily=Helvetica;fontSize=11;fontColor=default;labelBackgroundColor=default;fontStyle=1" vertex="1" connectable="0" parent="epSYKEgupzC-YlLHhk_k-44">
          <mxGeometry x="-0.5538" y="-2" relative="1" as="geometry">
            <mxPoint x="59" as="offset" />
          </mxGeometry>
        </mxCell>
        <mxCell id="epSYKEgupzC-YlLHhk_k-45" style="edgeStyle=orthogonalEdgeStyle;shape=connector;rounded=0;orthogonalLoop=1;jettySize=auto;html=1;strokeColor=#FF9933;strokeWidth=3;align=center;verticalAlign=middle;fontFamily=Helvetica;fontSize=11;fontColor=default;labelBackgroundColor=default;endArrow=classic;curved=0;" edge="1" parent="1">
          <mxGeometry relative="1" as="geometry">
            <mxPoint x="160" y="1120" as="sourcePoint" />
            <mxPoint x="30" y="1120" as="targetPoint" />
            <Array as="points">
              <mxPoint x="150" y="1120" />
              <mxPoint x="150" y="1120" />
            </Array>
          </mxGeometry>
        </mxCell>
        <mxCell id="epSYKEgupzC-YlLHhk_k-51" value="stream audio" style="edgeLabel;html=1;align=center;verticalAlign=middle;resizable=0;points=[];fontFamily=Helvetica;fontSize=11;fontColor=default;labelBackgroundColor=default;fontStyle=1" vertex="1" connectable="0" parent="epSYKEgupzC-YlLHhk_k-45">
          <mxGeometry x="-0.5385" y="-3" relative="1" as="geometry">
            <mxPoint x="60" as="offset" />
          </mxGeometry>
        </mxCell>
        <mxCell id="epSYKEgupzC-YlLHhk_k-46" style="edgeStyle=orthogonalEdgeStyle;shape=connector;rounded=0;orthogonalLoop=1;jettySize=auto;html=1;strokeColor=#FF33FF;strokeWidth=3;align=center;verticalAlign=middle;fontFamily=Helvetica;fontSize=11;fontColor=#FF88FB;labelBackgroundColor=default;endArrow=classic;curved=0;" edge="1" parent="1">
          <mxGeometry relative="1" as="geometry">
            <mxPoint x="160" y="1150" as="sourcePoint" />
            <mxPoint x="30" y="1150" as="targetPoint" />
            <Array as="points">
              <mxPoint x="150" y="1150" />
              <mxPoint x="150" y="1150" />
            </Array>
          </mxGeometry>
        </mxCell>
        <mxCell id="epSYKEgupzC-YlLHhk_k-52" value="artnet" style="edgeLabel;html=1;align=center;verticalAlign=middle;resizable=0;points=[];fontFamily=Helvetica;fontSize=11;fontColor=default;labelBackgroundColor=default;fontStyle=1" vertex="1" connectable="0" parent="epSYKEgupzC-YlLHhk_k-46">
          <mxGeometry x="-0.8" y="-1" relative="1" as="geometry">
            <mxPoint x="23" as="offset" />
          </mxGeometry>
        </mxCell>
        <mxCell id="epSYKEgupzC-YlLHhk_k-47" style="edgeStyle=orthogonalEdgeStyle;shape=connector;rounded=0;orthogonalLoop=1;jettySize=auto;html=1;strokeColor=#CC0000;strokeWidth=3;align=center;verticalAlign=middle;fontFamily=Helvetica;fontSize=11;fontColor=default;labelBackgroundColor=default;endArrow=classic;curved=0;" edge="1" parent="1">
          <mxGeometry relative="1" as="geometry">
            <mxPoint x="590" y="1060" as="sourcePoint" />
            <mxPoint x="460" y="1060" as="targetPoint" />
            <Array as="points">
              <mxPoint x="580" y="1060" />
              <mxPoint x="580" y="1060" />
            </Array>
          </mxGeometry>
        </mxCell>
        <mxCell id="epSYKEgupzC-YlLHhk_k-53" value="serial" style="edgeLabel;html=1;align=center;verticalAlign=middle;resizable=0;points=[];fontFamily=Helvetica;fontSize=11;fontColor=default;labelBackgroundColor=default;fontStyle=1" vertex="1" connectable="0" parent="epSYKEgupzC-YlLHhk_k-47">
          <mxGeometry x="-0.7077" y="-3" relative="1" as="geometry">
            <mxPoint x="29" as="offset" />
          </mxGeometry>
        </mxCell>
        <mxCell id="epSYKEgupzC-YlLHhk_k-48" style="edgeStyle=orthogonalEdgeStyle;shape=connector;rounded=0;orthogonalLoop=1;jettySize=auto;html=1;strokeColor=#FFFF33;strokeWidth=3;align=center;verticalAlign=middle;fontFamily=Helvetica;fontSize=11;fontColor=default;labelBackgroundColor=default;endArrow=classic;curved=0;" edge="1" parent="1">
          <mxGeometry relative="1" as="geometry">
            <mxPoint x="590" y="1100" as="sourcePoint" />
            <mxPoint x="460" y="1100" as="targetPoint" />
            <Array as="points">
              <mxPoint x="580" y="1100" />
              <mxPoint x="580" y="1100" />
            </Array>
          </mxGeometry>
        </mxCell>
        <mxCell id="epSYKEgupzC-YlLHhk_k-55" value="i2s" style="edgeLabel;html=1;align=center;verticalAlign=middle;resizable=0;points=[];fontFamily=Helvetica;fontSize=11;fontColor=default;labelBackgroundColor=default;fontStyle=1" vertex="1" connectable="0" parent="epSYKEgupzC-YlLHhk_k-48">
          <mxGeometry x="-0.5846" relative="1" as="geometry">
            <mxPoint x="37" as="offset" />
          </mxGeometry>
        </mxCell>
      </root>
    </mxGraphModel>
  </diagram>
</mxfile>
